%
M48
M72
T01C0.03150
T02C0.03200
T03C0.05906
T04C0.12598
%
T01
X88500Y211000
X93500Y221000
X103500Y221000
X98500Y211000
X108500Y211000
X113500Y221000
X123500Y221000
X118500Y211000
X128500Y211000
X133500Y221000
X133500Y96000
X128500Y86000
X118500Y86000
X113500Y96000
X123500Y96000
X108500Y86000
X98500Y86000
X93500Y96000
X103500Y96000
X88500Y86000
X88500Y26000
X78500Y26000
X73500Y16000
X83500Y16000
X93500Y16000
X103500Y16000
X98500Y26000
X108500Y26000
X113500Y16000
X123500Y16000
X118500Y26000
X128500Y26000
X133500Y16000
X143500Y16000
X153500Y16000
X148500Y26000
X138500Y26000
X158500Y26000
X68500Y26000
X63500Y16000
T02
X21000Y41000
X21000Y51000
X21000Y61000
X21000Y71000
X21000Y81000
X21000Y91000
X21000Y101000
X31000Y116000
X41000Y116000
X51000Y101000
X51000Y91000
X51000Y81000
X51000Y71000
X51000Y61000
X51000Y51000
X51000Y41000
X71000Y136000
X71000Y146000
X71000Y156000
X86000Y156000
X86000Y146000
X86000Y136000
X101000Y136000
X101000Y146000
X101000Y156000
X116000Y156000
X116000Y146000
X116000Y136000
X131000Y136000
X131000Y146000
X131000Y156000
X146000Y156000
X146000Y146000
X146000Y136000
X161000Y136000
X161000Y146000
X161000Y156000
X171000Y161000
X171000Y176000
X161000Y186000
X171000Y196000
X171000Y211000
X146000Y186000
X131000Y186000
X116000Y186000
X101000Y186000
X86000Y186000
X71000Y186000
X56000Y181000
X56000Y196000
X56000Y211000
X26000Y211000
X26000Y196000
X26000Y181000
X171000Y91000
X171000Y81000
X171000Y71000
X171000Y61000
X171000Y51000
X171000Y41000
X201000Y41000
X201000Y51000
X201000Y61000
X201000Y71000
X201000Y81000
X201000Y91000
X201000Y101000
X191000Y121000
X181000Y121000
X171000Y101000
X201000Y161000
X201000Y176000
X201000Y196000
X201000Y211000
T03
X139878Y87437
X164878Y17437
X82122Y219563
T04
X12811Y225409
X209661Y12811
X12811Y12811
X209661Y225409
M30
