G75*
%MOIN*%
%OFA0B0*%
%FSLAX25Y25*%
%IPPOS*%
%LPD*%
%AMOC8*
5,1,8,0,0,1.08239X$1,22.5*
%
%ADD10C,0.00000*%
%ADD11C,0.12998*%
%ADD12OC8,0.05600*%
%ADD13C,0.05600*%
%ADD14C,0.06000*%
%ADD15C,0.06306*%
D10*
X0001000Y0001000D02*
X0001000Y0237220D01*
X0221472Y0237220D01*
X0221472Y0001000D01*
X0001000Y0001000D01*
X0006512Y0012811D02*
X0006514Y0012969D01*
X0006520Y0013127D01*
X0006530Y0013285D01*
X0006544Y0013443D01*
X0006562Y0013600D01*
X0006583Y0013757D01*
X0006609Y0013913D01*
X0006639Y0014069D01*
X0006672Y0014224D01*
X0006710Y0014377D01*
X0006751Y0014530D01*
X0006796Y0014682D01*
X0006845Y0014833D01*
X0006898Y0014982D01*
X0006954Y0015130D01*
X0007014Y0015276D01*
X0007078Y0015421D01*
X0007146Y0015564D01*
X0007217Y0015706D01*
X0007291Y0015846D01*
X0007369Y0015983D01*
X0007451Y0016119D01*
X0007535Y0016253D01*
X0007624Y0016384D01*
X0007715Y0016513D01*
X0007810Y0016640D01*
X0007907Y0016765D01*
X0008008Y0016887D01*
X0008112Y0017006D01*
X0008219Y0017123D01*
X0008329Y0017237D01*
X0008442Y0017348D01*
X0008557Y0017457D01*
X0008675Y0017562D01*
X0008796Y0017664D01*
X0008919Y0017764D01*
X0009045Y0017860D01*
X0009173Y0017953D01*
X0009303Y0018043D01*
X0009436Y0018129D01*
X0009571Y0018213D01*
X0009707Y0018292D01*
X0009846Y0018369D01*
X0009987Y0018441D01*
X0010129Y0018511D01*
X0010273Y0018576D01*
X0010419Y0018638D01*
X0010566Y0018696D01*
X0010715Y0018751D01*
X0010865Y0018802D01*
X0011016Y0018849D01*
X0011168Y0018892D01*
X0011321Y0018931D01*
X0011476Y0018967D01*
X0011631Y0018998D01*
X0011787Y0019026D01*
X0011943Y0019050D01*
X0012100Y0019070D01*
X0012258Y0019086D01*
X0012415Y0019098D01*
X0012574Y0019106D01*
X0012732Y0019110D01*
X0012890Y0019110D01*
X0013048Y0019106D01*
X0013207Y0019098D01*
X0013364Y0019086D01*
X0013522Y0019070D01*
X0013679Y0019050D01*
X0013835Y0019026D01*
X0013991Y0018998D01*
X0014146Y0018967D01*
X0014301Y0018931D01*
X0014454Y0018892D01*
X0014606Y0018849D01*
X0014757Y0018802D01*
X0014907Y0018751D01*
X0015056Y0018696D01*
X0015203Y0018638D01*
X0015349Y0018576D01*
X0015493Y0018511D01*
X0015635Y0018441D01*
X0015776Y0018369D01*
X0015915Y0018292D01*
X0016051Y0018213D01*
X0016186Y0018129D01*
X0016319Y0018043D01*
X0016449Y0017953D01*
X0016577Y0017860D01*
X0016703Y0017764D01*
X0016826Y0017664D01*
X0016947Y0017562D01*
X0017065Y0017457D01*
X0017180Y0017348D01*
X0017293Y0017237D01*
X0017403Y0017123D01*
X0017510Y0017006D01*
X0017614Y0016887D01*
X0017715Y0016765D01*
X0017812Y0016640D01*
X0017907Y0016513D01*
X0017998Y0016384D01*
X0018087Y0016253D01*
X0018171Y0016119D01*
X0018253Y0015983D01*
X0018331Y0015846D01*
X0018405Y0015706D01*
X0018476Y0015564D01*
X0018544Y0015421D01*
X0018608Y0015276D01*
X0018668Y0015130D01*
X0018724Y0014982D01*
X0018777Y0014833D01*
X0018826Y0014682D01*
X0018871Y0014530D01*
X0018912Y0014377D01*
X0018950Y0014224D01*
X0018983Y0014069D01*
X0019013Y0013913D01*
X0019039Y0013757D01*
X0019060Y0013600D01*
X0019078Y0013443D01*
X0019092Y0013285D01*
X0019102Y0013127D01*
X0019108Y0012969D01*
X0019110Y0012811D01*
X0019108Y0012653D01*
X0019102Y0012495D01*
X0019092Y0012337D01*
X0019078Y0012179D01*
X0019060Y0012022D01*
X0019039Y0011865D01*
X0019013Y0011709D01*
X0018983Y0011553D01*
X0018950Y0011398D01*
X0018912Y0011245D01*
X0018871Y0011092D01*
X0018826Y0010940D01*
X0018777Y0010789D01*
X0018724Y0010640D01*
X0018668Y0010492D01*
X0018608Y0010346D01*
X0018544Y0010201D01*
X0018476Y0010058D01*
X0018405Y0009916D01*
X0018331Y0009776D01*
X0018253Y0009639D01*
X0018171Y0009503D01*
X0018087Y0009369D01*
X0017998Y0009238D01*
X0017907Y0009109D01*
X0017812Y0008982D01*
X0017715Y0008857D01*
X0017614Y0008735D01*
X0017510Y0008616D01*
X0017403Y0008499D01*
X0017293Y0008385D01*
X0017180Y0008274D01*
X0017065Y0008165D01*
X0016947Y0008060D01*
X0016826Y0007958D01*
X0016703Y0007858D01*
X0016577Y0007762D01*
X0016449Y0007669D01*
X0016319Y0007579D01*
X0016186Y0007493D01*
X0016051Y0007409D01*
X0015915Y0007330D01*
X0015776Y0007253D01*
X0015635Y0007181D01*
X0015493Y0007111D01*
X0015349Y0007046D01*
X0015203Y0006984D01*
X0015056Y0006926D01*
X0014907Y0006871D01*
X0014757Y0006820D01*
X0014606Y0006773D01*
X0014454Y0006730D01*
X0014301Y0006691D01*
X0014146Y0006655D01*
X0013991Y0006624D01*
X0013835Y0006596D01*
X0013679Y0006572D01*
X0013522Y0006552D01*
X0013364Y0006536D01*
X0013207Y0006524D01*
X0013048Y0006516D01*
X0012890Y0006512D01*
X0012732Y0006512D01*
X0012574Y0006516D01*
X0012415Y0006524D01*
X0012258Y0006536D01*
X0012100Y0006552D01*
X0011943Y0006572D01*
X0011787Y0006596D01*
X0011631Y0006624D01*
X0011476Y0006655D01*
X0011321Y0006691D01*
X0011168Y0006730D01*
X0011016Y0006773D01*
X0010865Y0006820D01*
X0010715Y0006871D01*
X0010566Y0006926D01*
X0010419Y0006984D01*
X0010273Y0007046D01*
X0010129Y0007111D01*
X0009987Y0007181D01*
X0009846Y0007253D01*
X0009707Y0007330D01*
X0009571Y0007409D01*
X0009436Y0007493D01*
X0009303Y0007579D01*
X0009173Y0007669D01*
X0009045Y0007762D01*
X0008919Y0007858D01*
X0008796Y0007958D01*
X0008675Y0008060D01*
X0008557Y0008165D01*
X0008442Y0008274D01*
X0008329Y0008385D01*
X0008219Y0008499D01*
X0008112Y0008616D01*
X0008008Y0008735D01*
X0007907Y0008857D01*
X0007810Y0008982D01*
X0007715Y0009109D01*
X0007624Y0009238D01*
X0007535Y0009369D01*
X0007451Y0009503D01*
X0007369Y0009639D01*
X0007291Y0009776D01*
X0007217Y0009916D01*
X0007146Y0010058D01*
X0007078Y0010201D01*
X0007014Y0010346D01*
X0006954Y0010492D01*
X0006898Y0010640D01*
X0006845Y0010789D01*
X0006796Y0010940D01*
X0006751Y0011092D01*
X0006710Y0011245D01*
X0006672Y0011398D01*
X0006639Y0011553D01*
X0006609Y0011709D01*
X0006583Y0011865D01*
X0006562Y0012022D01*
X0006544Y0012179D01*
X0006530Y0012337D01*
X0006520Y0012495D01*
X0006514Y0012653D01*
X0006512Y0012811D01*
X0136925Y0087437D02*
X0136927Y0087545D01*
X0136933Y0087654D01*
X0136943Y0087762D01*
X0136957Y0087869D01*
X0136975Y0087976D01*
X0136996Y0088083D01*
X0137022Y0088188D01*
X0137052Y0088293D01*
X0137085Y0088396D01*
X0137122Y0088498D01*
X0137163Y0088598D01*
X0137207Y0088697D01*
X0137256Y0088795D01*
X0137307Y0088890D01*
X0137362Y0088983D01*
X0137421Y0089075D01*
X0137483Y0089164D01*
X0137548Y0089251D01*
X0137616Y0089335D01*
X0137687Y0089417D01*
X0137761Y0089496D01*
X0137838Y0089572D01*
X0137918Y0089646D01*
X0138001Y0089716D01*
X0138086Y0089784D01*
X0138173Y0089848D01*
X0138263Y0089909D01*
X0138355Y0089967D01*
X0138449Y0090021D01*
X0138545Y0090072D01*
X0138642Y0090119D01*
X0138742Y0090163D01*
X0138843Y0090203D01*
X0138945Y0090239D01*
X0139048Y0090271D01*
X0139153Y0090300D01*
X0139259Y0090324D01*
X0139365Y0090345D01*
X0139472Y0090362D01*
X0139580Y0090375D01*
X0139688Y0090384D01*
X0139797Y0090389D01*
X0139905Y0090390D01*
X0140014Y0090387D01*
X0140122Y0090380D01*
X0140230Y0090369D01*
X0140337Y0090354D01*
X0140444Y0090335D01*
X0140550Y0090312D01*
X0140655Y0090286D01*
X0140760Y0090255D01*
X0140862Y0090221D01*
X0140964Y0090183D01*
X0141064Y0090141D01*
X0141163Y0090096D01*
X0141260Y0090047D01*
X0141354Y0089994D01*
X0141447Y0089938D01*
X0141538Y0089879D01*
X0141627Y0089816D01*
X0141713Y0089751D01*
X0141797Y0089682D01*
X0141878Y0089610D01*
X0141956Y0089535D01*
X0142032Y0089457D01*
X0142105Y0089376D01*
X0142175Y0089293D01*
X0142241Y0089208D01*
X0142305Y0089120D01*
X0142365Y0089029D01*
X0142422Y0088937D01*
X0142475Y0088842D01*
X0142525Y0088746D01*
X0142571Y0088648D01*
X0142614Y0088548D01*
X0142653Y0088447D01*
X0142688Y0088344D01*
X0142720Y0088241D01*
X0142747Y0088136D01*
X0142771Y0088030D01*
X0142791Y0087923D01*
X0142807Y0087816D01*
X0142819Y0087708D01*
X0142827Y0087600D01*
X0142831Y0087491D01*
X0142831Y0087383D01*
X0142827Y0087274D01*
X0142819Y0087166D01*
X0142807Y0087058D01*
X0142791Y0086951D01*
X0142771Y0086844D01*
X0142747Y0086738D01*
X0142720Y0086633D01*
X0142688Y0086530D01*
X0142653Y0086427D01*
X0142614Y0086326D01*
X0142571Y0086226D01*
X0142525Y0086128D01*
X0142475Y0086032D01*
X0142422Y0085937D01*
X0142365Y0085845D01*
X0142305Y0085754D01*
X0142241Y0085666D01*
X0142175Y0085581D01*
X0142105Y0085498D01*
X0142032Y0085417D01*
X0141956Y0085339D01*
X0141878Y0085264D01*
X0141797Y0085192D01*
X0141713Y0085123D01*
X0141627Y0085058D01*
X0141538Y0084995D01*
X0141447Y0084936D01*
X0141355Y0084880D01*
X0141260Y0084827D01*
X0141163Y0084778D01*
X0141064Y0084733D01*
X0140964Y0084691D01*
X0140862Y0084653D01*
X0140760Y0084619D01*
X0140655Y0084588D01*
X0140550Y0084562D01*
X0140444Y0084539D01*
X0140337Y0084520D01*
X0140230Y0084505D01*
X0140122Y0084494D01*
X0140014Y0084487D01*
X0139905Y0084484D01*
X0139797Y0084485D01*
X0139688Y0084490D01*
X0139580Y0084499D01*
X0139472Y0084512D01*
X0139365Y0084529D01*
X0139259Y0084550D01*
X0139153Y0084574D01*
X0139048Y0084603D01*
X0138945Y0084635D01*
X0138843Y0084671D01*
X0138742Y0084711D01*
X0138642Y0084755D01*
X0138545Y0084802D01*
X0138449Y0084853D01*
X0138355Y0084907D01*
X0138263Y0084965D01*
X0138173Y0085026D01*
X0138086Y0085090D01*
X0138001Y0085158D01*
X0137918Y0085228D01*
X0137838Y0085302D01*
X0137761Y0085378D01*
X0137687Y0085457D01*
X0137616Y0085539D01*
X0137548Y0085623D01*
X0137483Y0085710D01*
X0137421Y0085799D01*
X0137362Y0085891D01*
X0137307Y0085984D01*
X0137256Y0086079D01*
X0137207Y0086177D01*
X0137163Y0086276D01*
X0137122Y0086376D01*
X0137085Y0086478D01*
X0137052Y0086581D01*
X0137022Y0086686D01*
X0136996Y0086791D01*
X0136975Y0086898D01*
X0136957Y0087005D01*
X0136943Y0087112D01*
X0136933Y0087220D01*
X0136927Y0087329D01*
X0136925Y0087437D01*
X0161925Y0017437D02*
X0161927Y0017545D01*
X0161933Y0017654D01*
X0161943Y0017762D01*
X0161957Y0017869D01*
X0161975Y0017976D01*
X0161996Y0018083D01*
X0162022Y0018188D01*
X0162052Y0018293D01*
X0162085Y0018396D01*
X0162122Y0018498D01*
X0162163Y0018598D01*
X0162207Y0018697D01*
X0162256Y0018795D01*
X0162307Y0018890D01*
X0162362Y0018983D01*
X0162421Y0019075D01*
X0162483Y0019164D01*
X0162548Y0019251D01*
X0162616Y0019335D01*
X0162687Y0019417D01*
X0162761Y0019496D01*
X0162838Y0019572D01*
X0162918Y0019646D01*
X0163001Y0019716D01*
X0163086Y0019784D01*
X0163173Y0019848D01*
X0163263Y0019909D01*
X0163355Y0019967D01*
X0163449Y0020021D01*
X0163545Y0020072D01*
X0163642Y0020119D01*
X0163742Y0020163D01*
X0163843Y0020203D01*
X0163945Y0020239D01*
X0164048Y0020271D01*
X0164153Y0020300D01*
X0164259Y0020324D01*
X0164365Y0020345D01*
X0164472Y0020362D01*
X0164580Y0020375D01*
X0164688Y0020384D01*
X0164797Y0020389D01*
X0164905Y0020390D01*
X0165014Y0020387D01*
X0165122Y0020380D01*
X0165230Y0020369D01*
X0165337Y0020354D01*
X0165444Y0020335D01*
X0165550Y0020312D01*
X0165655Y0020286D01*
X0165760Y0020255D01*
X0165862Y0020221D01*
X0165964Y0020183D01*
X0166064Y0020141D01*
X0166163Y0020096D01*
X0166260Y0020047D01*
X0166354Y0019994D01*
X0166447Y0019938D01*
X0166538Y0019879D01*
X0166627Y0019816D01*
X0166713Y0019751D01*
X0166797Y0019682D01*
X0166878Y0019610D01*
X0166956Y0019535D01*
X0167032Y0019457D01*
X0167105Y0019376D01*
X0167175Y0019293D01*
X0167241Y0019208D01*
X0167305Y0019120D01*
X0167365Y0019029D01*
X0167422Y0018937D01*
X0167475Y0018842D01*
X0167525Y0018746D01*
X0167571Y0018648D01*
X0167614Y0018548D01*
X0167653Y0018447D01*
X0167688Y0018344D01*
X0167720Y0018241D01*
X0167747Y0018136D01*
X0167771Y0018030D01*
X0167791Y0017923D01*
X0167807Y0017816D01*
X0167819Y0017708D01*
X0167827Y0017600D01*
X0167831Y0017491D01*
X0167831Y0017383D01*
X0167827Y0017274D01*
X0167819Y0017166D01*
X0167807Y0017058D01*
X0167791Y0016951D01*
X0167771Y0016844D01*
X0167747Y0016738D01*
X0167720Y0016633D01*
X0167688Y0016530D01*
X0167653Y0016427D01*
X0167614Y0016326D01*
X0167571Y0016226D01*
X0167525Y0016128D01*
X0167475Y0016032D01*
X0167422Y0015937D01*
X0167365Y0015845D01*
X0167305Y0015754D01*
X0167241Y0015666D01*
X0167175Y0015581D01*
X0167105Y0015498D01*
X0167032Y0015417D01*
X0166956Y0015339D01*
X0166878Y0015264D01*
X0166797Y0015192D01*
X0166713Y0015123D01*
X0166627Y0015058D01*
X0166538Y0014995D01*
X0166447Y0014936D01*
X0166355Y0014880D01*
X0166260Y0014827D01*
X0166163Y0014778D01*
X0166064Y0014733D01*
X0165964Y0014691D01*
X0165862Y0014653D01*
X0165760Y0014619D01*
X0165655Y0014588D01*
X0165550Y0014562D01*
X0165444Y0014539D01*
X0165337Y0014520D01*
X0165230Y0014505D01*
X0165122Y0014494D01*
X0165014Y0014487D01*
X0164905Y0014484D01*
X0164797Y0014485D01*
X0164688Y0014490D01*
X0164580Y0014499D01*
X0164472Y0014512D01*
X0164365Y0014529D01*
X0164259Y0014550D01*
X0164153Y0014574D01*
X0164048Y0014603D01*
X0163945Y0014635D01*
X0163843Y0014671D01*
X0163742Y0014711D01*
X0163642Y0014755D01*
X0163545Y0014802D01*
X0163449Y0014853D01*
X0163355Y0014907D01*
X0163263Y0014965D01*
X0163173Y0015026D01*
X0163086Y0015090D01*
X0163001Y0015158D01*
X0162918Y0015228D01*
X0162838Y0015302D01*
X0162761Y0015378D01*
X0162687Y0015457D01*
X0162616Y0015539D01*
X0162548Y0015623D01*
X0162483Y0015710D01*
X0162421Y0015799D01*
X0162362Y0015891D01*
X0162307Y0015984D01*
X0162256Y0016079D01*
X0162207Y0016177D01*
X0162163Y0016276D01*
X0162122Y0016376D01*
X0162085Y0016478D01*
X0162052Y0016581D01*
X0162022Y0016686D01*
X0161996Y0016791D01*
X0161975Y0016898D01*
X0161957Y0017005D01*
X0161943Y0017112D01*
X0161933Y0017220D01*
X0161927Y0017329D01*
X0161925Y0017437D01*
X0203362Y0012811D02*
X0203364Y0012969D01*
X0203370Y0013127D01*
X0203380Y0013285D01*
X0203394Y0013443D01*
X0203412Y0013600D01*
X0203433Y0013757D01*
X0203459Y0013913D01*
X0203489Y0014069D01*
X0203522Y0014224D01*
X0203560Y0014377D01*
X0203601Y0014530D01*
X0203646Y0014682D01*
X0203695Y0014833D01*
X0203748Y0014982D01*
X0203804Y0015130D01*
X0203864Y0015276D01*
X0203928Y0015421D01*
X0203996Y0015564D01*
X0204067Y0015706D01*
X0204141Y0015846D01*
X0204219Y0015983D01*
X0204301Y0016119D01*
X0204385Y0016253D01*
X0204474Y0016384D01*
X0204565Y0016513D01*
X0204660Y0016640D01*
X0204757Y0016765D01*
X0204858Y0016887D01*
X0204962Y0017006D01*
X0205069Y0017123D01*
X0205179Y0017237D01*
X0205292Y0017348D01*
X0205407Y0017457D01*
X0205525Y0017562D01*
X0205646Y0017664D01*
X0205769Y0017764D01*
X0205895Y0017860D01*
X0206023Y0017953D01*
X0206153Y0018043D01*
X0206286Y0018129D01*
X0206421Y0018213D01*
X0206557Y0018292D01*
X0206696Y0018369D01*
X0206837Y0018441D01*
X0206979Y0018511D01*
X0207123Y0018576D01*
X0207269Y0018638D01*
X0207416Y0018696D01*
X0207565Y0018751D01*
X0207715Y0018802D01*
X0207866Y0018849D01*
X0208018Y0018892D01*
X0208171Y0018931D01*
X0208326Y0018967D01*
X0208481Y0018998D01*
X0208637Y0019026D01*
X0208793Y0019050D01*
X0208950Y0019070D01*
X0209108Y0019086D01*
X0209265Y0019098D01*
X0209424Y0019106D01*
X0209582Y0019110D01*
X0209740Y0019110D01*
X0209898Y0019106D01*
X0210057Y0019098D01*
X0210214Y0019086D01*
X0210372Y0019070D01*
X0210529Y0019050D01*
X0210685Y0019026D01*
X0210841Y0018998D01*
X0210996Y0018967D01*
X0211151Y0018931D01*
X0211304Y0018892D01*
X0211456Y0018849D01*
X0211607Y0018802D01*
X0211757Y0018751D01*
X0211906Y0018696D01*
X0212053Y0018638D01*
X0212199Y0018576D01*
X0212343Y0018511D01*
X0212485Y0018441D01*
X0212626Y0018369D01*
X0212765Y0018292D01*
X0212901Y0018213D01*
X0213036Y0018129D01*
X0213169Y0018043D01*
X0213299Y0017953D01*
X0213427Y0017860D01*
X0213553Y0017764D01*
X0213676Y0017664D01*
X0213797Y0017562D01*
X0213915Y0017457D01*
X0214030Y0017348D01*
X0214143Y0017237D01*
X0214253Y0017123D01*
X0214360Y0017006D01*
X0214464Y0016887D01*
X0214565Y0016765D01*
X0214662Y0016640D01*
X0214757Y0016513D01*
X0214848Y0016384D01*
X0214937Y0016253D01*
X0215021Y0016119D01*
X0215103Y0015983D01*
X0215181Y0015846D01*
X0215255Y0015706D01*
X0215326Y0015564D01*
X0215394Y0015421D01*
X0215458Y0015276D01*
X0215518Y0015130D01*
X0215574Y0014982D01*
X0215627Y0014833D01*
X0215676Y0014682D01*
X0215721Y0014530D01*
X0215762Y0014377D01*
X0215800Y0014224D01*
X0215833Y0014069D01*
X0215863Y0013913D01*
X0215889Y0013757D01*
X0215910Y0013600D01*
X0215928Y0013443D01*
X0215942Y0013285D01*
X0215952Y0013127D01*
X0215958Y0012969D01*
X0215960Y0012811D01*
X0215958Y0012653D01*
X0215952Y0012495D01*
X0215942Y0012337D01*
X0215928Y0012179D01*
X0215910Y0012022D01*
X0215889Y0011865D01*
X0215863Y0011709D01*
X0215833Y0011553D01*
X0215800Y0011398D01*
X0215762Y0011245D01*
X0215721Y0011092D01*
X0215676Y0010940D01*
X0215627Y0010789D01*
X0215574Y0010640D01*
X0215518Y0010492D01*
X0215458Y0010346D01*
X0215394Y0010201D01*
X0215326Y0010058D01*
X0215255Y0009916D01*
X0215181Y0009776D01*
X0215103Y0009639D01*
X0215021Y0009503D01*
X0214937Y0009369D01*
X0214848Y0009238D01*
X0214757Y0009109D01*
X0214662Y0008982D01*
X0214565Y0008857D01*
X0214464Y0008735D01*
X0214360Y0008616D01*
X0214253Y0008499D01*
X0214143Y0008385D01*
X0214030Y0008274D01*
X0213915Y0008165D01*
X0213797Y0008060D01*
X0213676Y0007958D01*
X0213553Y0007858D01*
X0213427Y0007762D01*
X0213299Y0007669D01*
X0213169Y0007579D01*
X0213036Y0007493D01*
X0212901Y0007409D01*
X0212765Y0007330D01*
X0212626Y0007253D01*
X0212485Y0007181D01*
X0212343Y0007111D01*
X0212199Y0007046D01*
X0212053Y0006984D01*
X0211906Y0006926D01*
X0211757Y0006871D01*
X0211607Y0006820D01*
X0211456Y0006773D01*
X0211304Y0006730D01*
X0211151Y0006691D01*
X0210996Y0006655D01*
X0210841Y0006624D01*
X0210685Y0006596D01*
X0210529Y0006572D01*
X0210372Y0006552D01*
X0210214Y0006536D01*
X0210057Y0006524D01*
X0209898Y0006516D01*
X0209740Y0006512D01*
X0209582Y0006512D01*
X0209424Y0006516D01*
X0209265Y0006524D01*
X0209108Y0006536D01*
X0208950Y0006552D01*
X0208793Y0006572D01*
X0208637Y0006596D01*
X0208481Y0006624D01*
X0208326Y0006655D01*
X0208171Y0006691D01*
X0208018Y0006730D01*
X0207866Y0006773D01*
X0207715Y0006820D01*
X0207565Y0006871D01*
X0207416Y0006926D01*
X0207269Y0006984D01*
X0207123Y0007046D01*
X0206979Y0007111D01*
X0206837Y0007181D01*
X0206696Y0007253D01*
X0206557Y0007330D01*
X0206421Y0007409D01*
X0206286Y0007493D01*
X0206153Y0007579D01*
X0206023Y0007669D01*
X0205895Y0007762D01*
X0205769Y0007858D01*
X0205646Y0007958D01*
X0205525Y0008060D01*
X0205407Y0008165D01*
X0205292Y0008274D01*
X0205179Y0008385D01*
X0205069Y0008499D01*
X0204962Y0008616D01*
X0204858Y0008735D01*
X0204757Y0008857D01*
X0204660Y0008982D01*
X0204565Y0009109D01*
X0204474Y0009238D01*
X0204385Y0009369D01*
X0204301Y0009503D01*
X0204219Y0009639D01*
X0204141Y0009776D01*
X0204067Y0009916D01*
X0203996Y0010058D01*
X0203928Y0010201D01*
X0203864Y0010346D01*
X0203804Y0010492D01*
X0203748Y0010640D01*
X0203695Y0010789D01*
X0203646Y0010940D01*
X0203601Y0011092D01*
X0203560Y0011245D01*
X0203522Y0011398D01*
X0203489Y0011553D01*
X0203459Y0011709D01*
X0203433Y0011865D01*
X0203412Y0012022D01*
X0203394Y0012179D01*
X0203380Y0012337D01*
X0203370Y0012495D01*
X0203364Y0012653D01*
X0203362Y0012811D01*
X0079169Y0219563D02*
X0079171Y0219671D01*
X0079177Y0219780D01*
X0079187Y0219888D01*
X0079201Y0219995D01*
X0079219Y0220102D01*
X0079240Y0220209D01*
X0079266Y0220314D01*
X0079296Y0220419D01*
X0079329Y0220522D01*
X0079366Y0220624D01*
X0079407Y0220724D01*
X0079451Y0220823D01*
X0079500Y0220921D01*
X0079551Y0221016D01*
X0079606Y0221109D01*
X0079665Y0221201D01*
X0079727Y0221290D01*
X0079792Y0221377D01*
X0079860Y0221461D01*
X0079931Y0221543D01*
X0080005Y0221622D01*
X0080082Y0221698D01*
X0080162Y0221772D01*
X0080245Y0221842D01*
X0080330Y0221910D01*
X0080417Y0221974D01*
X0080507Y0222035D01*
X0080599Y0222093D01*
X0080693Y0222147D01*
X0080789Y0222198D01*
X0080886Y0222245D01*
X0080986Y0222289D01*
X0081087Y0222329D01*
X0081189Y0222365D01*
X0081292Y0222397D01*
X0081397Y0222426D01*
X0081503Y0222450D01*
X0081609Y0222471D01*
X0081716Y0222488D01*
X0081824Y0222501D01*
X0081932Y0222510D01*
X0082041Y0222515D01*
X0082149Y0222516D01*
X0082258Y0222513D01*
X0082366Y0222506D01*
X0082474Y0222495D01*
X0082581Y0222480D01*
X0082688Y0222461D01*
X0082794Y0222438D01*
X0082899Y0222412D01*
X0083004Y0222381D01*
X0083106Y0222347D01*
X0083208Y0222309D01*
X0083308Y0222267D01*
X0083407Y0222222D01*
X0083504Y0222173D01*
X0083598Y0222120D01*
X0083691Y0222064D01*
X0083782Y0222005D01*
X0083871Y0221942D01*
X0083957Y0221877D01*
X0084041Y0221808D01*
X0084122Y0221736D01*
X0084200Y0221661D01*
X0084276Y0221583D01*
X0084349Y0221502D01*
X0084419Y0221419D01*
X0084485Y0221334D01*
X0084549Y0221246D01*
X0084609Y0221155D01*
X0084666Y0221063D01*
X0084719Y0220968D01*
X0084769Y0220872D01*
X0084815Y0220774D01*
X0084858Y0220674D01*
X0084897Y0220573D01*
X0084932Y0220470D01*
X0084964Y0220367D01*
X0084991Y0220262D01*
X0085015Y0220156D01*
X0085035Y0220049D01*
X0085051Y0219942D01*
X0085063Y0219834D01*
X0085071Y0219726D01*
X0085075Y0219617D01*
X0085075Y0219509D01*
X0085071Y0219400D01*
X0085063Y0219292D01*
X0085051Y0219184D01*
X0085035Y0219077D01*
X0085015Y0218970D01*
X0084991Y0218864D01*
X0084964Y0218759D01*
X0084932Y0218656D01*
X0084897Y0218553D01*
X0084858Y0218452D01*
X0084815Y0218352D01*
X0084769Y0218254D01*
X0084719Y0218158D01*
X0084666Y0218063D01*
X0084609Y0217971D01*
X0084549Y0217880D01*
X0084485Y0217792D01*
X0084419Y0217707D01*
X0084349Y0217624D01*
X0084276Y0217543D01*
X0084200Y0217465D01*
X0084122Y0217390D01*
X0084041Y0217318D01*
X0083957Y0217249D01*
X0083871Y0217184D01*
X0083782Y0217121D01*
X0083691Y0217062D01*
X0083599Y0217006D01*
X0083504Y0216953D01*
X0083407Y0216904D01*
X0083308Y0216859D01*
X0083208Y0216817D01*
X0083106Y0216779D01*
X0083004Y0216745D01*
X0082899Y0216714D01*
X0082794Y0216688D01*
X0082688Y0216665D01*
X0082581Y0216646D01*
X0082474Y0216631D01*
X0082366Y0216620D01*
X0082258Y0216613D01*
X0082149Y0216610D01*
X0082041Y0216611D01*
X0081932Y0216616D01*
X0081824Y0216625D01*
X0081716Y0216638D01*
X0081609Y0216655D01*
X0081503Y0216676D01*
X0081397Y0216700D01*
X0081292Y0216729D01*
X0081189Y0216761D01*
X0081087Y0216797D01*
X0080986Y0216837D01*
X0080886Y0216881D01*
X0080789Y0216928D01*
X0080693Y0216979D01*
X0080599Y0217033D01*
X0080507Y0217091D01*
X0080417Y0217152D01*
X0080330Y0217216D01*
X0080245Y0217284D01*
X0080162Y0217354D01*
X0080082Y0217428D01*
X0080005Y0217504D01*
X0079931Y0217583D01*
X0079860Y0217665D01*
X0079792Y0217749D01*
X0079727Y0217836D01*
X0079665Y0217925D01*
X0079606Y0218017D01*
X0079551Y0218110D01*
X0079500Y0218205D01*
X0079451Y0218303D01*
X0079407Y0218402D01*
X0079366Y0218502D01*
X0079329Y0218604D01*
X0079296Y0218707D01*
X0079266Y0218812D01*
X0079240Y0218917D01*
X0079219Y0219024D01*
X0079201Y0219131D01*
X0079187Y0219238D01*
X0079177Y0219346D01*
X0079171Y0219455D01*
X0079169Y0219563D01*
X0006512Y0225409D02*
X0006514Y0225567D01*
X0006520Y0225725D01*
X0006530Y0225883D01*
X0006544Y0226041D01*
X0006562Y0226198D01*
X0006583Y0226355D01*
X0006609Y0226511D01*
X0006639Y0226667D01*
X0006672Y0226822D01*
X0006710Y0226975D01*
X0006751Y0227128D01*
X0006796Y0227280D01*
X0006845Y0227431D01*
X0006898Y0227580D01*
X0006954Y0227728D01*
X0007014Y0227874D01*
X0007078Y0228019D01*
X0007146Y0228162D01*
X0007217Y0228304D01*
X0007291Y0228444D01*
X0007369Y0228581D01*
X0007451Y0228717D01*
X0007535Y0228851D01*
X0007624Y0228982D01*
X0007715Y0229111D01*
X0007810Y0229238D01*
X0007907Y0229363D01*
X0008008Y0229485D01*
X0008112Y0229604D01*
X0008219Y0229721D01*
X0008329Y0229835D01*
X0008442Y0229946D01*
X0008557Y0230055D01*
X0008675Y0230160D01*
X0008796Y0230262D01*
X0008919Y0230362D01*
X0009045Y0230458D01*
X0009173Y0230551D01*
X0009303Y0230641D01*
X0009436Y0230727D01*
X0009571Y0230811D01*
X0009707Y0230890D01*
X0009846Y0230967D01*
X0009987Y0231039D01*
X0010129Y0231109D01*
X0010273Y0231174D01*
X0010419Y0231236D01*
X0010566Y0231294D01*
X0010715Y0231349D01*
X0010865Y0231400D01*
X0011016Y0231447D01*
X0011168Y0231490D01*
X0011321Y0231529D01*
X0011476Y0231565D01*
X0011631Y0231596D01*
X0011787Y0231624D01*
X0011943Y0231648D01*
X0012100Y0231668D01*
X0012258Y0231684D01*
X0012415Y0231696D01*
X0012574Y0231704D01*
X0012732Y0231708D01*
X0012890Y0231708D01*
X0013048Y0231704D01*
X0013207Y0231696D01*
X0013364Y0231684D01*
X0013522Y0231668D01*
X0013679Y0231648D01*
X0013835Y0231624D01*
X0013991Y0231596D01*
X0014146Y0231565D01*
X0014301Y0231529D01*
X0014454Y0231490D01*
X0014606Y0231447D01*
X0014757Y0231400D01*
X0014907Y0231349D01*
X0015056Y0231294D01*
X0015203Y0231236D01*
X0015349Y0231174D01*
X0015493Y0231109D01*
X0015635Y0231039D01*
X0015776Y0230967D01*
X0015915Y0230890D01*
X0016051Y0230811D01*
X0016186Y0230727D01*
X0016319Y0230641D01*
X0016449Y0230551D01*
X0016577Y0230458D01*
X0016703Y0230362D01*
X0016826Y0230262D01*
X0016947Y0230160D01*
X0017065Y0230055D01*
X0017180Y0229946D01*
X0017293Y0229835D01*
X0017403Y0229721D01*
X0017510Y0229604D01*
X0017614Y0229485D01*
X0017715Y0229363D01*
X0017812Y0229238D01*
X0017907Y0229111D01*
X0017998Y0228982D01*
X0018087Y0228851D01*
X0018171Y0228717D01*
X0018253Y0228581D01*
X0018331Y0228444D01*
X0018405Y0228304D01*
X0018476Y0228162D01*
X0018544Y0228019D01*
X0018608Y0227874D01*
X0018668Y0227728D01*
X0018724Y0227580D01*
X0018777Y0227431D01*
X0018826Y0227280D01*
X0018871Y0227128D01*
X0018912Y0226975D01*
X0018950Y0226822D01*
X0018983Y0226667D01*
X0019013Y0226511D01*
X0019039Y0226355D01*
X0019060Y0226198D01*
X0019078Y0226041D01*
X0019092Y0225883D01*
X0019102Y0225725D01*
X0019108Y0225567D01*
X0019110Y0225409D01*
X0019108Y0225251D01*
X0019102Y0225093D01*
X0019092Y0224935D01*
X0019078Y0224777D01*
X0019060Y0224620D01*
X0019039Y0224463D01*
X0019013Y0224307D01*
X0018983Y0224151D01*
X0018950Y0223996D01*
X0018912Y0223843D01*
X0018871Y0223690D01*
X0018826Y0223538D01*
X0018777Y0223387D01*
X0018724Y0223238D01*
X0018668Y0223090D01*
X0018608Y0222944D01*
X0018544Y0222799D01*
X0018476Y0222656D01*
X0018405Y0222514D01*
X0018331Y0222374D01*
X0018253Y0222237D01*
X0018171Y0222101D01*
X0018087Y0221967D01*
X0017998Y0221836D01*
X0017907Y0221707D01*
X0017812Y0221580D01*
X0017715Y0221455D01*
X0017614Y0221333D01*
X0017510Y0221214D01*
X0017403Y0221097D01*
X0017293Y0220983D01*
X0017180Y0220872D01*
X0017065Y0220763D01*
X0016947Y0220658D01*
X0016826Y0220556D01*
X0016703Y0220456D01*
X0016577Y0220360D01*
X0016449Y0220267D01*
X0016319Y0220177D01*
X0016186Y0220091D01*
X0016051Y0220007D01*
X0015915Y0219928D01*
X0015776Y0219851D01*
X0015635Y0219779D01*
X0015493Y0219709D01*
X0015349Y0219644D01*
X0015203Y0219582D01*
X0015056Y0219524D01*
X0014907Y0219469D01*
X0014757Y0219418D01*
X0014606Y0219371D01*
X0014454Y0219328D01*
X0014301Y0219289D01*
X0014146Y0219253D01*
X0013991Y0219222D01*
X0013835Y0219194D01*
X0013679Y0219170D01*
X0013522Y0219150D01*
X0013364Y0219134D01*
X0013207Y0219122D01*
X0013048Y0219114D01*
X0012890Y0219110D01*
X0012732Y0219110D01*
X0012574Y0219114D01*
X0012415Y0219122D01*
X0012258Y0219134D01*
X0012100Y0219150D01*
X0011943Y0219170D01*
X0011787Y0219194D01*
X0011631Y0219222D01*
X0011476Y0219253D01*
X0011321Y0219289D01*
X0011168Y0219328D01*
X0011016Y0219371D01*
X0010865Y0219418D01*
X0010715Y0219469D01*
X0010566Y0219524D01*
X0010419Y0219582D01*
X0010273Y0219644D01*
X0010129Y0219709D01*
X0009987Y0219779D01*
X0009846Y0219851D01*
X0009707Y0219928D01*
X0009571Y0220007D01*
X0009436Y0220091D01*
X0009303Y0220177D01*
X0009173Y0220267D01*
X0009045Y0220360D01*
X0008919Y0220456D01*
X0008796Y0220556D01*
X0008675Y0220658D01*
X0008557Y0220763D01*
X0008442Y0220872D01*
X0008329Y0220983D01*
X0008219Y0221097D01*
X0008112Y0221214D01*
X0008008Y0221333D01*
X0007907Y0221455D01*
X0007810Y0221580D01*
X0007715Y0221707D01*
X0007624Y0221836D01*
X0007535Y0221967D01*
X0007451Y0222101D01*
X0007369Y0222237D01*
X0007291Y0222374D01*
X0007217Y0222514D01*
X0007146Y0222656D01*
X0007078Y0222799D01*
X0007014Y0222944D01*
X0006954Y0223090D01*
X0006898Y0223238D01*
X0006845Y0223387D01*
X0006796Y0223538D01*
X0006751Y0223690D01*
X0006710Y0223843D01*
X0006672Y0223996D01*
X0006639Y0224151D01*
X0006609Y0224307D01*
X0006583Y0224463D01*
X0006562Y0224620D01*
X0006544Y0224777D01*
X0006530Y0224935D01*
X0006520Y0225093D01*
X0006514Y0225251D01*
X0006512Y0225409D01*
X0203362Y0225409D02*
X0203364Y0225567D01*
X0203370Y0225725D01*
X0203380Y0225883D01*
X0203394Y0226041D01*
X0203412Y0226198D01*
X0203433Y0226355D01*
X0203459Y0226511D01*
X0203489Y0226667D01*
X0203522Y0226822D01*
X0203560Y0226975D01*
X0203601Y0227128D01*
X0203646Y0227280D01*
X0203695Y0227431D01*
X0203748Y0227580D01*
X0203804Y0227728D01*
X0203864Y0227874D01*
X0203928Y0228019D01*
X0203996Y0228162D01*
X0204067Y0228304D01*
X0204141Y0228444D01*
X0204219Y0228581D01*
X0204301Y0228717D01*
X0204385Y0228851D01*
X0204474Y0228982D01*
X0204565Y0229111D01*
X0204660Y0229238D01*
X0204757Y0229363D01*
X0204858Y0229485D01*
X0204962Y0229604D01*
X0205069Y0229721D01*
X0205179Y0229835D01*
X0205292Y0229946D01*
X0205407Y0230055D01*
X0205525Y0230160D01*
X0205646Y0230262D01*
X0205769Y0230362D01*
X0205895Y0230458D01*
X0206023Y0230551D01*
X0206153Y0230641D01*
X0206286Y0230727D01*
X0206421Y0230811D01*
X0206557Y0230890D01*
X0206696Y0230967D01*
X0206837Y0231039D01*
X0206979Y0231109D01*
X0207123Y0231174D01*
X0207269Y0231236D01*
X0207416Y0231294D01*
X0207565Y0231349D01*
X0207715Y0231400D01*
X0207866Y0231447D01*
X0208018Y0231490D01*
X0208171Y0231529D01*
X0208326Y0231565D01*
X0208481Y0231596D01*
X0208637Y0231624D01*
X0208793Y0231648D01*
X0208950Y0231668D01*
X0209108Y0231684D01*
X0209265Y0231696D01*
X0209424Y0231704D01*
X0209582Y0231708D01*
X0209740Y0231708D01*
X0209898Y0231704D01*
X0210057Y0231696D01*
X0210214Y0231684D01*
X0210372Y0231668D01*
X0210529Y0231648D01*
X0210685Y0231624D01*
X0210841Y0231596D01*
X0210996Y0231565D01*
X0211151Y0231529D01*
X0211304Y0231490D01*
X0211456Y0231447D01*
X0211607Y0231400D01*
X0211757Y0231349D01*
X0211906Y0231294D01*
X0212053Y0231236D01*
X0212199Y0231174D01*
X0212343Y0231109D01*
X0212485Y0231039D01*
X0212626Y0230967D01*
X0212765Y0230890D01*
X0212901Y0230811D01*
X0213036Y0230727D01*
X0213169Y0230641D01*
X0213299Y0230551D01*
X0213427Y0230458D01*
X0213553Y0230362D01*
X0213676Y0230262D01*
X0213797Y0230160D01*
X0213915Y0230055D01*
X0214030Y0229946D01*
X0214143Y0229835D01*
X0214253Y0229721D01*
X0214360Y0229604D01*
X0214464Y0229485D01*
X0214565Y0229363D01*
X0214662Y0229238D01*
X0214757Y0229111D01*
X0214848Y0228982D01*
X0214937Y0228851D01*
X0215021Y0228717D01*
X0215103Y0228581D01*
X0215181Y0228444D01*
X0215255Y0228304D01*
X0215326Y0228162D01*
X0215394Y0228019D01*
X0215458Y0227874D01*
X0215518Y0227728D01*
X0215574Y0227580D01*
X0215627Y0227431D01*
X0215676Y0227280D01*
X0215721Y0227128D01*
X0215762Y0226975D01*
X0215800Y0226822D01*
X0215833Y0226667D01*
X0215863Y0226511D01*
X0215889Y0226355D01*
X0215910Y0226198D01*
X0215928Y0226041D01*
X0215942Y0225883D01*
X0215952Y0225725D01*
X0215958Y0225567D01*
X0215960Y0225409D01*
X0215958Y0225251D01*
X0215952Y0225093D01*
X0215942Y0224935D01*
X0215928Y0224777D01*
X0215910Y0224620D01*
X0215889Y0224463D01*
X0215863Y0224307D01*
X0215833Y0224151D01*
X0215800Y0223996D01*
X0215762Y0223843D01*
X0215721Y0223690D01*
X0215676Y0223538D01*
X0215627Y0223387D01*
X0215574Y0223238D01*
X0215518Y0223090D01*
X0215458Y0222944D01*
X0215394Y0222799D01*
X0215326Y0222656D01*
X0215255Y0222514D01*
X0215181Y0222374D01*
X0215103Y0222237D01*
X0215021Y0222101D01*
X0214937Y0221967D01*
X0214848Y0221836D01*
X0214757Y0221707D01*
X0214662Y0221580D01*
X0214565Y0221455D01*
X0214464Y0221333D01*
X0214360Y0221214D01*
X0214253Y0221097D01*
X0214143Y0220983D01*
X0214030Y0220872D01*
X0213915Y0220763D01*
X0213797Y0220658D01*
X0213676Y0220556D01*
X0213553Y0220456D01*
X0213427Y0220360D01*
X0213299Y0220267D01*
X0213169Y0220177D01*
X0213036Y0220091D01*
X0212901Y0220007D01*
X0212765Y0219928D01*
X0212626Y0219851D01*
X0212485Y0219779D01*
X0212343Y0219709D01*
X0212199Y0219644D01*
X0212053Y0219582D01*
X0211906Y0219524D01*
X0211757Y0219469D01*
X0211607Y0219418D01*
X0211456Y0219371D01*
X0211304Y0219328D01*
X0211151Y0219289D01*
X0210996Y0219253D01*
X0210841Y0219222D01*
X0210685Y0219194D01*
X0210529Y0219170D01*
X0210372Y0219150D01*
X0210214Y0219134D01*
X0210057Y0219122D01*
X0209898Y0219114D01*
X0209740Y0219110D01*
X0209582Y0219110D01*
X0209424Y0219114D01*
X0209265Y0219122D01*
X0209108Y0219134D01*
X0208950Y0219150D01*
X0208793Y0219170D01*
X0208637Y0219194D01*
X0208481Y0219222D01*
X0208326Y0219253D01*
X0208171Y0219289D01*
X0208018Y0219328D01*
X0207866Y0219371D01*
X0207715Y0219418D01*
X0207565Y0219469D01*
X0207416Y0219524D01*
X0207269Y0219582D01*
X0207123Y0219644D01*
X0206979Y0219709D01*
X0206837Y0219779D01*
X0206696Y0219851D01*
X0206557Y0219928D01*
X0206421Y0220007D01*
X0206286Y0220091D01*
X0206153Y0220177D01*
X0206023Y0220267D01*
X0205895Y0220360D01*
X0205769Y0220456D01*
X0205646Y0220556D01*
X0205525Y0220658D01*
X0205407Y0220763D01*
X0205292Y0220872D01*
X0205179Y0220983D01*
X0205069Y0221097D01*
X0204962Y0221214D01*
X0204858Y0221333D01*
X0204757Y0221455D01*
X0204660Y0221580D01*
X0204565Y0221707D01*
X0204474Y0221836D01*
X0204385Y0221967D01*
X0204301Y0222101D01*
X0204219Y0222237D01*
X0204141Y0222374D01*
X0204067Y0222514D01*
X0203996Y0222656D01*
X0203928Y0222799D01*
X0203864Y0222944D01*
X0203804Y0223090D01*
X0203748Y0223238D01*
X0203695Y0223387D01*
X0203646Y0223538D01*
X0203601Y0223690D01*
X0203560Y0223843D01*
X0203522Y0223996D01*
X0203489Y0224151D01*
X0203459Y0224307D01*
X0203433Y0224463D01*
X0203412Y0224620D01*
X0203394Y0224777D01*
X0203380Y0224935D01*
X0203370Y0225093D01*
X0203364Y0225251D01*
X0203362Y0225409D01*
D11*
X0209661Y0225409D03*
X0012811Y0225409D03*
X0012811Y0012811D03*
X0209661Y0012811D03*
D12*
X0191000Y0121000D03*
X0181000Y0121000D03*
X0161000Y0136000D03*
X0161000Y0146000D03*
X0161000Y0156000D03*
X0171000Y0161000D03*
X0171000Y0176000D03*
X0161000Y0186000D03*
X0171000Y0196000D03*
X0171000Y0211000D03*
X0146000Y0186000D03*
X0131000Y0186000D03*
X0116000Y0186000D03*
X0101000Y0186000D03*
X0086000Y0186000D03*
X0071000Y0186000D03*
X0056000Y0181000D03*
X0056000Y0196000D03*
X0056000Y0211000D03*
X0026000Y0211000D03*
X0026000Y0196000D03*
X0026000Y0181000D03*
X0071000Y0156000D03*
X0071000Y0146000D03*
X0071000Y0136000D03*
X0086000Y0136000D03*
X0086000Y0146000D03*
X0086000Y0156000D03*
X0101000Y0156000D03*
X0101000Y0146000D03*
X0101000Y0136000D03*
X0116000Y0136000D03*
X0116000Y0146000D03*
X0116000Y0156000D03*
X0131000Y0156000D03*
X0131000Y0146000D03*
X0131000Y0136000D03*
X0146000Y0136000D03*
X0146000Y0146000D03*
X0146000Y0156000D03*
X0201000Y0161000D03*
X0201000Y0176000D03*
X0201000Y0196000D03*
X0201000Y0211000D03*
X0041000Y0116000D03*
X0031000Y0116000D03*
D13*
X0023600Y0101000D02*
X0018400Y0101000D01*
X0018400Y0091000D02*
X0023600Y0091000D01*
X0023600Y0081000D02*
X0018400Y0081000D01*
X0018400Y0071000D02*
X0023600Y0071000D01*
X0023600Y0061000D02*
X0018400Y0061000D01*
X0018400Y0051000D02*
X0023600Y0051000D01*
X0023600Y0041000D02*
X0018400Y0041000D01*
X0048400Y0041000D02*
X0053600Y0041000D01*
X0053600Y0051000D02*
X0048400Y0051000D01*
X0048400Y0061000D02*
X0053600Y0061000D01*
X0053600Y0071000D02*
X0048400Y0071000D01*
X0048400Y0081000D02*
X0053600Y0081000D01*
X0053600Y0091000D02*
X0048400Y0091000D01*
X0048400Y0101000D02*
X0053600Y0101000D01*
X0168400Y0101000D02*
X0173600Y0101000D01*
X0173600Y0091000D02*
X0168400Y0091000D01*
X0168400Y0081000D02*
X0173600Y0081000D01*
X0173600Y0071000D02*
X0168400Y0071000D01*
X0168400Y0061000D02*
X0173600Y0061000D01*
X0173600Y0051000D02*
X0168400Y0051000D01*
X0168400Y0041000D02*
X0173600Y0041000D01*
X0198400Y0041000D02*
X0203600Y0041000D01*
X0203600Y0051000D02*
X0198400Y0051000D01*
X0198400Y0061000D02*
X0203600Y0061000D01*
X0203600Y0071000D02*
X0198400Y0071000D01*
X0198400Y0081000D02*
X0203600Y0081000D01*
X0203600Y0091000D02*
X0198400Y0091000D01*
X0198400Y0101000D02*
X0203600Y0101000D01*
D14*
X0133500Y0096000D03*
X0128500Y0086000D03*
X0118500Y0086000D03*
X0113500Y0096000D03*
X0123500Y0096000D03*
X0108500Y0086000D03*
X0098500Y0086000D03*
X0093500Y0096000D03*
X0103500Y0096000D03*
X0088500Y0086000D03*
X0088500Y0026000D03*
X0078500Y0026000D03*
X0073500Y0016000D03*
X0083500Y0016000D03*
X0093500Y0016000D03*
X0103500Y0016000D03*
X0098500Y0026000D03*
X0108500Y0026000D03*
X0113500Y0016000D03*
X0123500Y0016000D03*
X0118500Y0026000D03*
X0128500Y0026000D03*
X0133500Y0016000D03*
X0143500Y0016000D03*
X0153500Y0016000D03*
X0148500Y0026000D03*
X0138500Y0026000D03*
X0158500Y0026000D03*
X0068500Y0026000D03*
X0063500Y0016000D03*
X0088500Y0211000D03*
X0093500Y0221000D03*
X0103500Y0221000D03*
X0098500Y0211000D03*
X0108500Y0211000D03*
X0113500Y0221000D03*
X0123500Y0221000D03*
X0118500Y0211000D03*
X0128500Y0211000D03*
X0133500Y0221000D03*
D15*
X0082122Y0219563D03*
X0139878Y0087437D03*
X0164878Y0017437D03*
M02*
