%
M48
M72
T01C0.03150
T02C0.03200
T03C0.05906
T04C0.12598
%
T01
X151512Y39307
X141512Y39307
X131512Y39307
X121512Y39307
X111512Y39307
X116512Y49307
X126512Y49307
X136512Y49307
X146512Y49307
X156512Y49307
X261591Y120213
X261591Y40213
X261591Y50213
X261591Y60213
X261591Y70213
X261591Y80213
X261591Y90213
X261591Y100213
X261591Y110213
X12772Y95213
X12772Y85213
X12772Y75213
X12772Y65213
T02
X162063Y20646
X192063Y20646
X207437Y23874
X214937Y18874
X214937Y28874
X205055Y40685
X175055Y40685
T03
X162890Y40744
T04
X16709Y13087
X257654Y13087
X257654Y147339
X16709Y147339
M30
