G75*
%MOIN*%
%OFA0B0*%
%FSLAX25Y25*%
%IPPOS*%
%LPD*%
%AMOC8*
5,1,8,0,0,1.08239X$1,22.5*
%
%ADD10C,0.00000*%
%ADD11OC8,0.05200*%
%ADD12C,0.06600*%
%ADD13R,0.06600X0.06600*%
%ADD14C,0.05600*%
%ADD15C,0.00800*%
%ADD16C,0.01600*%
D10*
X0010410Y0013087D02*
X0010412Y0013245D01*
X0010418Y0013403D01*
X0010428Y0013561D01*
X0010442Y0013719D01*
X0010460Y0013876D01*
X0010481Y0014033D01*
X0010507Y0014189D01*
X0010537Y0014345D01*
X0010570Y0014500D01*
X0010608Y0014653D01*
X0010649Y0014806D01*
X0010694Y0014958D01*
X0010743Y0015109D01*
X0010796Y0015258D01*
X0010852Y0015406D01*
X0010912Y0015552D01*
X0010976Y0015697D01*
X0011044Y0015840D01*
X0011115Y0015982D01*
X0011189Y0016122D01*
X0011267Y0016259D01*
X0011349Y0016395D01*
X0011433Y0016529D01*
X0011522Y0016660D01*
X0011613Y0016789D01*
X0011708Y0016916D01*
X0011805Y0017041D01*
X0011906Y0017163D01*
X0012010Y0017282D01*
X0012117Y0017399D01*
X0012227Y0017513D01*
X0012340Y0017624D01*
X0012455Y0017733D01*
X0012573Y0017838D01*
X0012694Y0017940D01*
X0012817Y0018040D01*
X0012943Y0018136D01*
X0013071Y0018229D01*
X0013201Y0018319D01*
X0013334Y0018405D01*
X0013469Y0018489D01*
X0013605Y0018568D01*
X0013744Y0018645D01*
X0013885Y0018717D01*
X0014027Y0018787D01*
X0014171Y0018852D01*
X0014317Y0018914D01*
X0014464Y0018972D01*
X0014613Y0019027D01*
X0014763Y0019078D01*
X0014914Y0019125D01*
X0015066Y0019168D01*
X0015219Y0019207D01*
X0015374Y0019243D01*
X0015529Y0019274D01*
X0015685Y0019302D01*
X0015841Y0019326D01*
X0015998Y0019346D01*
X0016156Y0019362D01*
X0016313Y0019374D01*
X0016472Y0019382D01*
X0016630Y0019386D01*
X0016788Y0019386D01*
X0016946Y0019382D01*
X0017105Y0019374D01*
X0017262Y0019362D01*
X0017420Y0019346D01*
X0017577Y0019326D01*
X0017733Y0019302D01*
X0017889Y0019274D01*
X0018044Y0019243D01*
X0018199Y0019207D01*
X0018352Y0019168D01*
X0018504Y0019125D01*
X0018655Y0019078D01*
X0018805Y0019027D01*
X0018954Y0018972D01*
X0019101Y0018914D01*
X0019247Y0018852D01*
X0019391Y0018787D01*
X0019533Y0018717D01*
X0019674Y0018645D01*
X0019813Y0018568D01*
X0019949Y0018489D01*
X0020084Y0018405D01*
X0020217Y0018319D01*
X0020347Y0018229D01*
X0020475Y0018136D01*
X0020601Y0018040D01*
X0020724Y0017940D01*
X0020845Y0017838D01*
X0020963Y0017733D01*
X0021078Y0017624D01*
X0021191Y0017513D01*
X0021301Y0017399D01*
X0021408Y0017282D01*
X0021512Y0017163D01*
X0021613Y0017041D01*
X0021710Y0016916D01*
X0021805Y0016789D01*
X0021896Y0016660D01*
X0021985Y0016529D01*
X0022069Y0016395D01*
X0022151Y0016259D01*
X0022229Y0016122D01*
X0022303Y0015982D01*
X0022374Y0015840D01*
X0022442Y0015697D01*
X0022506Y0015552D01*
X0022566Y0015406D01*
X0022622Y0015258D01*
X0022675Y0015109D01*
X0022724Y0014958D01*
X0022769Y0014806D01*
X0022810Y0014653D01*
X0022848Y0014500D01*
X0022881Y0014345D01*
X0022911Y0014189D01*
X0022937Y0014033D01*
X0022958Y0013876D01*
X0022976Y0013719D01*
X0022990Y0013561D01*
X0023000Y0013403D01*
X0023006Y0013245D01*
X0023008Y0013087D01*
X0023006Y0012929D01*
X0023000Y0012771D01*
X0022990Y0012613D01*
X0022976Y0012455D01*
X0022958Y0012298D01*
X0022937Y0012141D01*
X0022911Y0011985D01*
X0022881Y0011829D01*
X0022848Y0011674D01*
X0022810Y0011521D01*
X0022769Y0011368D01*
X0022724Y0011216D01*
X0022675Y0011065D01*
X0022622Y0010916D01*
X0022566Y0010768D01*
X0022506Y0010622D01*
X0022442Y0010477D01*
X0022374Y0010334D01*
X0022303Y0010192D01*
X0022229Y0010052D01*
X0022151Y0009915D01*
X0022069Y0009779D01*
X0021985Y0009645D01*
X0021896Y0009514D01*
X0021805Y0009385D01*
X0021710Y0009258D01*
X0021613Y0009133D01*
X0021512Y0009011D01*
X0021408Y0008892D01*
X0021301Y0008775D01*
X0021191Y0008661D01*
X0021078Y0008550D01*
X0020963Y0008441D01*
X0020845Y0008336D01*
X0020724Y0008234D01*
X0020601Y0008134D01*
X0020475Y0008038D01*
X0020347Y0007945D01*
X0020217Y0007855D01*
X0020084Y0007769D01*
X0019949Y0007685D01*
X0019813Y0007606D01*
X0019674Y0007529D01*
X0019533Y0007457D01*
X0019391Y0007387D01*
X0019247Y0007322D01*
X0019101Y0007260D01*
X0018954Y0007202D01*
X0018805Y0007147D01*
X0018655Y0007096D01*
X0018504Y0007049D01*
X0018352Y0007006D01*
X0018199Y0006967D01*
X0018044Y0006931D01*
X0017889Y0006900D01*
X0017733Y0006872D01*
X0017577Y0006848D01*
X0017420Y0006828D01*
X0017262Y0006812D01*
X0017105Y0006800D01*
X0016946Y0006792D01*
X0016788Y0006788D01*
X0016630Y0006788D01*
X0016472Y0006792D01*
X0016313Y0006800D01*
X0016156Y0006812D01*
X0015998Y0006828D01*
X0015841Y0006848D01*
X0015685Y0006872D01*
X0015529Y0006900D01*
X0015374Y0006931D01*
X0015219Y0006967D01*
X0015066Y0007006D01*
X0014914Y0007049D01*
X0014763Y0007096D01*
X0014613Y0007147D01*
X0014464Y0007202D01*
X0014317Y0007260D01*
X0014171Y0007322D01*
X0014027Y0007387D01*
X0013885Y0007457D01*
X0013744Y0007529D01*
X0013605Y0007606D01*
X0013469Y0007685D01*
X0013334Y0007769D01*
X0013201Y0007855D01*
X0013071Y0007945D01*
X0012943Y0008038D01*
X0012817Y0008134D01*
X0012694Y0008234D01*
X0012573Y0008336D01*
X0012455Y0008441D01*
X0012340Y0008550D01*
X0012227Y0008661D01*
X0012117Y0008775D01*
X0012010Y0008892D01*
X0011906Y0009011D01*
X0011805Y0009133D01*
X0011708Y0009258D01*
X0011613Y0009385D01*
X0011522Y0009514D01*
X0011433Y0009645D01*
X0011349Y0009779D01*
X0011267Y0009915D01*
X0011189Y0010052D01*
X0011115Y0010192D01*
X0011044Y0010334D01*
X0010976Y0010477D01*
X0010912Y0010622D01*
X0010852Y0010768D01*
X0010796Y0010916D01*
X0010743Y0011065D01*
X0010694Y0011216D01*
X0010649Y0011368D01*
X0010608Y0011521D01*
X0010570Y0011674D01*
X0010537Y0011829D01*
X0010507Y0011985D01*
X0010481Y0012141D01*
X0010460Y0012298D01*
X0010442Y0012455D01*
X0010428Y0012613D01*
X0010418Y0012771D01*
X0010412Y0012929D01*
X0010410Y0013087D01*
X0011000Y0032496D02*
X0081551Y0032496D01*
X0081793Y0032493D01*
X0082034Y0032484D01*
X0082275Y0032470D01*
X0082516Y0032449D01*
X0082756Y0032423D01*
X0082996Y0032391D01*
X0083235Y0032353D01*
X0083472Y0032310D01*
X0083709Y0032260D01*
X0083944Y0032205D01*
X0084178Y0032145D01*
X0084410Y0032078D01*
X0084641Y0032007D01*
X0084870Y0031929D01*
X0085097Y0031846D01*
X0085322Y0031758D01*
X0085545Y0031664D01*
X0085765Y0031565D01*
X0085983Y0031460D01*
X0086198Y0031351D01*
X0086411Y0031236D01*
X0086621Y0031116D01*
X0086827Y0030991D01*
X0087031Y0030861D01*
X0087232Y0030726D01*
X0087429Y0030586D01*
X0087623Y0030442D01*
X0087813Y0030293D01*
X0087999Y0030139D01*
X0088182Y0029981D01*
X0088361Y0029819D01*
X0088536Y0029652D01*
X0088707Y0029481D01*
X0088874Y0029306D01*
X0089036Y0029127D01*
X0089194Y0028944D01*
X0089348Y0028758D01*
X0089497Y0028568D01*
X0089641Y0028374D01*
X0089781Y0028177D01*
X0089916Y0027976D01*
X0090046Y0027772D01*
X0090171Y0027566D01*
X0090291Y0027356D01*
X0090406Y0027143D01*
X0090515Y0026928D01*
X0090620Y0026710D01*
X0090719Y0026490D01*
X0090813Y0026267D01*
X0090901Y0026042D01*
X0090984Y0025815D01*
X0091062Y0025586D01*
X0091133Y0025355D01*
X0091200Y0025123D01*
X0091260Y0024889D01*
X0091315Y0024654D01*
X0091365Y0024417D01*
X0091408Y0024180D01*
X0091446Y0023941D01*
X0091478Y0023701D01*
X0091504Y0023461D01*
X0091525Y0023220D01*
X0091539Y0022979D01*
X0091548Y0022738D01*
X0091551Y0022496D01*
X0091551Y0011000D01*
X0091554Y0010758D01*
X0091563Y0010517D01*
X0091577Y0010276D01*
X0091598Y0010035D01*
X0091624Y0009795D01*
X0091656Y0009555D01*
X0091694Y0009316D01*
X0091737Y0009079D01*
X0091787Y0008842D01*
X0091842Y0008607D01*
X0091902Y0008373D01*
X0091969Y0008141D01*
X0092040Y0007910D01*
X0092118Y0007681D01*
X0092201Y0007454D01*
X0092289Y0007229D01*
X0092383Y0007006D01*
X0092482Y0006786D01*
X0092587Y0006568D01*
X0092696Y0006353D01*
X0092811Y0006140D01*
X0092931Y0005930D01*
X0093056Y0005724D01*
X0093186Y0005520D01*
X0093321Y0005319D01*
X0093461Y0005122D01*
X0093605Y0004928D01*
X0093754Y0004738D01*
X0093908Y0004552D01*
X0094066Y0004369D01*
X0094228Y0004190D01*
X0094395Y0004015D01*
X0094566Y0003844D01*
X0094741Y0003677D01*
X0094920Y0003515D01*
X0095103Y0003357D01*
X0095289Y0003203D01*
X0095479Y0003054D01*
X0095673Y0002910D01*
X0095870Y0002770D01*
X0096071Y0002635D01*
X0096275Y0002505D01*
X0096481Y0002380D01*
X0096691Y0002260D01*
X0096904Y0002145D01*
X0097119Y0002036D01*
X0097337Y0001931D01*
X0097557Y0001832D01*
X0097780Y0001738D01*
X0098005Y0001650D01*
X0098232Y0001567D01*
X0098461Y0001489D01*
X0098692Y0001418D01*
X0098924Y0001351D01*
X0099158Y0001291D01*
X0099393Y0001236D01*
X0099630Y0001186D01*
X0099867Y0001143D01*
X0100106Y0001105D01*
X0100346Y0001073D01*
X0100586Y0001047D01*
X0100827Y0001026D01*
X0101068Y0001012D01*
X0101309Y0001003D01*
X0101551Y0001000D01*
X0235094Y0001000D01*
X0235336Y0001003D01*
X0235577Y0001012D01*
X0235818Y0001026D01*
X0236059Y0001047D01*
X0236299Y0001073D01*
X0236539Y0001105D01*
X0236778Y0001143D01*
X0237015Y0001186D01*
X0237252Y0001236D01*
X0237487Y0001291D01*
X0237721Y0001351D01*
X0237953Y0001418D01*
X0238184Y0001489D01*
X0238413Y0001567D01*
X0238640Y0001650D01*
X0238865Y0001738D01*
X0239088Y0001832D01*
X0239308Y0001931D01*
X0239526Y0002036D01*
X0239741Y0002145D01*
X0239954Y0002260D01*
X0240164Y0002380D01*
X0240370Y0002505D01*
X0240574Y0002635D01*
X0240775Y0002770D01*
X0240972Y0002910D01*
X0241166Y0003054D01*
X0241356Y0003203D01*
X0241542Y0003357D01*
X0241725Y0003515D01*
X0241904Y0003677D01*
X0242079Y0003844D01*
X0242250Y0004015D01*
X0242417Y0004190D01*
X0242579Y0004369D01*
X0242737Y0004552D01*
X0242891Y0004738D01*
X0243040Y0004928D01*
X0243184Y0005122D01*
X0243324Y0005319D01*
X0243459Y0005520D01*
X0243589Y0005724D01*
X0243714Y0005930D01*
X0243834Y0006140D01*
X0243949Y0006353D01*
X0244058Y0006568D01*
X0244163Y0006786D01*
X0244262Y0007006D01*
X0244356Y0007229D01*
X0244444Y0007454D01*
X0244527Y0007681D01*
X0244605Y0007910D01*
X0244676Y0008141D01*
X0244743Y0008373D01*
X0244803Y0008607D01*
X0244858Y0008842D01*
X0244908Y0009079D01*
X0244951Y0009316D01*
X0244989Y0009555D01*
X0245021Y0009795D01*
X0245047Y0010035D01*
X0245068Y0010276D01*
X0245082Y0010517D01*
X0245091Y0010758D01*
X0245094Y0011000D01*
X0245094Y0018559D01*
X0245097Y0018801D01*
X0245106Y0019042D01*
X0245120Y0019283D01*
X0245141Y0019524D01*
X0245167Y0019764D01*
X0245199Y0020004D01*
X0245237Y0020243D01*
X0245280Y0020480D01*
X0245330Y0020717D01*
X0245385Y0020952D01*
X0245445Y0021186D01*
X0245512Y0021418D01*
X0245583Y0021649D01*
X0245661Y0021878D01*
X0245744Y0022105D01*
X0245832Y0022330D01*
X0245926Y0022553D01*
X0246025Y0022773D01*
X0246130Y0022991D01*
X0246239Y0023206D01*
X0246354Y0023419D01*
X0246474Y0023629D01*
X0246599Y0023835D01*
X0246729Y0024039D01*
X0246864Y0024240D01*
X0247004Y0024437D01*
X0247148Y0024631D01*
X0247297Y0024821D01*
X0247451Y0025007D01*
X0247609Y0025190D01*
X0247771Y0025369D01*
X0247938Y0025544D01*
X0248109Y0025715D01*
X0248284Y0025882D01*
X0248463Y0026044D01*
X0248646Y0026202D01*
X0248832Y0026356D01*
X0249022Y0026505D01*
X0249216Y0026649D01*
X0249413Y0026789D01*
X0249614Y0026924D01*
X0249818Y0027054D01*
X0250024Y0027179D01*
X0250234Y0027299D01*
X0250447Y0027414D01*
X0250662Y0027523D01*
X0250880Y0027628D01*
X0251100Y0027727D01*
X0251323Y0027821D01*
X0251548Y0027909D01*
X0251775Y0027992D01*
X0252004Y0028070D01*
X0252235Y0028141D01*
X0252467Y0028208D01*
X0252701Y0028268D01*
X0252936Y0028323D01*
X0253173Y0028373D01*
X0253410Y0028416D01*
X0253649Y0028454D01*
X0253889Y0028486D01*
X0254129Y0028512D01*
X0254370Y0028533D01*
X0254611Y0028547D01*
X0254852Y0028556D01*
X0255094Y0028559D01*
X0258717Y0028559D01*
X0258959Y0028562D01*
X0259200Y0028571D01*
X0259441Y0028585D01*
X0259682Y0028606D01*
X0259922Y0028632D01*
X0260162Y0028664D01*
X0260401Y0028702D01*
X0260638Y0028745D01*
X0260875Y0028795D01*
X0261110Y0028850D01*
X0261344Y0028910D01*
X0261576Y0028977D01*
X0261807Y0029048D01*
X0262036Y0029126D01*
X0262263Y0029209D01*
X0262488Y0029297D01*
X0262711Y0029391D01*
X0262931Y0029490D01*
X0263149Y0029595D01*
X0263364Y0029704D01*
X0263577Y0029819D01*
X0263787Y0029939D01*
X0263993Y0030064D01*
X0264197Y0030194D01*
X0264398Y0030329D01*
X0264595Y0030469D01*
X0264789Y0030613D01*
X0264979Y0030762D01*
X0265165Y0030916D01*
X0265348Y0031074D01*
X0265527Y0031236D01*
X0265702Y0031403D01*
X0265873Y0031574D01*
X0266040Y0031749D01*
X0266202Y0031928D01*
X0266360Y0032111D01*
X0266514Y0032297D01*
X0266663Y0032487D01*
X0266807Y0032681D01*
X0266947Y0032878D01*
X0267082Y0033079D01*
X0267212Y0033283D01*
X0267337Y0033489D01*
X0267457Y0033699D01*
X0267572Y0033912D01*
X0267681Y0034127D01*
X0267786Y0034345D01*
X0267885Y0034565D01*
X0267979Y0034788D01*
X0268067Y0035013D01*
X0268150Y0035240D01*
X0268228Y0035469D01*
X0268299Y0035700D01*
X0268366Y0035932D01*
X0268426Y0036166D01*
X0268481Y0036401D01*
X0268531Y0036638D01*
X0268574Y0036875D01*
X0268612Y0037114D01*
X0268644Y0037354D01*
X0268670Y0037594D01*
X0268691Y0037835D01*
X0268705Y0038076D01*
X0268714Y0038317D01*
X0268717Y0038559D01*
X0268717Y0124858D01*
X0268714Y0125100D01*
X0268705Y0125341D01*
X0268691Y0125582D01*
X0268670Y0125823D01*
X0268644Y0126063D01*
X0268612Y0126303D01*
X0268574Y0126542D01*
X0268531Y0126779D01*
X0268481Y0127016D01*
X0268426Y0127251D01*
X0268366Y0127485D01*
X0268299Y0127717D01*
X0268228Y0127948D01*
X0268150Y0128177D01*
X0268067Y0128404D01*
X0267979Y0128629D01*
X0267885Y0128852D01*
X0267786Y0129072D01*
X0267681Y0129290D01*
X0267572Y0129505D01*
X0267457Y0129718D01*
X0267337Y0129928D01*
X0267212Y0130134D01*
X0267082Y0130338D01*
X0266947Y0130539D01*
X0266807Y0130736D01*
X0266663Y0130930D01*
X0266514Y0131120D01*
X0266360Y0131306D01*
X0266202Y0131489D01*
X0266040Y0131668D01*
X0265873Y0131843D01*
X0265702Y0132014D01*
X0265527Y0132181D01*
X0265348Y0132343D01*
X0265165Y0132501D01*
X0264979Y0132655D01*
X0264789Y0132804D01*
X0264595Y0132948D01*
X0264398Y0133088D01*
X0264197Y0133223D01*
X0263993Y0133353D01*
X0263787Y0133478D01*
X0263577Y0133598D01*
X0263364Y0133713D01*
X0263149Y0133822D01*
X0262931Y0133927D01*
X0262711Y0134026D01*
X0262488Y0134120D01*
X0262263Y0134208D01*
X0262036Y0134291D01*
X0261807Y0134369D01*
X0261576Y0134440D01*
X0261344Y0134507D01*
X0261110Y0134567D01*
X0260875Y0134622D01*
X0260638Y0134672D01*
X0260401Y0134715D01*
X0260162Y0134753D01*
X0259922Y0134785D01*
X0259682Y0134811D01*
X0259441Y0134832D01*
X0259200Y0134846D01*
X0258959Y0134855D01*
X0258717Y0134858D01*
X0245300Y0134858D01*
X0238229Y0131929D02*
X0173220Y0066921D01*
X0166149Y0063992D02*
X0034622Y0063992D01*
X0034380Y0063995D01*
X0034139Y0064004D01*
X0033898Y0064018D01*
X0033657Y0064039D01*
X0033417Y0064065D01*
X0033177Y0064097D01*
X0032938Y0064135D01*
X0032701Y0064178D01*
X0032464Y0064228D01*
X0032229Y0064283D01*
X0031995Y0064343D01*
X0031763Y0064410D01*
X0031532Y0064481D01*
X0031303Y0064559D01*
X0031076Y0064642D01*
X0030851Y0064730D01*
X0030628Y0064824D01*
X0030408Y0064923D01*
X0030190Y0065028D01*
X0029975Y0065137D01*
X0029762Y0065252D01*
X0029552Y0065372D01*
X0029346Y0065497D01*
X0029142Y0065627D01*
X0028941Y0065762D01*
X0028744Y0065902D01*
X0028550Y0066046D01*
X0028360Y0066195D01*
X0028174Y0066349D01*
X0027991Y0066507D01*
X0027812Y0066669D01*
X0027637Y0066836D01*
X0027466Y0067007D01*
X0027299Y0067182D01*
X0027137Y0067361D01*
X0026979Y0067544D01*
X0026825Y0067730D01*
X0026676Y0067920D01*
X0026532Y0068114D01*
X0026392Y0068311D01*
X0026257Y0068512D01*
X0026127Y0068716D01*
X0026002Y0068922D01*
X0025882Y0069132D01*
X0025767Y0069345D01*
X0025658Y0069560D01*
X0025553Y0069778D01*
X0025454Y0069998D01*
X0025360Y0070221D01*
X0025272Y0070446D01*
X0025189Y0070673D01*
X0025111Y0070902D01*
X0025040Y0071133D01*
X0024973Y0071365D01*
X0024913Y0071599D01*
X0024858Y0071834D01*
X0024808Y0072071D01*
X0024765Y0072308D01*
X0024727Y0072547D01*
X0024695Y0072787D01*
X0024669Y0073027D01*
X0024648Y0073268D01*
X0024634Y0073509D01*
X0024625Y0073750D01*
X0024622Y0073992D01*
X0024622Y0097299D01*
X0024619Y0097541D01*
X0024610Y0097782D01*
X0024596Y0098023D01*
X0024575Y0098264D01*
X0024549Y0098504D01*
X0024517Y0098744D01*
X0024479Y0098983D01*
X0024436Y0099220D01*
X0024386Y0099457D01*
X0024331Y0099692D01*
X0024271Y0099926D01*
X0024204Y0100158D01*
X0024133Y0100389D01*
X0024055Y0100618D01*
X0023972Y0100845D01*
X0023884Y0101070D01*
X0023790Y0101293D01*
X0023691Y0101513D01*
X0023586Y0101731D01*
X0023477Y0101946D01*
X0023362Y0102159D01*
X0023242Y0102369D01*
X0023117Y0102575D01*
X0022987Y0102779D01*
X0022852Y0102980D01*
X0022712Y0103177D01*
X0022568Y0103371D01*
X0022419Y0103561D01*
X0022265Y0103747D01*
X0022107Y0103930D01*
X0021945Y0104109D01*
X0021778Y0104284D01*
X0021607Y0104455D01*
X0021432Y0104622D01*
X0021253Y0104784D01*
X0021070Y0104942D01*
X0020884Y0105096D01*
X0020694Y0105245D01*
X0020500Y0105389D01*
X0020303Y0105529D01*
X0020102Y0105664D01*
X0019898Y0105794D01*
X0019692Y0105919D01*
X0019482Y0106039D01*
X0019269Y0106154D01*
X0019054Y0106263D01*
X0018836Y0106368D01*
X0018616Y0106467D01*
X0018393Y0106561D01*
X0018168Y0106649D01*
X0017941Y0106732D01*
X0017712Y0106810D01*
X0017481Y0106881D01*
X0017249Y0106948D01*
X0017015Y0107008D01*
X0016780Y0107063D01*
X0016543Y0107113D01*
X0016306Y0107156D01*
X0016067Y0107194D01*
X0015827Y0107226D01*
X0015587Y0107252D01*
X0015346Y0107273D01*
X0015105Y0107287D01*
X0014864Y0107296D01*
X0014622Y0107299D01*
X0011000Y0107299D01*
X0010758Y0107296D01*
X0010517Y0107287D01*
X0010276Y0107273D01*
X0010035Y0107252D01*
X0009795Y0107226D01*
X0009555Y0107194D01*
X0009316Y0107156D01*
X0009079Y0107113D01*
X0008842Y0107063D01*
X0008607Y0107008D01*
X0008373Y0106948D01*
X0008141Y0106881D01*
X0007910Y0106810D01*
X0007681Y0106732D01*
X0007454Y0106649D01*
X0007229Y0106561D01*
X0007006Y0106467D01*
X0006786Y0106368D01*
X0006568Y0106263D01*
X0006353Y0106154D01*
X0006140Y0106039D01*
X0005930Y0105919D01*
X0005724Y0105794D01*
X0005520Y0105664D01*
X0005319Y0105529D01*
X0005122Y0105389D01*
X0004928Y0105245D01*
X0004738Y0105096D01*
X0004552Y0104942D01*
X0004369Y0104784D01*
X0004190Y0104622D01*
X0004015Y0104455D01*
X0003844Y0104284D01*
X0003677Y0104109D01*
X0003515Y0103930D01*
X0003357Y0103747D01*
X0003203Y0103561D01*
X0003054Y0103371D01*
X0002910Y0103177D01*
X0002770Y0102980D01*
X0002635Y0102779D01*
X0002505Y0102575D01*
X0002380Y0102369D01*
X0002260Y0102159D01*
X0002145Y0101946D01*
X0002036Y0101731D01*
X0001931Y0101513D01*
X0001832Y0101293D01*
X0001738Y0101070D01*
X0001650Y0100845D01*
X0001567Y0100618D01*
X0001489Y0100389D01*
X0001418Y0100158D01*
X0001351Y0099926D01*
X0001291Y0099692D01*
X0001236Y0099457D01*
X0001186Y0099220D01*
X0001143Y0098983D01*
X0001105Y0098744D01*
X0001073Y0098504D01*
X0001047Y0098264D01*
X0001026Y0098023D01*
X0001012Y0097782D01*
X0001003Y0097541D01*
X0001000Y0097299D01*
X0001000Y0042496D01*
X0001003Y0042254D01*
X0001012Y0042013D01*
X0001026Y0041772D01*
X0001047Y0041531D01*
X0001073Y0041291D01*
X0001105Y0041051D01*
X0001143Y0040812D01*
X0001186Y0040575D01*
X0001236Y0040338D01*
X0001291Y0040103D01*
X0001351Y0039869D01*
X0001418Y0039637D01*
X0001489Y0039406D01*
X0001567Y0039177D01*
X0001650Y0038950D01*
X0001738Y0038725D01*
X0001832Y0038502D01*
X0001931Y0038282D01*
X0002036Y0038064D01*
X0002145Y0037849D01*
X0002260Y0037636D01*
X0002380Y0037426D01*
X0002505Y0037220D01*
X0002635Y0037016D01*
X0002770Y0036815D01*
X0002910Y0036618D01*
X0003054Y0036424D01*
X0003203Y0036234D01*
X0003357Y0036048D01*
X0003515Y0035865D01*
X0003677Y0035686D01*
X0003844Y0035511D01*
X0004015Y0035340D01*
X0004190Y0035173D01*
X0004369Y0035011D01*
X0004552Y0034853D01*
X0004738Y0034699D01*
X0004928Y0034550D01*
X0005122Y0034406D01*
X0005319Y0034266D01*
X0005520Y0034131D01*
X0005724Y0034001D01*
X0005930Y0033876D01*
X0006140Y0033756D01*
X0006353Y0033641D01*
X0006568Y0033532D01*
X0006786Y0033427D01*
X0007006Y0033328D01*
X0007229Y0033234D01*
X0007454Y0033146D01*
X0007681Y0033063D01*
X0007910Y0032985D01*
X0008141Y0032914D01*
X0008373Y0032847D01*
X0008607Y0032787D01*
X0008842Y0032732D01*
X0009079Y0032682D01*
X0009316Y0032639D01*
X0009555Y0032601D01*
X0009795Y0032569D01*
X0010035Y0032543D01*
X0010276Y0032522D01*
X0010517Y0032508D01*
X0010758Y0032499D01*
X0011000Y0032496D01*
X0159937Y0040744D02*
X0159939Y0040852D01*
X0159945Y0040961D01*
X0159955Y0041069D01*
X0159969Y0041176D01*
X0159987Y0041283D01*
X0160008Y0041390D01*
X0160034Y0041495D01*
X0160064Y0041600D01*
X0160097Y0041703D01*
X0160134Y0041805D01*
X0160175Y0041905D01*
X0160219Y0042004D01*
X0160268Y0042102D01*
X0160319Y0042197D01*
X0160374Y0042290D01*
X0160433Y0042382D01*
X0160495Y0042471D01*
X0160560Y0042558D01*
X0160628Y0042642D01*
X0160699Y0042724D01*
X0160773Y0042803D01*
X0160850Y0042879D01*
X0160930Y0042953D01*
X0161013Y0043023D01*
X0161098Y0043091D01*
X0161185Y0043155D01*
X0161275Y0043216D01*
X0161367Y0043274D01*
X0161461Y0043328D01*
X0161557Y0043379D01*
X0161654Y0043426D01*
X0161754Y0043470D01*
X0161855Y0043510D01*
X0161957Y0043546D01*
X0162060Y0043578D01*
X0162165Y0043607D01*
X0162271Y0043631D01*
X0162377Y0043652D01*
X0162484Y0043669D01*
X0162592Y0043682D01*
X0162700Y0043691D01*
X0162809Y0043696D01*
X0162917Y0043697D01*
X0163026Y0043694D01*
X0163134Y0043687D01*
X0163242Y0043676D01*
X0163349Y0043661D01*
X0163456Y0043642D01*
X0163562Y0043619D01*
X0163667Y0043593D01*
X0163772Y0043562D01*
X0163874Y0043528D01*
X0163976Y0043490D01*
X0164076Y0043448D01*
X0164175Y0043403D01*
X0164272Y0043354D01*
X0164366Y0043301D01*
X0164459Y0043245D01*
X0164550Y0043186D01*
X0164639Y0043123D01*
X0164725Y0043058D01*
X0164809Y0042989D01*
X0164890Y0042917D01*
X0164968Y0042842D01*
X0165044Y0042764D01*
X0165117Y0042683D01*
X0165187Y0042600D01*
X0165253Y0042515D01*
X0165317Y0042427D01*
X0165377Y0042336D01*
X0165434Y0042244D01*
X0165487Y0042149D01*
X0165537Y0042053D01*
X0165583Y0041955D01*
X0165626Y0041855D01*
X0165665Y0041754D01*
X0165700Y0041651D01*
X0165732Y0041548D01*
X0165759Y0041443D01*
X0165783Y0041337D01*
X0165803Y0041230D01*
X0165819Y0041123D01*
X0165831Y0041015D01*
X0165839Y0040907D01*
X0165843Y0040798D01*
X0165843Y0040690D01*
X0165839Y0040581D01*
X0165831Y0040473D01*
X0165819Y0040365D01*
X0165803Y0040258D01*
X0165783Y0040151D01*
X0165759Y0040045D01*
X0165732Y0039940D01*
X0165700Y0039837D01*
X0165665Y0039734D01*
X0165626Y0039633D01*
X0165583Y0039533D01*
X0165537Y0039435D01*
X0165487Y0039339D01*
X0165434Y0039244D01*
X0165377Y0039152D01*
X0165317Y0039061D01*
X0165253Y0038973D01*
X0165187Y0038888D01*
X0165117Y0038805D01*
X0165044Y0038724D01*
X0164968Y0038646D01*
X0164890Y0038571D01*
X0164809Y0038499D01*
X0164725Y0038430D01*
X0164639Y0038365D01*
X0164550Y0038302D01*
X0164459Y0038243D01*
X0164367Y0038187D01*
X0164272Y0038134D01*
X0164175Y0038085D01*
X0164076Y0038040D01*
X0163976Y0037998D01*
X0163874Y0037960D01*
X0163772Y0037926D01*
X0163667Y0037895D01*
X0163562Y0037869D01*
X0163456Y0037846D01*
X0163349Y0037827D01*
X0163242Y0037812D01*
X0163134Y0037801D01*
X0163026Y0037794D01*
X0162917Y0037791D01*
X0162809Y0037792D01*
X0162700Y0037797D01*
X0162592Y0037806D01*
X0162484Y0037819D01*
X0162377Y0037836D01*
X0162271Y0037857D01*
X0162165Y0037881D01*
X0162060Y0037910D01*
X0161957Y0037942D01*
X0161855Y0037978D01*
X0161754Y0038018D01*
X0161654Y0038062D01*
X0161557Y0038109D01*
X0161461Y0038160D01*
X0161367Y0038214D01*
X0161275Y0038272D01*
X0161185Y0038333D01*
X0161098Y0038397D01*
X0161013Y0038465D01*
X0160930Y0038535D01*
X0160850Y0038609D01*
X0160773Y0038685D01*
X0160699Y0038764D01*
X0160628Y0038846D01*
X0160560Y0038930D01*
X0160495Y0039017D01*
X0160433Y0039106D01*
X0160374Y0039198D01*
X0160319Y0039291D01*
X0160268Y0039386D01*
X0160219Y0039484D01*
X0160175Y0039583D01*
X0160134Y0039683D01*
X0160097Y0039785D01*
X0160064Y0039888D01*
X0160034Y0039993D01*
X0160008Y0040098D01*
X0159987Y0040205D01*
X0159969Y0040312D01*
X0159955Y0040419D01*
X0159945Y0040527D01*
X0159939Y0040636D01*
X0159937Y0040744D01*
X0166149Y0063992D02*
X0166387Y0063995D01*
X0166625Y0064003D01*
X0166862Y0064017D01*
X0167100Y0064037D01*
X0167336Y0064063D01*
X0167572Y0064094D01*
X0167807Y0064130D01*
X0168042Y0064173D01*
X0168275Y0064221D01*
X0168507Y0064274D01*
X0168737Y0064333D01*
X0168966Y0064397D01*
X0169194Y0064467D01*
X0169420Y0064542D01*
X0169644Y0064623D01*
X0169866Y0064708D01*
X0170086Y0064799D01*
X0170303Y0064896D01*
X0170518Y0064997D01*
X0170731Y0065104D01*
X0170941Y0065215D01*
X0171149Y0065332D01*
X0171354Y0065453D01*
X0171555Y0065579D01*
X0171754Y0065711D01*
X0171950Y0065846D01*
X0172142Y0065987D01*
X0172331Y0066131D01*
X0172516Y0066281D01*
X0172698Y0066435D01*
X0172876Y0066592D01*
X0173050Y0066755D01*
X0173220Y0066921D01*
X0251355Y0013087D02*
X0251357Y0013245D01*
X0251363Y0013403D01*
X0251373Y0013561D01*
X0251387Y0013719D01*
X0251405Y0013876D01*
X0251426Y0014033D01*
X0251452Y0014189D01*
X0251482Y0014345D01*
X0251515Y0014500D01*
X0251553Y0014653D01*
X0251594Y0014806D01*
X0251639Y0014958D01*
X0251688Y0015109D01*
X0251741Y0015258D01*
X0251797Y0015406D01*
X0251857Y0015552D01*
X0251921Y0015697D01*
X0251989Y0015840D01*
X0252060Y0015982D01*
X0252134Y0016122D01*
X0252212Y0016259D01*
X0252294Y0016395D01*
X0252378Y0016529D01*
X0252467Y0016660D01*
X0252558Y0016789D01*
X0252653Y0016916D01*
X0252750Y0017041D01*
X0252851Y0017163D01*
X0252955Y0017282D01*
X0253062Y0017399D01*
X0253172Y0017513D01*
X0253285Y0017624D01*
X0253400Y0017733D01*
X0253518Y0017838D01*
X0253639Y0017940D01*
X0253762Y0018040D01*
X0253888Y0018136D01*
X0254016Y0018229D01*
X0254146Y0018319D01*
X0254279Y0018405D01*
X0254414Y0018489D01*
X0254550Y0018568D01*
X0254689Y0018645D01*
X0254830Y0018717D01*
X0254972Y0018787D01*
X0255116Y0018852D01*
X0255262Y0018914D01*
X0255409Y0018972D01*
X0255558Y0019027D01*
X0255708Y0019078D01*
X0255859Y0019125D01*
X0256011Y0019168D01*
X0256164Y0019207D01*
X0256319Y0019243D01*
X0256474Y0019274D01*
X0256630Y0019302D01*
X0256786Y0019326D01*
X0256943Y0019346D01*
X0257101Y0019362D01*
X0257258Y0019374D01*
X0257417Y0019382D01*
X0257575Y0019386D01*
X0257733Y0019386D01*
X0257891Y0019382D01*
X0258050Y0019374D01*
X0258207Y0019362D01*
X0258365Y0019346D01*
X0258522Y0019326D01*
X0258678Y0019302D01*
X0258834Y0019274D01*
X0258989Y0019243D01*
X0259144Y0019207D01*
X0259297Y0019168D01*
X0259449Y0019125D01*
X0259600Y0019078D01*
X0259750Y0019027D01*
X0259899Y0018972D01*
X0260046Y0018914D01*
X0260192Y0018852D01*
X0260336Y0018787D01*
X0260478Y0018717D01*
X0260619Y0018645D01*
X0260758Y0018568D01*
X0260894Y0018489D01*
X0261029Y0018405D01*
X0261162Y0018319D01*
X0261292Y0018229D01*
X0261420Y0018136D01*
X0261546Y0018040D01*
X0261669Y0017940D01*
X0261790Y0017838D01*
X0261908Y0017733D01*
X0262023Y0017624D01*
X0262136Y0017513D01*
X0262246Y0017399D01*
X0262353Y0017282D01*
X0262457Y0017163D01*
X0262558Y0017041D01*
X0262655Y0016916D01*
X0262750Y0016789D01*
X0262841Y0016660D01*
X0262930Y0016529D01*
X0263014Y0016395D01*
X0263096Y0016259D01*
X0263174Y0016122D01*
X0263248Y0015982D01*
X0263319Y0015840D01*
X0263387Y0015697D01*
X0263451Y0015552D01*
X0263511Y0015406D01*
X0263567Y0015258D01*
X0263620Y0015109D01*
X0263669Y0014958D01*
X0263714Y0014806D01*
X0263755Y0014653D01*
X0263793Y0014500D01*
X0263826Y0014345D01*
X0263856Y0014189D01*
X0263882Y0014033D01*
X0263903Y0013876D01*
X0263921Y0013719D01*
X0263935Y0013561D01*
X0263945Y0013403D01*
X0263951Y0013245D01*
X0263953Y0013087D01*
X0263951Y0012929D01*
X0263945Y0012771D01*
X0263935Y0012613D01*
X0263921Y0012455D01*
X0263903Y0012298D01*
X0263882Y0012141D01*
X0263856Y0011985D01*
X0263826Y0011829D01*
X0263793Y0011674D01*
X0263755Y0011521D01*
X0263714Y0011368D01*
X0263669Y0011216D01*
X0263620Y0011065D01*
X0263567Y0010916D01*
X0263511Y0010768D01*
X0263451Y0010622D01*
X0263387Y0010477D01*
X0263319Y0010334D01*
X0263248Y0010192D01*
X0263174Y0010052D01*
X0263096Y0009915D01*
X0263014Y0009779D01*
X0262930Y0009645D01*
X0262841Y0009514D01*
X0262750Y0009385D01*
X0262655Y0009258D01*
X0262558Y0009133D01*
X0262457Y0009011D01*
X0262353Y0008892D01*
X0262246Y0008775D01*
X0262136Y0008661D01*
X0262023Y0008550D01*
X0261908Y0008441D01*
X0261790Y0008336D01*
X0261669Y0008234D01*
X0261546Y0008134D01*
X0261420Y0008038D01*
X0261292Y0007945D01*
X0261162Y0007855D01*
X0261029Y0007769D01*
X0260894Y0007685D01*
X0260758Y0007606D01*
X0260619Y0007529D01*
X0260478Y0007457D01*
X0260336Y0007387D01*
X0260192Y0007322D01*
X0260046Y0007260D01*
X0259899Y0007202D01*
X0259750Y0007147D01*
X0259600Y0007096D01*
X0259449Y0007049D01*
X0259297Y0007006D01*
X0259144Y0006967D01*
X0258989Y0006931D01*
X0258834Y0006900D01*
X0258678Y0006872D01*
X0258522Y0006848D01*
X0258365Y0006828D01*
X0258207Y0006812D01*
X0258050Y0006800D01*
X0257891Y0006792D01*
X0257733Y0006788D01*
X0257575Y0006788D01*
X0257417Y0006792D01*
X0257258Y0006800D01*
X0257101Y0006812D01*
X0256943Y0006828D01*
X0256786Y0006848D01*
X0256630Y0006872D01*
X0256474Y0006900D01*
X0256319Y0006931D01*
X0256164Y0006967D01*
X0256011Y0007006D01*
X0255859Y0007049D01*
X0255708Y0007096D01*
X0255558Y0007147D01*
X0255409Y0007202D01*
X0255262Y0007260D01*
X0255116Y0007322D01*
X0254972Y0007387D01*
X0254830Y0007457D01*
X0254689Y0007529D01*
X0254550Y0007606D01*
X0254414Y0007685D01*
X0254279Y0007769D01*
X0254146Y0007855D01*
X0254016Y0007945D01*
X0253888Y0008038D01*
X0253762Y0008134D01*
X0253639Y0008234D01*
X0253518Y0008336D01*
X0253400Y0008441D01*
X0253285Y0008550D01*
X0253172Y0008661D01*
X0253062Y0008775D01*
X0252955Y0008892D01*
X0252851Y0009011D01*
X0252750Y0009133D01*
X0252653Y0009258D01*
X0252558Y0009385D01*
X0252467Y0009514D01*
X0252378Y0009645D01*
X0252294Y0009779D01*
X0252212Y0009915D01*
X0252134Y0010052D01*
X0252060Y0010192D01*
X0251989Y0010334D01*
X0251921Y0010477D01*
X0251857Y0010622D01*
X0251797Y0010768D01*
X0251741Y0010916D01*
X0251688Y0011065D01*
X0251639Y0011216D01*
X0251594Y0011368D01*
X0251553Y0011521D01*
X0251515Y0011674D01*
X0251482Y0011829D01*
X0251452Y0011985D01*
X0251426Y0012141D01*
X0251405Y0012298D01*
X0251387Y0012455D01*
X0251373Y0012613D01*
X0251363Y0012771D01*
X0251357Y0012929D01*
X0251355Y0013087D01*
X0238229Y0131929D02*
X0238399Y0132095D01*
X0238573Y0132258D01*
X0238751Y0132415D01*
X0238933Y0132569D01*
X0239118Y0132719D01*
X0239307Y0132863D01*
X0239499Y0133004D01*
X0239695Y0133139D01*
X0239894Y0133271D01*
X0240095Y0133397D01*
X0240300Y0133518D01*
X0240508Y0133635D01*
X0240718Y0133746D01*
X0240931Y0133853D01*
X0241146Y0133954D01*
X0241363Y0134051D01*
X0241583Y0134142D01*
X0241805Y0134227D01*
X0242029Y0134308D01*
X0242255Y0134383D01*
X0242483Y0134453D01*
X0242712Y0134517D01*
X0242942Y0134576D01*
X0243174Y0134629D01*
X0243407Y0134677D01*
X0243642Y0134720D01*
X0243877Y0134756D01*
X0244113Y0134787D01*
X0244349Y0134813D01*
X0244587Y0134833D01*
X0244824Y0134847D01*
X0245062Y0134855D01*
X0245300Y0134858D01*
X0251355Y0147339D02*
X0251357Y0147497D01*
X0251363Y0147655D01*
X0251373Y0147813D01*
X0251387Y0147971D01*
X0251405Y0148128D01*
X0251426Y0148285D01*
X0251452Y0148441D01*
X0251482Y0148597D01*
X0251515Y0148752D01*
X0251553Y0148905D01*
X0251594Y0149058D01*
X0251639Y0149210D01*
X0251688Y0149361D01*
X0251741Y0149510D01*
X0251797Y0149658D01*
X0251857Y0149804D01*
X0251921Y0149949D01*
X0251989Y0150092D01*
X0252060Y0150234D01*
X0252134Y0150374D01*
X0252212Y0150511D01*
X0252294Y0150647D01*
X0252378Y0150781D01*
X0252467Y0150912D01*
X0252558Y0151041D01*
X0252653Y0151168D01*
X0252750Y0151293D01*
X0252851Y0151415D01*
X0252955Y0151534D01*
X0253062Y0151651D01*
X0253172Y0151765D01*
X0253285Y0151876D01*
X0253400Y0151985D01*
X0253518Y0152090D01*
X0253639Y0152192D01*
X0253762Y0152292D01*
X0253888Y0152388D01*
X0254016Y0152481D01*
X0254146Y0152571D01*
X0254279Y0152657D01*
X0254414Y0152741D01*
X0254550Y0152820D01*
X0254689Y0152897D01*
X0254830Y0152969D01*
X0254972Y0153039D01*
X0255116Y0153104D01*
X0255262Y0153166D01*
X0255409Y0153224D01*
X0255558Y0153279D01*
X0255708Y0153330D01*
X0255859Y0153377D01*
X0256011Y0153420D01*
X0256164Y0153459D01*
X0256319Y0153495D01*
X0256474Y0153526D01*
X0256630Y0153554D01*
X0256786Y0153578D01*
X0256943Y0153598D01*
X0257101Y0153614D01*
X0257258Y0153626D01*
X0257417Y0153634D01*
X0257575Y0153638D01*
X0257733Y0153638D01*
X0257891Y0153634D01*
X0258050Y0153626D01*
X0258207Y0153614D01*
X0258365Y0153598D01*
X0258522Y0153578D01*
X0258678Y0153554D01*
X0258834Y0153526D01*
X0258989Y0153495D01*
X0259144Y0153459D01*
X0259297Y0153420D01*
X0259449Y0153377D01*
X0259600Y0153330D01*
X0259750Y0153279D01*
X0259899Y0153224D01*
X0260046Y0153166D01*
X0260192Y0153104D01*
X0260336Y0153039D01*
X0260478Y0152969D01*
X0260619Y0152897D01*
X0260758Y0152820D01*
X0260894Y0152741D01*
X0261029Y0152657D01*
X0261162Y0152571D01*
X0261292Y0152481D01*
X0261420Y0152388D01*
X0261546Y0152292D01*
X0261669Y0152192D01*
X0261790Y0152090D01*
X0261908Y0151985D01*
X0262023Y0151876D01*
X0262136Y0151765D01*
X0262246Y0151651D01*
X0262353Y0151534D01*
X0262457Y0151415D01*
X0262558Y0151293D01*
X0262655Y0151168D01*
X0262750Y0151041D01*
X0262841Y0150912D01*
X0262930Y0150781D01*
X0263014Y0150647D01*
X0263096Y0150511D01*
X0263174Y0150374D01*
X0263248Y0150234D01*
X0263319Y0150092D01*
X0263387Y0149949D01*
X0263451Y0149804D01*
X0263511Y0149658D01*
X0263567Y0149510D01*
X0263620Y0149361D01*
X0263669Y0149210D01*
X0263714Y0149058D01*
X0263755Y0148905D01*
X0263793Y0148752D01*
X0263826Y0148597D01*
X0263856Y0148441D01*
X0263882Y0148285D01*
X0263903Y0148128D01*
X0263921Y0147971D01*
X0263935Y0147813D01*
X0263945Y0147655D01*
X0263951Y0147497D01*
X0263953Y0147339D01*
X0263951Y0147181D01*
X0263945Y0147023D01*
X0263935Y0146865D01*
X0263921Y0146707D01*
X0263903Y0146550D01*
X0263882Y0146393D01*
X0263856Y0146237D01*
X0263826Y0146081D01*
X0263793Y0145926D01*
X0263755Y0145773D01*
X0263714Y0145620D01*
X0263669Y0145468D01*
X0263620Y0145317D01*
X0263567Y0145168D01*
X0263511Y0145020D01*
X0263451Y0144874D01*
X0263387Y0144729D01*
X0263319Y0144586D01*
X0263248Y0144444D01*
X0263174Y0144304D01*
X0263096Y0144167D01*
X0263014Y0144031D01*
X0262930Y0143897D01*
X0262841Y0143766D01*
X0262750Y0143637D01*
X0262655Y0143510D01*
X0262558Y0143385D01*
X0262457Y0143263D01*
X0262353Y0143144D01*
X0262246Y0143027D01*
X0262136Y0142913D01*
X0262023Y0142802D01*
X0261908Y0142693D01*
X0261790Y0142588D01*
X0261669Y0142486D01*
X0261546Y0142386D01*
X0261420Y0142290D01*
X0261292Y0142197D01*
X0261162Y0142107D01*
X0261029Y0142021D01*
X0260894Y0141937D01*
X0260758Y0141858D01*
X0260619Y0141781D01*
X0260478Y0141709D01*
X0260336Y0141639D01*
X0260192Y0141574D01*
X0260046Y0141512D01*
X0259899Y0141454D01*
X0259750Y0141399D01*
X0259600Y0141348D01*
X0259449Y0141301D01*
X0259297Y0141258D01*
X0259144Y0141219D01*
X0258989Y0141183D01*
X0258834Y0141152D01*
X0258678Y0141124D01*
X0258522Y0141100D01*
X0258365Y0141080D01*
X0258207Y0141064D01*
X0258050Y0141052D01*
X0257891Y0141044D01*
X0257733Y0141040D01*
X0257575Y0141040D01*
X0257417Y0141044D01*
X0257258Y0141052D01*
X0257101Y0141064D01*
X0256943Y0141080D01*
X0256786Y0141100D01*
X0256630Y0141124D01*
X0256474Y0141152D01*
X0256319Y0141183D01*
X0256164Y0141219D01*
X0256011Y0141258D01*
X0255859Y0141301D01*
X0255708Y0141348D01*
X0255558Y0141399D01*
X0255409Y0141454D01*
X0255262Y0141512D01*
X0255116Y0141574D01*
X0254972Y0141639D01*
X0254830Y0141709D01*
X0254689Y0141781D01*
X0254550Y0141858D01*
X0254414Y0141937D01*
X0254279Y0142021D01*
X0254146Y0142107D01*
X0254016Y0142197D01*
X0253888Y0142290D01*
X0253762Y0142386D01*
X0253639Y0142486D01*
X0253518Y0142588D01*
X0253400Y0142693D01*
X0253285Y0142802D01*
X0253172Y0142913D01*
X0253062Y0143027D01*
X0252955Y0143144D01*
X0252851Y0143263D01*
X0252750Y0143385D01*
X0252653Y0143510D01*
X0252558Y0143637D01*
X0252467Y0143766D01*
X0252378Y0143897D01*
X0252294Y0144031D01*
X0252212Y0144167D01*
X0252134Y0144304D01*
X0252060Y0144444D01*
X0251989Y0144586D01*
X0251921Y0144729D01*
X0251857Y0144874D01*
X0251797Y0145020D01*
X0251741Y0145168D01*
X0251688Y0145317D01*
X0251639Y0145468D01*
X0251594Y0145620D01*
X0251553Y0145773D01*
X0251515Y0145926D01*
X0251482Y0146081D01*
X0251452Y0146237D01*
X0251426Y0146393D01*
X0251405Y0146550D01*
X0251387Y0146707D01*
X0251373Y0146865D01*
X0251363Y0147023D01*
X0251357Y0147181D01*
X0251355Y0147339D01*
X0010410Y0147339D02*
X0010412Y0147497D01*
X0010418Y0147655D01*
X0010428Y0147813D01*
X0010442Y0147971D01*
X0010460Y0148128D01*
X0010481Y0148285D01*
X0010507Y0148441D01*
X0010537Y0148597D01*
X0010570Y0148752D01*
X0010608Y0148905D01*
X0010649Y0149058D01*
X0010694Y0149210D01*
X0010743Y0149361D01*
X0010796Y0149510D01*
X0010852Y0149658D01*
X0010912Y0149804D01*
X0010976Y0149949D01*
X0011044Y0150092D01*
X0011115Y0150234D01*
X0011189Y0150374D01*
X0011267Y0150511D01*
X0011349Y0150647D01*
X0011433Y0150781D01*
X0011522Y0150912D01*
X0011613Y0151041D01*
X0011708Y0151168D01*
X0011805Y0151293D01*
X0011906Y0151415D01*
X0012010Y0151534D01*
X0012117Y0151651D01*
X0012227Y0151765D01*
X0012340Y0151876D01*
X0012455Y0151985D01*
X0012573Y0152090D01*
X0012694Y0152192D01*
X0012817Y0152292D01*
X0012943Y0152388D01*
X0013071Y0152481D01*
X0013201Y0152571D01*
X0013334Y0152657D01*
X0013469Y0152741D01*
X0013605Y0152820D01*
X0013744Y0152897D01*
X0013885Y0152969D01*
X0014027Y0153039D01*
X0014171Y0153104D01*
X0014317Y0153166D01*
X0014464Y0153224D01*
X0014613Y0153279D01*
X0014763Y0153330D01*
X0014914Y0153377D01*
X0015066Y0153420D01*
X0015219Y0153459D01*
X0015374Y0153495D01*
X0015529Y0153526D01*
X0015685Y0153554D01*
X0015841Y0153578D01*
X0015998Y0153598D01*
X0016156Y0153614D01*
X0016313Y0153626D01*
X0016472Y0153634D01*
X0016630Y0153638D01*
X0016788Y0153638D01*
X0016946Y0153634D01*
X0017105Y0153626D01*
X0017262Y0153614D01*
X0017420Y0153598D01*
X0017577Y0153578D01*
X0017733Y0153554D01*
X0017889Y0153526D01*
X0018044Y0153495D01*
X0018199Y0153459D01*
X0018352Y0153420D01*
X0018504Y0153377D01*
X0018655Y0153330D01*
X0018805Y0153279D01*
X0018954Y0153224D01*
X0019101Y0153166D01*
X0019247Y0153104D01*
X0019391Y0153039D01*
X0019533Y0152969D01*
X0019674Y0152897D01*
X0019813Y0152820D01*
X0019949Y0152741D01*
X0020084Y0152657D01*
X0020217Y0152571D01*
X0020347Y0152481D01*
X0020475Y0152388D01*
X0020601Y0152292D01*
X0020724Y0152192D01*
X0020845Y0152090D01*
X0020963Y0151985D01*
X0021078Y0151876D01*
X0021191Y0151765D01*
X0021301Y0151651D01*
X0021408Y0151534D01*
X0021512Y0151415D01*
X0021613Y0151293D01*
X0021710Y0151168D01*
X0021805Y0151041D01*
X0021896Y0150912D01*
X0021985Y0150781D01*
X0022069Y0150647D01*
X0022151Y0150511D01*
X0022229Y0150374D01*
X0022303Y0150234D01*
X0022374Y0150092D01*
X0022442Y0149949D01*
X0022506Y0149804D01*
X0022566Y0149658D01*
X0022622Y0149510D01*
X0022675Y0149361D01*
X0022724Y0149210D01*
X0022769Y0149058D01*
X0022810Y0148905D01*
X0022848Y0148752D01*
X0022881Y0148597D01*
X0022911Y0148441D01*
X0022937Y0148285D01*
X0022958Y0148128D01*
X0022976Y0147971D01*
X0022990Y0147813D01*
X0023000Y0147655D01*
X0023006Y0147497D01*
X0023008Y0147339D01*
X0023006Y0147181D01*
X0023000Y0147023D01*
X0022990Y0146865D01*
X0022976Y0146707D01*
X0022958Y0146550D01*
X0022937Y0146393D01*
X0022911Y0146237D01*
X0022881Y0146081D01*
X0022848Y0145926D01*
X0022810Y0145773D01*
X0022769Y0145620D01*
X0022724Y0145468D01*
X0022675Y0145317D01*
X0022622Y0145168D01*
X0022566Y0145020D01*
X0022506Y0144874D01*
X0022442Y0144729D01*
X0022374Y0144586D01*
X0022303Y0144444D01*
X0022229Y0144304D01*
X0022151Y0144167D01*
X0022069Y0144031D01*
X0021985Y0143897D01*
X0021896Y0143766D01*
X0021805Y0143637D01*
X0021710Y0143510D01*
X0021613Y0143385D01*
X0021512Y0143263D01*
X0021408Y0143144D01*
X0021301Y0143027D01*
X0021191Y0142913D01*
X0021078Y0142802D01*
X0020963Y0142693D01*
X0020845Y0142588D01*
X0020724Y0142486D01*
X0020601Y0142386D01*
X0020475Y0142290D01*
X0020347Y0142197D01*
X0020217Y0142107D01*
X0020084Y0142021D01*
X0019949Y0141937D01*
X0019813Y0141858D01*
X0019674Y0141781D01*
X0019533Y0141709D01*
X0019391Y0141639D01*
X0019247Y0141574D01*
X0019101Y0141512D01*
X0018954Y0141454D01*
X0018805Y0141399D01*
X0018655Y0141348D01*
X0018504Y0141301D01*
X0018352Y0141258D01*
X0018199Y0141219D01*
X0018044Y0141183D01*
X0017889Y0141152D01*
X0017733Y0141124D01*
X0017577Y0141100D01*
X0017420Y0141080D01*
X0017262Y0141064D01*
X0017105Y0141052D01*
X0016946Y0141044D01*
X0016788Y0141040D01*
X0016630Y0141040D01*
X0016472Y0141044D01*
X0016313Y0141052D01*
X0016156Y0141064D01*
X0015998Y0141080D01*
X0015841Y0141100D01*
X0015685Y0141124D01*
X0015529Y0141152D01*
X0015374Y0141183D01*
X0015219Y0141219D01*
X0015066Y0141258D01*
X0014914Y0141301D01*
X0014763Y0141348D01*
X0014613Y0141399D01*
X0014464Y0141454D01*
X0014317Y0141512D01*
X0014171Y0141574D01*
X0014027Y0141639D01*
X0013885Y0141709D01*
X0013744Y0141781D01*
X0013605Y0141858D01*
X0013469Y0141937D01*
X0013334Y0142021D01*
X0013201Y0142107D01*
X0013071Y0142197D01*
X0012943Y0142290D01*
X0012817Y0142386D01*
X0012694Y0142486D01*
X0012573Y0142588D01*
X0012455Y0142693D01*
X0012340Y0142802D01*
X0012227Y0142913D01*
X0012117Y0143027D01*
X0012010Y0143144D01*
X0011906Y0143263D01*
X0011805Y0143385D01*
X0011708Y0143510D01*
X0011613Y0143637D01*
X0011522Y0143766D01*
X0011433Y0143897D01*
X0011349Y0144031D01*
X0011267Y0144167D01*
X0011189Y0144304D01*
X0011115Y0144444D01*
X0011044Y0144586D01*
X0010976Y0144729D01*
X0010912Y0144874D01*
X0010852Y0145020D01*
X0010796Y0145168D01*
X0010743Y0145317D01*
X0010694Y0145468D01*
X0010649Y0145620D01*
X0010608Y0145773D01*
X0010570Y0145926D01*
X0010537Y0146081D01*
X0010507Y0146237D01*
X0010481Y0146393D01*
X0010460Y0146550D01*
X0010442Y0146707D01*
X0010428Y0146865D01*
X0010418Y0147023D01*
X0010412Y0147181D01*
X0010410Y0147339D01*
D11*
X0175055Y0040685D03*
X0205055Y0040685D03*
X0214937Y0028874D03*
X0207437Y0023874D03*
X0214937Y0018874D03*
X0192063Y0020646D03*
X0162063Y0020646D03*
D12*
X0261591Y0040213D03*
X0261591Y0050213D03*
X0261591Y0060213D03*
X0261591Y0070213D03*
X0261591Y0080213D03*
X0261591Y0090213D03*
X0261591Y0100213D03*
X0261591Y0110213D03*
X0012772Y0085213D03*
X0012772Y0075213D03*
X0012772Y0065213D03*
D13*
X0012772Y0095213D03*
X0261591Y0120213D03*
D14*
X0156512Y0049307D03*
X0146512Y0049307D03*
X0136512Y0049307D03*
X0126512Y0049307D03*
X0116512Y0049307D03*
X0121512Y0039307D03*
X0111512Y0039307D03*
X0131512Y0039307D03*
X0141512Y0039307D03*
X0151512Y0039307D03*
D15*
X0127437Y0050232D02*
X0127437Y0058500D01*
X0017437Y0058500D01*
X0012772Y0063165D01*
X0012772Y0065213D01*
X0116512Y0049307D02*
X0117437Y0048500D01*
X0117437Y0013500D01*
X0217437Y0013500D01*
X0244150Y0040213D01*
X0261591Y0040213D01*
X0261591Y0050213D02*
X0259937Y0051000D01*
X0234937Y0051000D01*
X0214937Y0028874D01*
X0207437Y0023874D02*
X0204937Y0026000D01*
X0205055Y0040685D01*
X0175055Y0040685D02*
X0174937Y0016000D01*
X0122437Y0016000D01*
X0122437Y0038500D01*
X0121512Y0039307D01*
X0126512Y0049307D02*
X0127437Y0050232D01*
X0127437Y0058500D02*
X0259878Y0058500D01*
X0261591Y0060213D01*
X0192063Y0020646D02*
X0191945Y0020685D01*
D16*
X0214937Y0018874D02*
X0215212Y0018875D01*
X0162063Y0020646D02*
X0161912Y0020825D01*
X0156712Y0026025D01*
X0156712Y0049100D01*
X0156512Y0049307D01*
M02*
