%
M48
M72
T01C0.02362
T02C0.03150
T03C0.03200
T04C0.03800
T05C0.03937
T06C0.04331
T07C0.05906
T08C0.12205
%
T01
X101400Y110000
X131400Y70000
X151400Y115000
T02
X51400Y45000
X61400Y45000
X71400Y45000
X81400Y45000
X91400Y45000
X101400Y45000
X111400Y45000
X121400Y45000
X131400Y45000
X141400Y45000
X136400Y55000
X126400Y55000
X116400Y55000
X106400Y55000
X96400Y55000
X86400Y55000
X76400Y55000
X66400Y55000
X56400Y55000
X146400Y55000
T03
X176400Y135000
X181400Y120000
X191400Y120000
X201400Y120000
X211400Y120000
X221400Y145000
X221400Y155000
X221400Y165000
X221400Y175000
X241400Y165000
X251400Y165000
X251400Y135000
X246400Y115000
X246400Y105000
X246400Y95000
X246400Y85000
X246400Y65000
X211400Y90000
X201400Y90000
X191400Y90000
X181400Y90000
X206400Y65000
X191400Y145000
X191400Y155000
X191400Y165000
X191400Y175000
X176400Y175000
X201400Y195000
X211400Y195000
X241400Y195000
X251400Y195000
X251400Y225000
X131400Y200000
X121400Y200000
X111400Y200000
X101400Y200000
X91400Y200000
X81400Y200000
X71400Y200000
X61400Y200000
X51400Y200000
X41400Y200000
X21400Y190000
X21400Y180000
X41400Y170000
X51400Y170000
X61400Y170000
X71400Y170000
X81400Y170000
X91400Y170000
X101400Y170000
X111400Y170000
X121400Y170000
X131400Y170000
T04
X136400Y85000
X126400Y85000
X116400Y85000
X106400Y85000
X96400Y85000
X86400Y85000
X76400Y85000
X66400Y85000
X56400Y85000
X46400Y85000
X36400Y85000
X26400Y85000
X16400Y85000
X6400Y85000
X136400Y95000
X136400Y105000
X136400Y115000
X136400Y125000
X136400Y135000
X136400Y145000
X126400Y145000
X116400Y145000
X106400Y145000
X96400Y145000
X86400Y145000
X76400Y145000
X66400Y145000
X56400Y145000
X46400Y145000
X36400Y145000
X26400Y145000
X16400Y145000
X6400Y145000
T05
X286243Y47520
X266557Y59331
X266557Y34528
T06
X286400Y87520
X286400Y107205
X286400Y141575
X286400Y161260
X286400Y180945
X286400Y200630
X286400Y220315
X286400Y240000
X81085Y235000
X61400Y235000
T07
X45022Y53563
T08
X311400Y15000
X11400Y15000
X11400Y260000
X311400Y260000
M30
