G75*
%MOIN*%
%OFA0B0*%
%FSLAX25Y25*%
%IPPOS*%
%LPD*%
%AMOC8*
5,1,8,0,0,1.08239X$1,22.5*
%
%ADD10C,0.00000*%
%ADD11C,0.00800*%
%ADD12C,0.00600*%
%ADD13C,0.01000*%
%ADD14C,0.00500*%
%ADD15C,0.00400*%
%ADD16R,0.02400X0.03400*%
%ADD17R,0.03400X0.02400*%
D10*
X0001400Y0005000D02*
X0321400Y0005000D01*
X0321400Y0275000D01*
X0001400Y0275000D01*
X0001400Y0005000D01*
X0005298Y0015000D02*
X0005300Y0015156D01*
X0005306Y0015312D01*
X0005316Y0015467D01*
X0005330Y0015622D01*
X0005348Y0015777D01*
X0005370Y0015931D01*
X0005395Y0016085D01*
X0005425Y0016238D01*
X0005459Y0016390D01*
X0005496Y0016542D01*
X0005537Y0016692D01*
X0005582Y0016841D01*
X0005631Y0016989D01*
X0005684Y0017136D01*
X0005740Y0017281D01*
X0005800Y0017425D01*
X0005864Y0017567D01*
X0005932Y0017708D01*
X0006003Y0017846D01*
X0006077Y0017983D01*
X0006155Y0018118D01*
X0006236Y0018251D01*
X0006321Y0018382D01*
X0006409Y0018511D01*
X0006500Y0018637D01*
X0006595Y0018761D01*
X0006692Y0018882D01*
X0006793Y0019001D01*
X0006897Y0019118D01*
X0007003Y0019231D01*
X0007113Y0019342D01*
X0007225Y0019450D01*
X0007340Y0019555D01*
X0007458Y0019658D01*
X0007578Y0019757D01*
X0007701Y0019853D01*
X0007826Y0019946D01*
X0007953Y0020035D01*
X0008083Y0020122D01*
X0008215Y0020205D01*
X0008349Y0020284D01*
X0008485Y0020361D01*
X0008623Y0020433D01*
X0008762Y0020503D01*
X0008904Y0020568D01*
X0009047Y0020630D01*
X0009191Y0020688D01*
X0009337Y0020743D01*
X0009485Y0020794D01*
X0009633Y0020841D01*
X0009783Y0020884D01*
X0009934Y0020923D01*
X0010086Y0020959D01*
X0010238Y0020990D01*
X0010392Y0021018D01*
X0010546Y0021042D01*
X0010700Y0021062D01*
X0010855Y0021078D01*
X0011011Y0021090D01*
X0011166Y0021098D01*
X0011322Y0021102D01*
X0011478Y0021102D01*
X0011634Y0021098D01*
X0011789Y0021090D01*
X0011945Y0021078D01*
X0012100Y0021062D01*
X0012254Y0021042D01*
X0012408Y0021018D01*
X0012562Y0020990D01*
X0012714Y0020959D01*
X0012866Y0020923D01*
X0013017Y0020884D01*
X0013167Y0020841D01*
X0013315Y0020794D01*
X0013463Y0020743D01*
X0013609Y0020688D01*
X0013753Y0020630D01*
X0013896Y0020568D01*
X0014038Y0020503D01*
X0014177Y0020433D01*
X0014315Y0020361D01*
X0014451Y0020284D01*
X0014585Y0020205D01*
X0014717Y0020122D01*
X0014847Y0020035D01*
X0014974Y0019946D01*
X0015099Y0019853D01*
X0015222Y0019757D01*
X0015342Y0019658D01*
X0015460Y0019555D01*
X0015575Y0019450D01*
X0015687Y0019342D01*
X0015797Y0019231D01*
X0015903Y0019118D01*
X0016007Y0019001D01*
X0016108Y0018882D01*
X0016205Y0018761D01*
X0016300Y0018637D01*
X0016391Y0018511D01*
X0016479Y0018382D01*
X0016564Y0018251D01*
X0016645Y0018118D01*
X0016723Y0017983D01*
X0016797Y0017846D01*
X0016868Y0017708D01*
X0016936Y0017567D01*
X0017000Y0017425D01*
X0017060Y0017281D01*
X0017116Y0017136D01*
X0017169Y0016989D01*
X0017218Y0016841D01*
X0017263Y0016692D01*
X0017304Y0016542D01*
X0017341Y0016390D01*
X0017375Y0016238D01*
X0017405Y0016085D01*
X0017430Y0015931D01*
X0017452Y0015777D01*
X0017470Y0015622D01*
X0017484Y0015467D01*
X0017494Y0015312D01*
X0017500Y0015156D01*
X0017502Y0015000D01*
X0017500Y0014844D01*
X0017494Y0014688D01*
X0017484Y0014533D01*
X0017470Y0014378D01*
X0017452Y0014223D01*
X0017430Y0014069D01*
X0017405Y0013915D01*
X0017375Y0013762D01*
X0017341Y0013610D01*
X0017304Y0013458D01*
X0017263Y0013308D01*
X0017218Y0013159D01*
X0017169Y0013011D01*
X0017116Y0012864D01*
X0017060Y0012719D01*
X0017000Y0012575D01*
X0016936Y0012433D01*
X0016868Y0012292D01*
X0016797Y0012154D01*
X0016723Y0012017D01*
X0016645Y0011882D01*
X0016564Y0011749D01*
X0016479Y0011618D01*
X0016391Y0011489D01*
X0016300Y0011363D01*
X0016205Y0011239D01*
X0016108Y0011118D01*
X0016007Y0010999D01*
X0015903Y0010882D01*
X0015797Y0010769D01*
X0015687Y0010658D01*
X0015575Y0010550D01*
X0015460Y0010445D01*
X0015342Y0010342D01*
X0015222Y0010243D01*
X0015099Y0010147D01*
X0014974Y0010054D01*
X0014847Y0009965D01*
X0014717Y0009878D01*
X0014585Y0009795D01*
X0014451Y0009716D01*
X0014315Y0009639D01*
X0014177Y0009567D01*
X0014038Y0009497D01*
X0013896Y0009432D01*
X0013753Y0009370D01*
X0013609Y0009312D01*
X0013463Y0009257D01*
X0013315Y0009206D01*
X0013167Y0009159D01*
X0013017Y0009116D01*
X0012866Y0009077D01*
X0012714Y0009041D01*
X0012562Y0009010D01*
X0012408Y0008982D01*
X0012254Y0008958D01*
X0012100Y0008938D01*
X0011945Y0008922D01*
X0011789Y0008910D01*
X0011634Y0008902D01*
X0011478Y0008898D01*
X0011322Y0008898D01*
X0011166Y0008902D01*
X0011011Y0008910D01*
X0010855Y0008922D01*
X0010700Y0008938D01*
X0010546Y0008958D01*
X0010392Y0008982D01*
X0010238Y0009010D01*
X0010086Y0009041D01*
X0009934Y0009077D01*
X0009783Y0009116D01*
X0009633Y0009159D01*
X0009485Y0009206D01*
X0009337Y0009257D01*
X0009191Y0009312D01*
X0009047Y0009370D01*
X0008904Y0009432D01*
X0008762Y0009497D01*
X0008623Y0009567D01*
X0008485Y0009639D01*
X0008349Y0009716D01*
X0008215Y0009795D01*
X0008083Y0009878D01*
X0007953Y0009965D01*
X0007826Y0010054D01*
X0007701Y0010147D01*
X0007578Y0010243D01*
X0007458Y0010342D01*
X0007340Y0010445D01*
X0007225Y0010550D01*
X0007113Y0010658D01*
X0007003Y0010769D01*
X0006897Y0010882D01*
X0006793Y0010999D01*
X0006692Y0011118D01*
X0006595Y0011239D01*
X0006500Y0011363D01*
X0006409Y0011489D01*
X0006321Y0011618D01*
X0006236Y0011749D01*
X0006155Y0011882D01*
X0006077Y0012017D01*
X0006003Y0012154D01*
X0005932Y0012292D01*
X0005864Y0012433D01*
X0005800Y0012575D01*
X0005740Y0012719D01*
X0005684Y0012864D01*
X0005631Y0013011D01*
X0005582Y0013159D01*
X0005537Y0013308D01*
X0005496Y0013458D01*
X0005459Y0013610D01*
X0005425Y0013762D01*
X0005395Y0013915D01*
X0005370Y0014069D01*
X0005348Y0014223D01*
X0005330Y0014378D01*
X0005316Y0014533D01*
X0005306Y0014688D01*
X0005300Y0014844D01*
X0005298Y0015000D01*
X0042069Y0053563D02*
X0042071Y0053671D01*
X0042077Y0053780D01*
X0042087Y0053888D01*
X0042101Y0053995D01*
X0042119Y0054102D01*
X0042140Y0054209D01*
X0042166Y0054314D01*
X0042196Y0054419D01*
X0042229Y0054522D01*
X0042266Y0054624D01*
X0042307Y0054724D01*
X0042351Y0054823D01*
X0042400Y0054921D01*
X0042451Y0055016D01*
X0042506Y0055109D01*
X0042565Y0055201D01*
X0042627Y0055290D01*
X0042692Y0055377D01*
X0042760Y0055461D01*
X0042831Y0055543D01*
X0042905Y0055622D01*
X0042982Y0055698D01*
X0043062Y0055772D01*
X0043145Y0055842D01*
X0043230Y0055910D01*
X0043317Y0055974D01*
X0043407Y0056035D01*
X0043499Y0056093D01*
X0043593Y0056147D01*
X0043689Y0056198D01*
X0043786Y0056245D01*
X0043886Y0056289D01*
X0043987Y0056329D01*
X0044089Y0056365D01*
X0044192Y0056397D01*
X0044297Y0056426D01*
X0044403Y0056450D01*
X0044509Y0056471D01*
X0044616Y0056488D01*
X0044724Y0056501D01*
X0044832Y0056510D01*
X0044941Y0056515D01*
X0045049Y0056516D01*
X0045158Y0056513D01*
X0045266Y0056506D01*
X0045374Y0056495D01*
X0045481Y0056480D01*
X0045588Y0056461D01*
X0045694Y0056438D01*
X0045799Y0056412D01*
X0045904Y0056381D01*
X0046006Y0056347D01*
X0046108Y0056309D01*
X0046208Y0056267D01*
X0046307Y0056222D01*
X0046404Y0056173D01*
X0046498Y0056120D01*
X0046591Y0056064D01*
X0046682Y0056005D01*
X0046771Y0055942D01*
X0046857Y0055877D01*
X0046941Y0055808D01*
X0047022Y0055736D01*
X0047100Y0055661D01*
X0047176Y0055583D01*
X0047249Y0055502D01*
X0047319Y0055419D01*
X0047385Y0055334D01*
X0047449Y0055246D01*
X0047509Y0055155D01*
X0047566Y0055063D01*
X0047619Y0054968D01*
X0047669Y0054872D01*
X0047715Y0054774D01*
X0047758Y0054674D01*
X0047797Y0054573D01*
X0047832Y0054470D01*
X0047864Y0054367D01*
X0047891Y0054262D01*
X0047915Y0054156D01*
X0047935Y0054049D01*
X0047951Y0053942D01*
X0047963Y0053834D01*
X0047971Y0053726D01*
X0047975Y0053617D01*
X0047975Y0053509D01*
X0047971Y0053400D01*
X0047963Y0053292D01*
X0047951Y0053184D01*
X0047935Y0053077D01*
X0047915Y0052970D01*
X0047891Y0052864D01*
X0047864Y0052759D01*
X0047832Y0052656D01*
X0047797Y0052553D01*
X0047758Y0052452D01*
X0047715Y0052352D01*
X0047669Y0052254D01*
X0047619Y0052158D01*
X0047566Y0052063D01*
X0047509Y0051971D01*
X0047449Y0051880D01*
X0047385Y0051792D01*
X0047319Y0051707D01*
X0047249Y0051624D01*
X0047176Y0051543D01*
X0047100Y0051465D01*
X0047022Y0051390D01*
X0046941Y0051318D01*
X0046857Y0051249D01*
X0046771Y0051184D01*
X0046682Y0051121D01*
X0046591Y0051062D01*
X0046499Y0051006D01*
X0046404Y0050953D01*
X0046307Y0050904D01*
X0046208Y0050859D01*
X0046108Y0050817D01*
X0046006Y0050779D01*
X0045904Y0050745D01*
X0045799Y0050714D01*
X0045694Y0050688D01*
X0045588Y0050665D01*
X0045481Y0050646D01*
X0045374Y0050631D01*
X0045266Y0050620D01*
X0045158Y0050613D01*
X0045049Y0050610D01*
X0044941Y0050611D01*
X0044832Y0050616D01*
X0044724Y0050625D01*
X0044616Y0050638D01*
X0044509Y0050655D01*
X0044403Y0050676D01*
X0044297Y0050700D01*
X0044192Y0050729D01*
X0044089Y0050761D01*
X0043987Y0050797D01*
X0043886Y0050837D01*
X0043786Y0050881D01*
X0043689Y0050928D01*
X0043593Y0050979D01*
X0043499Y0051033D01*
X0043407Y0051091D01*
X0043317Y0051152D01*
X0043230Y0051216D01*
X0043145Y0051284D01*
X0043062Y0051354D01*
X0042982Y0051428D01*
X0042905Y0051504D01*
X0042831Y0051583D01*
X0042760Y0051665D01*
X0042692Y0051749D01*
X0042627Y0051836D01*
X0042565Y0051925D01*
X0042506Y0052017D01*
X0042451Y0052110D01*
X0042400Y0052205D01*
X0042351Y0052303D01*
X0042307Y0052402D01*
X0042266Y0052502D01*
X0042229Y0052604D01*
X0042196Y0052707D01*
X0042166Y0052812D01*
X0042140Y0052917D01*
X0042119Y0053024D01*
X0042101Y0053131D01*
X0042087Y0053238D01*
X0042077Y0053346D01*
X0042071Y0053455D01*
X0042069Y0053563D01*
X0005298Y0265000D02*
X0005300Y0265156D01*
X0005306Y0265312D01*
X0005316Y0265467D01*
X0005330Y0265622D01*
X0005348Y0265777D01*
X0005370Y0265931D01*
X0005395Y0266085D01*
X0005425Y0266238D01*
X0005459Y0266390D01*
X0005496Y0266542D01*
X0005537Y0266692D01*
X0005582Y0266841D01*
X0005631Y0266989D01*
X0005684Y0267136D01*
X0005740Y0267281D01*
X0005800Y0267425D01*
X0005864Y0267567D01*
X0005932Y0267708D01*
X0006003Y0267846D01*
X0006077Y0267983D01*
X0006155Y0268118D01*
X0006236Y0268251D01*
X0006321Y0268382D01*
X0006409Y0268511D01*
X0006500Y0268637D01*
X0006595Y0268761D01*
X0006692Y0268882D01*
X0006793Y0269001D01*
X0006897Y0269118D01*
X0007003Y0269231D01*
X0007113Y0269342D01*
X0007225Y0269450D01*
X0007340Y0269555D01*
X0007458Y0269658D01*
X0007578Y0269757D01*
X0007701Y0269853D01*
X0007826Y0269946D01*
X0007953Y0270035D01*
X0008083Y0270122D01*
X0008215Y0270205D01*
X0008349Y0270284D01*
X0008485Y0270361D01*
X0008623Y0270433D01*
X0008762Y0270503D01*
X0008904Y0270568D01*
X0009047Y0270630D01*
X0009191Y0270688D01*
X0009337Y0270743D01*
X0009485Y0270794D01*
X0009633Y0270841D01*
X0009783Y0270884D01*
X0009934Y0270923D01*
X0010086Y0270959D01*
X0010238Y0270990D01*
X0010392Y0271018D01*
X0010546Y0271042D01*
X0010700Y0271062D01*
X0010855Y0271078D01*
X0011011Y0271090D01*
X0011166Y0271098D01*
X0011322Y0271102D01*
X0011478Y0271102D01*
X0011634Y0271098D01*
X0011789Y0271090D01*
X0011945Y0271078D01*
X0012100Y0271062D01*
X0012254Y0271042D01*
X0012408Y0271018D01*
X0012562Y0270990D01*
X0012714Y0270959D01*
X0012866Y0270923D01*
X0013017Y0270884D01*
X0013167Y0270841D01*
X0013315Y0270794D01*
X0013463Y0270743D01*
X0013609Y0270688D01*
X0013753Y0270630D01*
X0013896Y0270568D01*
X0014038Y0270503D01*
X0014177Y0270433D01*
X0014315Y0270361D01*
X0014451Y0270284D01*
X0014585Y0270205D01*
X0014717Y0270122D01*
X0014847Y0270035D01*
X0014974Y0269946D01*
X0015099Y0269853D01*
X0015222Y0269757D01*
X0015342Y0269658D01*
X0015460Y0269555D01*
X0015575Y0269450D01*
X0015687Y0269342D01*
X0015797Y0269231D01*
X0015903Y0269118D01*
X0016007Y0269001D01*
X0016108Y0268882D01*
X0016205Y0268761D01*
X0016300Y0268637D01*
X0016391Y0268511D01*
X0016479Y0268382D01*
X0016564Y0268251D01*
X0016645Y0268118D01*
X0016723Y0267983D01*
X0016797Y0267846D01*
X0016868Y0267708D01*
X0016936Y0267567D01*
X0017000Y0267425D01*
X0017060Y0267281D01*
X0017116Y0267136D01*
X0017169Y0266989D01*
X0017218Y0266841D01*
X0017263Y0266692D01*
X0017304Y0266542D01*
X0017341Y0266390D01*
X0017375Y0266238D01*
X0017405Y0266085D01*
X0017430Y0265931D01*
X0017452Y0265777D01*
X0017470Y0265622D01*
X0017484Y0265467D01*
X0017494Y0265312D01*
X0017500Y0265156D01*
X0017502Y0265000D01*
X0017500Y0264844D01*
X0017494Y0264688D01*
X0017484Y0264533D01*
X0017470Y0264378D01*
X0017452Y0264223D01*
X0017430Y0264069D01*
X0017405Y0263915D01*
X0017375Y0263762D01*
X0017341Y0263610D01*
X0017304Y0263458D01*
X0017263Y0263308D01*
X0017218Y0263159D01*
X0017169Y0263011D01*
X0017116Y0262864D01*
X0017060Y0262719D01*
X0017000Y0262575D01*
X0016936Y0262433D01*
X0016868Y0262292D01*
X0016797Y0262154D01*
X0016723Y0262017D01*
X0016645Y0261882D01*
X0016564Y0261749D01*
X0016479Y0261618D01*
X0016391Y0261489D01*
X0016300Y0261363D01*
X0016205Y0261239D01*
X0016108Y0261118D01*
X0016007Y0260999D01*
X0015903Y0260882D01*
X0015797Y0260769D01*
X0015687Y0260658D01*
X0015575Y0260550D01*
X0015460Y0260445D01*
X0015342Y0260342D01*
X0015222Y0260243D01*
X0015099Y0260147D01*
X0014974Y0260054D01*
X0014847Y0259965D01*
X0014717Y0259878D01*
X0014585Y0259795D01*
X0014451Y0259716D01*
X0014315Y0259639D01*
X0014177Y0259567D01*
X0014038Y0259497D01*
X0013896Y0259432D01*
X0013753Y0259370D01*
X0013609Y0259312D01*
X0013463Y0259257D01*
X0013315Y0259206D01*
X0013167Y0259159D01*
X0013017Y0259116D01*
X0012866Y0259077D01*
X0012714Y0259041D01*
X0012562Y0259010D01*
X0012408Y0258982D01*
X0012254Y0258958D01*
X0012100Y0258938D01*
X0011945Y0258922D01*
X0011789Y0258910D01*
X0011634Y0258902D01*
X0011478Y0258898D01*
X0011322Y0258898D01*
X0011166Y0258902D01*
X0011011Y0258910D01*
X0010855Y0258922D01*
X0010700Y0258938D01*
X0010546Y0258958D01*
X0010392Y0258982D01*
X0010238Y0259010D01*
X0010086Y0259041D01*
X0009934Y0259077D01*
X0009783Y0259116D01*
X0009633Y0259159D01*
X0009485Y0259206D01*
X0009337Y0259257D01*
X0009191Y0259312D01*
X0009047Y0259370D01*
X0008904Y0259432D01*
X0008762Y0259497D01*
X0008623Y0259567D01*
X0008485Y0259639D01*
X0008349Y0259716D01*
X0008215Y0259795D01*
X0008083Y0259878D01*
X0007953Y0259965D01*
X0007826Y0260054D01*
X0007701Y0260147D01*
X0007578Y0260243D01*
X0007458Y0260342D01*
X0007340Y0260445D01*
X0007225Y0260550D01*
X0007113Y0260658D01*
X0007003Y0260769D01*
X0006897Y0260882D01*
X0006793Y0260999D01*
X0006692Y0261118D01*
X0006595Y0261239D01*
X0006500Y0261363D01*
X0006409Y0261489D01*
X0006321Y0261618D01*
X0006236Y0261749D01*
X0006155Y0261882D01*
X0006077Y0262017D01*
X0006003Y0262154D01*
X0005932Y0262292D01*
X0005864Y0262433D01*
X0005800Y0262575D01*
X0005740Y0262719D01*
X0005684Y0262864D01*
X0005631Y0263011D01*
X0005582Y0263159D01*
X0005537Y0263308D01*
X0005496Y0263458D01*
X0005459Y0263610D01*
X0005425Y0263762D01*
X0005395Y0263915D01*
X0005370Y0264069D01*
X0005348Y0264223D01*
X0005330Y0264378D01*
X0005316Y0264533D01*
X0005306Y0264688D01*
X0005300Y0264844D01*
X0005298Y0265000D01*
X0305298Y0265000D02*
X0305300Y0265156D01*
X0305306Y0265312D01*
X0305316Y0265467D01*
X0305330Y0265622D01*
X0305348Y0265777D01*
X0305370Y0265931D01*
X0305395Y0266085D01*
X0305425Y0266238D01*
X0305459Y0266390D01*
X0305496Y0266542D01*
X0305537Y0266692D01*
X0305582Y0266841D01*
X0305631Y0266989D01*
X0305684Y0267136D01*
X0305740Y0267281D01*
X0305800Y0267425D01*
X0305864Y0267567D01*
X0305932Y0267708D01*
X0306003Y0267846D01*
X0306077Y0267983D01*
X0306155Y0268118D01*
X0306236Y0268251D01*
X0306321Y0268382D01*
X0306409Y0268511D01*
X0306500Y0268637D01*
X0306595Y0268761D01*
X0306692Y0268882D01*
X0306793Y0269001D01*
X0306897Y0269118D01*
X0307003Y0269231D01*
X0307113Y0269342D01*
X0307225Y0269450D01*
X0307340Y0269555D01*
X0307458Y0269658D01*
X0307578Y0269757D01*
X0307701Y0269853D01*
X0307826Y0269946D01*
X0307953Y0270035D01*
X0308083Y0270122D01*
X0308215Y0270205D01*
X0308349Y0270284D01*
X0308485Y0270361D01*
X0308623Y0270433D01*
X0308762Y0270503D01*
X0308904Y0270568D01*
X0309047Y0270630D01*
X0309191Y0270688D01*
X0309337Y0270743D01*
X0309485Y0270794D01*
X0309633Y0270841D01*
X0309783Y0270884D01*
X0309934Y0270923D01*
X0310086Y0270959D01*
X0310238Y0270990D01*
X0310392Y0271018D01*
X0310546Y0271042D01*
X0310700Y0271062D01*
X0310855Y0271078D01*
X0311011Y0271090D01*
X0311166Y0271098D01*
X0311322Y0271102D01*
X0311478Y0271102D01*
X0311634Y0271098D01*
X0311789Y0271090D01*
X0311945Y0271078D01*
X0312100Y0271062D01*
X0312254Y0271042D01*
X0312408Y0271018D01*
X0312562Y0270990D01*
X0312714Y0270959D01*
X0312866Y0270923D01*
X0313017Y0270884D01*
X0313167Y0270841D01*
X0313315Y0270794D01*
X0313463Y0270743D01*
X0313609Y0270688D01*
X0313753Y0270630D01*
X0313896Y0270568D01*
X0314038Y0270503D01*
X0314177Y0270433D01*
X0314315Y0270361D01*
X0314451Y0270284D01*
X0314585Y0270205D01*
X0314717Y0270122D01*
X0314847Y0270035D01*
X0314974Y0269946D01*
X0315099Y0269853D01*
X0315222Y0269757D01*
X0315342Y0269658D01*
X0315460Y0269555D01*
X0315575Y0269450D01*
X0315687Y0269342D01*
X0315797Y0269231D01*
X0315903Y0269118D01*
X0316007Y0269001D01*
X0316108Y0268882D01*
X0316205Y0268761D01*
X0316300Y0268637D01*
X0316391Y0268511D01*
X0316479Y0268382D01*
X0316564Y0268251D01*
X0316645Y0268118D01*
X0316723Y0267983D01*
X0316797Y0267846D01*
X0316868Y0267708D01*
X0316936Y0267567D01*
X0317000Y0267425D01*
X0317060Y0267281D01*
X0317116Y0267136D01*
X0317169Y0266989D01*
X0317218Y0266841D01*
X0317263Y0266692D01*
X0317304Y0266542D01*
X0317341Y0266390D01*
X0317375Y0266238D01*
X0317405Y0266085D01*
X0317430Y0265931D01*
X0317452Y0265777D01*
X0317470Y0265622D01*
X0317484Y0265467D01*
X0317494Y0265312D01*
X0317500Y0265156D01*
X0317502Y0265000D01*
X0317500Y0264844D01*
X0317494Y0264688D01*
X0317484Y0264533D01*
X0317470Y0264378D01*
X0317452Y0264223D01*
X0317430Y0264069D01*
X0317405Y0263915D01*
X0317375Y0263762D01*
X0317341Y0263610D01*
X0317304Y0263458D01*
X0317263Y0263308D01*
X0317218Y0263159D01*
X0317169Y0263011D01*
X0317116Y0262864D01*
X0317060Y0262719D01*
X0317000Y0262575D01*
X0316936Y0262433D01*
X0316868Y0262292D01*
X0316797Y0262154D01*
X0316723Y0262017D01*
X0316645Y0261882D01*
X0316564Y0261749D01*
X0316479Y0261618D01*
X0316391Y0261489D01*
X0316300Y0261363D01*
X0316205Y0261239D01*
X0316108Y0261118D01*
X0316007Y0260999D01*
X0315903Y0260882D01*
X0315797Y0260769D01*
X0315687Y0260658D01*
X0315575Y0260550D01*
X0315460Y0260445D01*
X0315342Y0260342D01*
X0315222Y0260243D01*
X0315099Y0260147D01*
X0314974Y0260054D01*
X0314847Y0259965D01*
X0314717Y0259878D01*
X0314585Y0259795D01*
X0314451Y0259716D01*
X0314315Y0259639D01*
X0314177Y0259567D01*
X0314038Y0259497D01*
X0313896Y0259432D01*
X0313753Y0259370D01*
X0313609Y0259312D01*
X0313463Y0259257D01*
X0313315Y0259206D01*
X0313167Y0259159D01*
X0313017Y0259116D01*
X0312866Y0259077D01*
X0312714Y0259041D01*
X0312562Y0259010D01*
X0312408Y0258982D01*
X0312254Y0258958D01*
X0312100Y0258938D01*
X0311945Y0258922D01*
X0311789Y0258910D01*
X0311634Y0258902D01*
X0311478Y0258898D01*
X0311322Y0258898D01*
X0311166Y0258902D01*
X0311011Y0258910D01*
X0310855Y0258922D01*
X0310700Y0258938D01*
X0310546Y0258958D01*
X0310392Y0258982D01*
X0310238Y0259010D01*
X0310086Y0259041D01*
X0309934Y0259077D01*
X0309783Y0259116D01*
X0309633Y0259159D01*
X0309485Y0259206D01*
X0309337Y0259257D01*
X0309191Y0259312D01*
X0309047Y0259370D01*
X0308904Y0259432D01*
X0308762Y0259497D01*
X0308623Y0259567D01*
X0308485Y0259639D01*
X0308349Y0259716D01*
X0308215Y0259795D01*
X0308083Y0259878D01*
X0307953Y0259965D01*
X0307826Y0260054D01*
X0307701Y0260147D01*
X0307578Y0260243D01*
X0307458Y0260342D01*
X0307340Y0260445D01*
X0307225Y0260550D01*
X0307113Y0260658D01*
X0307003Y0260769D01*
X0306897Y0260882D01*
X0306793Y0260999D01*
X0306692Y0261118D01*
X0306595Y0261239D01*
X0306500Y0261363D01*
X0306409Y0261489D01*
X0306321Y0261618D01*
X0306236Y0261749D01*
X0306155Y0261882D01*
X0306077Y0262017D01*
X0306003Y0262154D01*
X0305932Y0262292D01*
X0305864Y0262433D01*
X0305800Y0262575D01*
X0305740Y0262719D01*
X0305684Y0262864D01*
X0305631Y0263011D01*
X0305582Y0263159D01*
X0305537Y0263308D01*
X0305496Y0263458D01*
X0305459Y0263610D01*
X0305425Y0263762D01*
X0305395Y0263915D01*
X0305370Y0264069D01*
X0305348Y0264223D01*
X0305330Y0264378D01*
X0305316Y0264533D01*
X0305306Y0264688D01*
X0305300Y0264844D01*
X0305298Y0265000D01*
X0305298Y0015000D02*
X0305300Y0015156D01*
X0305306Y0015312D01*
X0305316Y0015467D01*
X0305330Y0015622D01*
X0305348Y0015777D01*
X0305370Y0015931D01*
X0305395Y0016085D01*
X0305425Y0016238D01*
X0305459Y0016390D01*
X0305496Y0016542D01*
X0305537Y0016692D01*
X0305582Y0016841D01*
X0305631Y0016989D01*
X0305684Y0017136D01*
X0305740Y0017281D01*
X0305800Y0017425D01*
X0305864Y0017567D01*
X0305932Y0017708D01*
X0306003Y0017846D01*
X0306077Y0017983D01*
X0306155Y0018118D01*
X0306236Y0018251D01*
X0306321Y0018382D01*
X0306409Y0018511D01*
X0306500Y0018637D01*
X0306595Y0018761D01*
X0306692Y0018882D01*
X0306793Y0019001D01*
X0306897Y0019118D01*
X0307003Y0019231D01*
X0307113Y0019342D01*
X0307225Y0019450D01*
X0307340Y0019555D01*
X0307458Y0019658D01*
X0307578Y0019757D01*
X0307701Y0019853D01*
X0307826Y0019946D01*
X0307953Y0020035D01*
X0308083Y0020122D01*
X0308215Y0020205D01*
X0308349Y0020284D01*
X0308485Y0020361D01*
X0308623Y0020433D01*
X0308762Y0020503D01*
X0308904Y0020568D01*
X0309047Y0020630D01*
X0309191Y0020688D01*
X0309337Y0020743D01*
X0309485Y0020794D01*
X0309633Y0020841D01*
X0309783Y0020884D01*
X0309934Y0020923D01*
X0310086Y0020959D01*
X0310238Y0020990D01*
X0310392Y0021018D01*
X0310546Y0021042D01*
X0310700Y0021062D01*
X0310855Y0021078D01*
X0311011Y0021090D01*
X0311166Y0021098D01*
X0311322Y0021102D01*
X0311478Y0021102D01*
X0311634Y0021098D01*
X0311789Y0021090D01*
X0311945Y0021078D01*
X0312100Y0021062D01*
X0312254Y0021042D01*
X0312408Y0021018D01*
X0312562Y0020990D01*
X0312714Y0020959D01*
X0312866Y0020923D01*
X0313017Y0020884D01*
X0313167Y0020841D01*
X0313315Y0020794D01*
X0313463Y0020743D01*
X0313609Y0020688D01*
X0313753Y0020630D01*
X0313896Y0020568D01*
X0314038Y0020503D01*
X0314177Y0020433D01*
X0314315Y0020361D01*
X0314451Y0020284D01*
X0314585Y0020205D01*
X0314717Y0020122D01*
X0314847Y0020035D01*
X0314974Y0019946D01*
X0315099Y0019853D01*
X0315222Y0019757D01*
X0315342Y0019658D01*
X0315460Y0019555D01*
X0315575Y0019450D01*
X0315687Y0019342D01*
X0315797Y0019231D01*
X0315903Y0019118D01*
X0316007Y0019001D01*
X0316108Y0018882D01*
X0316205Y0018761D01*
X0316300Y0018637D01*
X0316391Y0018511D01*
X0316479Y0018382D01*
X0316564Y0018251D01*
X0316645Y0018118D01*
X0316723Y0017983D01*
X0316797Y0017846D01*
X0316868Y0017708D01*
X0316936Y0017567D01*
X0317000Y0017425D01*
X0317060Y0017281D01*
X0317116Y0017136D01*
X0317169Y0016989D01*
X0317218Y0016841D01*
X0317263Y0016692D01*
X0317304Y0016542D01*
X0317341Y0016390D01*
X0317375Y0016238D01*
X0317405Y0016085D01*
X0317430Y0015931D01*
X0317452Y0015777D01*
X0317470Y0015622D01*
X0317484Y0015467D01*
X0317494Y0015312D01*
X0317500Y0015156D01*
X0317502Y0015000D01*
X0317500Y0014844D01*
X0317494Y0014688D01*
X0317484Y0014533D01*
X0317470Y0014378D01*
X0317452Y0014223D01*
X0317430Y0014069D01*
X0317405Y0013915D01*
X0317375Y0013762D01*
X0317341Y0013610D01*
X0317304Y0013458D01*
X0317263Y0013308D01*
X0317218Y0013159D01*
X0317169Y0013011D01*
X0317116Y0012864D01*
X0317060Y0012719D01*
X0317000Y0012575D01*
X0316936Y0012433D01*
X0316868Y0012292D01*
X0316797Y0012154D01*
X0316723Y0012017D01*
X0316645Y0011882D01*
X0316564Y0011749D01*
X0316479Y0011618D01*
X0316391Y0011489D01*
X0316300Y0011363D01*
X0316205Y0011239D01*
X0316108Y0011118D01*
X0316007Y0010999D01*
X0315903Y0010882D01*
X0315797Y0010769D01*
X0315687Y0010658D01*
X0315575Y0010550D01*
X0315460Y0010445D01*
X0315342Y0010342D01*
X0315222Y0010243D01*
X0315099Y0010147D01*
X0314974Y0010054D01*
X0314847Y0009965D01*
X0314717Y0009878D01*
X0314585Y0009795D01*
X0314451Y0009716D01*
X0314315Y0009639D01*
X0314177Y0009567D01*
X0314038Y0009497D01*
X0313896Y0009432D01*
X0313753Y0009370D01*
X0313609Y0009312D01*
X0313463Y0009257D01*
X0313315Y0009206D01*
X0313167Y0009159D01*
X0313017Y0009116D01*
X0312866Y0009077D01*
X0312714Y0009041D01*
X0312562Y0009010D01*
X0312408Y0008982D01*
X0312254Y0008958D01*
X0312100Y0008938D01*
X0311945Y0008922D01*
X0311789Y0008910D01*
X0311634Y0008902D01*
X0311478Y0008898D01*
X0311322Y0008898D01*
X0311166Y0008902D01*
X0311011Y0008910D01*
X0310855Y0008922D01*
X0310700Y0008938D01*
X0310546Y0008958D01*
X0310392Y0008982D01*
X0310238Y0009010D01*
X0310086Y0009041D01*
X0309934Y0009077D01*
X0309783Y0009116D01*
X0309633Y0009159D01*
X0309485Y0009206D01*
X0309337Y0009257D01*
X0309191Y0009312D01*
X0309047Y0009370D01*
X0308904Y0009432D01*
X0308762Y0009497D01*
X0308623Y0009567D01*
X0308485Y0009639D01*
X0308349Y0009716D01*
X0308215Y0009795D01*
X0308083Y0009878D01*
X0307953Y0009965D01*
X0307826Y0010054D01*
X0307701Y0010147D01*
X0307578Y0010243D01*
X0307458Y0010342D01*
X0307340Y0010445D01*
X0307225Y0010550D01*
X0307113Y0010658D01*
X0307003Y0010769D01*
X0306897Y0010882D01*
X0306793Y0010999D01*
X0306692Y0011118D01*
X0306595Y0011239D01*
X0306500Y0011363D01*
X0306409Y0011489D01*
X0306321Y0011618D01*
X0306236Y0011749D01*
X0306155Y0011882D01*
X0306077Y0012017D01*
X0306003Y0012154D01*
X0305932Y0012292D01*
X0305864Y0012433D01*
X0305800Y0012575D01*
X0305740Y0012719D01*
X0305684Y0012864D01*
X0305631Y0013011D01*
X0305582Y0013159D01*
X0305537Y0013308D01*
X0305496Y0013458D01*
X0305459Y0013610D01*
X0305425Y0013762D01*
X0305395Y0013915D01*
X0305370Y0014069D01*
X0305348Y0014223D01*
X0305330Y0014378D01*
X0305316Y0014533D01*
X0305306Y0014688D01*
X0305300Y0014844D01*
X0305298Y0015000D01*
D11*
X0293132Y0017205D02*
X0292935Y0017205D01*
X0293132Y0017205D02*
X0259668Y0017205D01*
X0259668Y0030630D01*
X0259668Y0038071D02*
X0259668Y0055000D01*
X0275416Y0058937D02*
X0293132Y0058937D01*
X0293132Y0017205D01*
X0293335Y0065400D02*
X0296404Y0065400D01*
X0297939Y0066935D01*
X0297939Y0070004D01*
X0294869Y0070004D01*
X0291800Y0073073D02*
X0291800Y0066935D01*
X0293335Y0065400D01*
X0301008Y0065400D02*
X0301008Y0074608D01*
X0307146Y0065400D01*
X0307146Y0074608D01*
X0310216Y0074608D02*
X0314820Y0074608D01*
X0316354Y0073073D01*
X0316354Y0066935D01*
X0314820Y0065400D01*
X0310216Y0065400D01*
X0310216Y0074608D01*
X0297939Y0073073D02*
X0296404Y0074608D01*
X0293335Y0074608D01*
X0291800Y0073073D01*
X0269740Y0084344D02*
X0260532Y0084344D01*
X0260532Y0088948D01*
X0262067Y0090483D01*
X0265136Y0090483D01*
X0266671Y0088948D01*
X0266671Y0084344D01*
X0269740Y0093552D02*
X0260532Y0093552D01*
X0266671Y0096621D02*
X0269740Y0099691D01*
X0260532Y0099691D01*
X0260532Y0102760D02*
X0260532Y0107364D01*
X0262067Y0108898D01*
X0265136Y0108898D01*
X0266671Y0107364D01*
X0266671Y0102760D01*
X0266671Y0105829D02*
X0269740Y0108898D01*
X0269740Y0102760D02*
X0260532Y0102760D01*
X0266671Y0096621D02*
X0269740Y0093552D01*
X0294869Y0120400D02*
X0297939Y0123469D01*
X0297939Y0129608D01*
X0301008Y0128073D02*
X0301008Y0121935D01*
X0302542Y0120400D01*
X0305612Y0120400D01*
X0307146Y0121935D01*
X0310216Y0121935D02*
X0311750Y0120400D01*
X0314820Y0120400D01*
X0316354Y0121935D01*
X0316354Y0128073D02*
X0314820Y0129608D01*
X0311750Y0129608D01*
X0310216Y0128073D01*
X0310216Y0121935D01*
X0307146Y0128073D02*
X0305612Y0129608D01*
X0302542Y0129608D01*
X0301008Y0128073D01*
X0291800Y0129608D02*
X0291800Y0123469D01*
X0294869Y0120400D01*
X0269740Y0143876D02*
X0269740Y0148480D01*
X0268206Y0150015D01*
X0262067Y0150015D01*
X0260532Y0148480D01*
X0260532Y0143876D01*
X0269740Y0143876D01*
X0269740Y0153084D02*
X0260532Y0153084D01*
X0263602Y0156154D01*
X0260532Y0159223D01*
X0269740Y0159223D01*
X0269740Y0162292D02*
X0260532Y0168431D01*
X0260532Y0162292D02*
X0269740Y0168431D01*
X0271275Y0171500D02*
X0271275Y0177639D01*
X0269740Y0180708D02*
X0269740Y0186846D01*
X0269740Y0183777D02*
X0260532Y0183777D01*
X0263602Y0180708D01*
X0260532Y0197932D02*
X0260532Y0202535D01*
X0262067Y0204070D01*
X0268206Y0204070D01*
X0269740Y0202535D01*
X0269740Y0197932D01*
X0260532Y0197932D01*
X0260532Y0207139D02*
X0263602Y0210209D01*
X0260532Y0213278D01*
X0269740Y0213278D01*
X0269740Y0216347D02*
X0260532Y0222486D01*
X0260532Y0216347D02*
X0269740Y0222486D01*
X0271275Y0225555D02*
X0271275Y0231694D01*
X0269740Y0234763D02*
X0263602Y0240902D01*
X0262067Y0240902D01*
X0260532Y0239367D01*
X0260532Y0236298D01*
X0262067Y0234763D01*
X0269740Y0234763D02*
X0269740Y0240902D01*
X0269740Y0207139D02*
X0260532Y0207139D01*
X0141400Y0150000D02*
X0141400Y0080000D01*
X0001400Y0080000D01*
X0001400Y0110000D01*
X0006400Y0110000D01*
X0006400Y0120000D01*
X0001400Y0120000D01*
X0001400Y0150000D01*
X0141400Y0150000D01*
X0047260Y0231037D02*
X0047260Y0237176D01*
X0047260Y0240245D02*
X0047260Y0246383D01*
X0047260Y0249453D02*
X0047260Y0254057D01*
X0045725Y0255591D01*
X0039587Y0255591D01*
X0038052Y0254057D01*
X0038052Y0249453D01*
X0047260Y0249453D01*
X0042656Y0243314D02*
X0042656Y0240245D01*
X0038052Y0240245D02*
X0047260Y0240245D01*
X0038052Y0240245D02*
X0038052Y0246383D01*
X0038052Y0231037D02*
X0047260Y0231037D01*
D12*
X0036400Y0196500D02*
X0036400Y0189000D01*
X0036526Y0188998D01*
X0036651Y0188992D01*
X0036776Y0188982D01*
X0036901Y0188968D01*
X0037026Y0188951D01*
X0037150Y0188929D01*
X0037273Y0188904D01*
X0037395Y0188874D01*
X0037516Y0188841D01*
X0037636Y0188804D01*
X0037755Y0188764D01*
X0037872Y0188719D01*
X0037989Y0188671D01*
X0038103Y0188619D01*
X0038216Y0188564D01*
X0038327Y0188505D01*
X0038436Y0188443D01*
X0038543Y0188377D01*
X0038648Y0188308D01*
X0038751Y0188236D01*
X0038852Y0188161D01*
X0038950Y0188082D01*
X0039045Y0188000D01*
X0039138Y0187916D01*
X0039228Y0187828D01*
X0039316Y0187738D01*
X0039400Y0187645D01*
X0039482Y0187550D01*
X0039561Y0187452D01*
X0039636Y0187351D01*
X0039708Y0187248D01*
X0039777Y0187143D01*
X0039843Y0187036D01*
X0039905Y0186927D01*
X0039964Y0186816D01*
X0040019Y0186703D01*
X0040071Y0186589D01*
X0040119Y0186472D01*
X0040164Y0186355D01*
X0040204Y0186236D01*
X0040241Y0186116D01*
X0040274Y0185995D01*
X0040304Y0185873D01*
X0040329Y0185750D01*
X0040351Y0185626D01*
X0040368Y0185501D01*
X0040382Y0185376D01*
X0040392Y0185251D01*
X0040398Y0185126D01*
X0040400Y0185000D01*
X0040398Y0184874D01*
X0040392Y0184749D01*
X0040382Y0184624D01*
X0040368Y0184499D01*
X0040351Y0184374D01*
X0040329Y0184250D01*
X0040304Y0184127D01*
X0040274Y0184005D01*
X0040241Y0183884D01*
X0040204Y0183764D01*
X0040164Y0183645D01*
X0040119Y0183528D01*
X0040071Y0183411D01*
X0040019Y0183297D01*
X0039964Y0183184D01*
X0039905Y0183073D01*
X0039843Y0182964D01*
X0039777Y0182857D01*
X0039708Y0182752D01*
X0039636Y0182649D01*
X0039561Y0182548D01*
X0039482Y0182450D01*
X0039400Y0182355D01*
X0039316Y0182262D01*
X0039228Y0182172D01*
X0039138Y0182084D01*
X0039045Y0182000D01*
X0038950Y0181918D01*
X0038852Y0181839D01*
X0038751Y0181764D01*
X0038648Y0181692D01*
X0038543Y0181623D01*
X0038436Y0181557D01*
X0038327Y0181495D01*
X0038216Y0181436D01*
X0038103Y0181381D01*
X0037989Y0181329D01*
X0037872Y0181281D01*
X0037755Y0181236D01*
X0037636Y0181196D01*
X0037516Y0181159D01*
X0037395Y0181126D01*
X0037273Y0181096D01*
X0037150Y0181071D01*
X0037026Y0181049D01*
X0036901Y0181032D01*
X0036776Y0181018D01*
X0036651Y0181008D01*
X0036526Y0181002D01*
X0036400Y0181000D01*
X0036400Y0173500D01*
X0136400Y0173500D01*
X0136400Y0196500D01*
X0036400Y0196500D01*
X0027400Y0193500D02*
X0027400Y0176500D01*
X0027398Y0176440D01*
X0027393Y0176379D01*
X0027384Y0176320D01*
X0027371Y0176261D01*
X0027355Y0176202D01*
X0027335Y0176145D01*
X0027312Y0176090D01*
X0027285Y0176035D01*
X0027256Y0175983D01*
X0027223Y0175932D01*
X0027187Y0175883D01*
X0027149Y0175837D01*
X0027107Y0175793D01*
X0027063Y0175751D01*
X0027017Y0175713D01*
X0026968Y0175677D01*
X0026917Y0175644D01*
X0026865Y0175615D01*
X0026810Y0175588D01*
X0026755Y0175565D01*
X0026698Y0175545D01*
X0026639Y0175529D01*
X0026580Y0175516D01*
X0026521Y0175507D01*
X0026460Y0175502D01*
X0026400Y0175500D01*
X0016400Y0175500D01*
X0016340Y0175502D01*
X0016279Y0175507D01*
X0016220Y0175516D01*
X0016161Y0175529D01*
X0016102Y0175545D01*
X0016045Y0175565D01*
X0015990Y0175588D01*
X0015935Y0175615D01*
X0015883Y0175644D01*
X0015832Y0175677D01*
X0015783Y0175713D01*
X0015737Y0175751D01*
X0015693Y0175793D01*
X0015651Y0175837D01*
X0015613Y0175883D01*
X0015577Y0175932D01*
X0015544Y0175983D01*
X0015515Y0176035D01*
X0015488Y0176090D01*
X0015465Y0176145D01*
X0015445Y0176202D01*
X0015429Y0176261D01*
X0015416Y0176320D01*
X0015407Y0176379D01*
X0015402Y0176440D01*
X0015400Y0176500D01*
X0015400Y0193500D01*
X0015402Y0193560D01*
X0015407Y0193621D01*
X0015416Y0193680D01*
X0015429Y0193739D01*
X0015445Y0193798D01*
X0015465Y0193855D01*
X0015488Y0193910D01*
X0015515Y0193965D01*
X0015544Y0194017D01*
X0015577Y0194068D01*
X0015613Y0194117D01*
X0015651Y0194163D01*
X0015693Y0194207D01*
X0015737Y0194249D01*
X0015783Y0194287D01*
X0015832Y0194323D01*
X0015883Y0194356D01*
X0015935Y0194385D01*
X0015990Y0194412D01*
X0016045Y0194435D01*
X0016102Y0194455D01*
X0016161Y0194471D01*
X0016220Y0194484D01*
X0016279Y0194493D01*
X0016340Y0194498D01*
X0016400Y0194500D01*
X0026400Y0194500D01*
X0026460Y0194498D01*
X0026521Y0194493D01*
X0026580Y0194484D01*
X0026639Y0194471D01*
X0026698Y0194455D01*
X0026755Y0194435D01*
X0026810Y0194412D01*
X0026865Y0194385D01*
X0026917Y0194356D01*
X0026968Y0194323D01*
X0027017Y0194287D01*
X0027063Y0194249D01*
X0027107Y0194207D01*
X0027149Y0194163D01*
X0027187Y0194117D01*
X0027223Y0194068D01*
X0027256Y0194017D01*
X0027285Y0193965D01*
X0027312Y0193910D01*
X0027335Y0193855D01*
X0027355Y0193798D01*
X0027371Y0193739D01*
X0027384Y0193680D01*
X0027393Y0193621D01*
X0027398Y0193560D01*
X0027400Y0193500D01*
X0021400Y0186500D02*
X0021400Y0186000D01*
X0021400Y0184000D02*
X0021400Y0183500D01*
X0171900Y0166500D02*
X0171900Y0165000D01*
X0172400Y0164500D01*
X0172400Y0145500D01*
X0171900Y0145000D01*
X0171900Y0143500D01*
X0171902Y0143440D01*
X0171907Y0143379D01*
X0171916Y0143320D01*
X0171929Y0143261D01*
X0171945Y0143202D01*
X0171965Y0143145D01*
X0171988Y0143090D01*
X0172015Y0143035D01*
X0172044Y0142983D01*
X0172077Y0142932D01*
X0172113Y0142883D01*
X0172151Y0142837D01*
X0172193Y0142793D01*
X0172237Y0142751D01*
X0172283Y0142713D01*
X0172332Y0142677D01*
X0172383Y0142644D01*
X0172435Y0142615D01*
X0172490Y0142588D01*
X0172545Y0142565D01*
X0172602Y0142545D01*
X0172661Y0142529D01*
X0172720Y0142516D01*
X0172779Y0142507D01*
X0172840Y0142502D01*
X0172900Y0142500D01*
X0179900Y0142500D01*
X0179960Y0142502D01*
X0180021Y0142507D01*
X0180080Y0142516D01*
X0180139Y0142529D01*
X0180198Y0142545D01*
X0180255Y0142565D01*
X0180310Y0142588D01*
X0180365Y0142615D01*
X0180417Y0142644D01*
X0180468Y0142677D01*
X0180517Y0142713D01*
X0180563Y0142751D01*
X0180607Y0142793D01*
X0180649Y0142837D01*
X0180687Y0142883D01*
X0180723Y0142932D01*
X0180756Y0142983D01*
X0180785Y0143035D01*
X0180812Y0143090D01*
X0180835Y0143145D01*
X0180855Y0143202D01*
X0180871Y0143261D01*
X0180884Y0143320D01*
X0180893Y0143379D01*
X0180898Y0143440D01*
X0180900Y0143500D01*
X0180900Y0145000D01*
X0180400Y0145500D01*
X0180400Y0164500D01*
X0180900Y0165000D01*
X0180900Y0166500D01*
X0180898Y0166560D01*
X0180893Y0166621D01*
X0180884Y0166680D01*
X0180871Y0166739D01*
X0180855Y0166798D01*
X0180835Y0166855D01*
X0180812Y0166910D01*
X0180785Y0166965D01*
X0180756Y0167017D01*
X0180723Y0167068D01*
X0180687Y0167117D01*
X0180649Y0167163D01*
X0180607Y0167207D01*
X0180563Y0167249D01*
X0180517Y0167287D01*
X0180468Y0167323D01*
X0180417Y0167356D01*
X0180365Y0167385D01*
X0180310Y0167412D01*
X0180255Y0167435D01*
X0180198Y0167455D01*
X0180139Y0167471D01*
X0180080Y0167484D01*
X0180021Y0167493D01*
X0179960Y0167498D01*
X0179900Y0167500D01*
X0172900Y0167500D01*
X0172840Y0167498D01*
X0172779Y0167493D01*
X0172720Y0167484D01*
X0172661Y0167471D01*
X0172602Y0167455D01*
X0172545Y0167435D01*
X0172490Y0167412D01*
X0172435Y0167385D01*
X0172383Y0167356D01*
X0172332Y0167323D01*
X0172283Y0167287D01*
X0172237Y0167249D01*
X0172193Y0167207D01*
X0172151Y0167163D01*
X0172113Y0167117D01*
X0172077Y0167068D01*
X0172044Y0167017D01*
X0172015Y0166965D01*
X0171988Y0166910D01*
X0171965Y0166855D01*
X0171945Y0166798D01*
X0171929Y0166739D01*
X0171916Y0166680D01*
X0171907Y0166621D01*
X0171902Y0166560D01*
X0171900Y0166500D01*
X0194900Y0180000D02*
X0202400Y0180000D01*
X0202402Y0179874D01*
X0202408Y0179749D01*
X0202418Y0179624D01*
X0202432Y0179499D01*
X0202449Y0179374D01*
X0202471Y0179250D01*
X0202496Y0179127D01*
X0202526Y0179005D01*
X0202559Y0178884D01*
X0202596Y0178764D01*
X0202636Y0178645D01*
X0202681Y0178528D01*
X0202729Y0178411D01*
X0202781Y0178297D01*
X0202836Y0178184D01*
X0202895Y0178073D01*
X0202957Y0177964D01*
X0203023Y0177857D01*
X0203092Y0177752D01*
X0203164Y0177649D01*
X0203239Y0177548D01*
X0203318Y0177450D01*
X0203400Y0177355D01*
X0203484Y0177262D01*
X0203572Y0177172D01*
X0203662Y0177084D01*
X0203755Y0177000D01*
X0203850Y0176918D01*
X0203948Y0176839D01*
X0204049Y0176764D01*
X0204152Y0176692D01*
X0204257Y0176623D01*
X0204364Y0176557D01*
X0204473Y0176495D01*
X0204584Y0176436D01*
X0204697Y0176381D01*
X0204811Y0176329D01*
X0204928Y0176281D01*
X0205045Y0176236D01*
X0205164Y0176196D01*
X0205284Y0176159D01*
X0205405Y0176126D01*
X0205527Y0176096D01*
X0205650Y0176071D01*
X0205774Y0176049D01*
X0205899Y0176032D01*
X0206024Y0176018D01*
X0206149Y0176008D01*
X0206274Y0176002D01*
X0206400Y0176000D01*
X0206526Y0176002D01*
X0206651Y0176008D01*
X0206776Y0176018D01*
X0206901Y0176032D01*
X0207026Y0176049D01*
X0207150Y0176071D01*
X0207273Y0176096D01*
X0207395Y0176126D01*
X0207516Y0176159D01*
X0207636Y0176196D01*
X0207755Y0176236D01*
X0207872Y0176281D01*
X0207989Y0176329D01*
X0208103Y0176381D01*
X0208216Y0176436D01*
X0208327Y0176495D01*
X0208436Y0176557D01*
X0208543Y0176623D01*
X0208648Y0176692D01*
X0208751Y0176764D01*
X0208852Y0176839D01*
X0208950Y0176918D01*
X0209045Y0177000D01*
X0209138Y0177084D01*
X0209228Y0177172D01*
X0209316Y0177262D01*
X0209400Y0177355D01*
X0209482Y0177450D01*
X0209561Y0177548D01*
X0209636Y0177649D01*
X0209708Y0177752D01*
X0209777Y0177857D01*
X0209843Y0177964D01*
X0209905Y0178073D01*
X0209964Y0178184D01*
X0210019Y0178297D01*
X0210071Y0178411D01*
X0210119Y0178528D01*
X0210164Y0178645D01*
X0210204Y0178764D01*
X0210241Y0178884D01*
X0210274Y0179005D01*
X0210304Y0179127D01*
X0210329Y0179250D01*
X0210351Y0179374D01*
X0210368Y0179499D01*
X0210382Y0179624D01*
X0210392Y0179749D01*
X0210398Y0179874D01*
X0210400Y0180000D01*
X0217900Y0180000D01*
X0217900Y0140000D01*
X0194900Y0140000D01*
X0194900Y0180000D01*
X0197900Y0189000D02*
X0214900Y0189000D01*
X0214960Y0189002D01*
X0215021Y0189007D01*
X0215080Y0189016D01*
X0215139Y0189029D01*
X0215198Y0189045D01*
X0215255Y0189065D01*
X0215310Y0189088D01*
X0215365Y0189115D01*
X0215417Y0189144D01*
X0215468Y0189177D01*
X0215517Y0189213D01*
X0215563Y0189251D01*
X0215607Y0189293D01*
X0215649Y0189337D01*
X0215687Y0189383D01*
X0215723Y0189432D01*
X0215756Y0189483D01*
X0215785Y0189535D01*
X0215812Y0189590D01*
X0215835Y0189645D01*
X0215855Y0189702D01*
X0215871Y0189761D01*
X0215884Y0189820D01*
X0215893Y0189879D01*
X0215898Y0189940D01*
X0215900Y0190000D01*
X0215900Y0200000D01*
X0215898Y0200060D01*
X0215893Y0200121D01*
X0215884Y0200180D01*
X0215871Y0200239D01*
X0215855Y0200298D01*
X0215835Y0200355D01*
X0215812Y0200410D01*
X0215785Y0200465D01*
X0215756Y0200517D01*
X0215723Y0200568D01*
X0215687Y0200617D01*
X0215649Y0200663D01*
X0215607Y0200707D01*
X0215563Y0200749D01*
X0215517Y0200787D01*
X0215468Y0200823D01*
X0215417Y0200856D01*
X0215365Y0200885D01*
X0215310Y0200912D01*
X0215255Y0200935D01*
X0215198Y0200955D01*
X0215139Y0200971D01*
X0215080Y0200984D01*
X0215021Y0200993D01*
X0214960Y0200998D01*
X0214900Y0201000D01*
X0197900Y0201000D01*
X0197840Y0200998D01*
X0197779Y0200993D01*
X0197720Y0200984D01*
X0197661Y0200971D01*
X0197602Y0200955D01*
X0197545Y0200935D01*
X0197490Y0200912D01*
X0197435Y0200885D01*
X0197383Y0200856D01*
X0197332Y0200823D01*
X0197283Y0200787D01*
X0197237Y0200749D01*
X0197193Y0200707D01*
X0197151Y0200663D01*
X0197113Y0200617D01*
X0197077Y0200568D01*
X0197044Y0200517D01*
X0197015Y0200465D01*
X0196988Y0200410D01*
X0196965Y0200355D01*
X0196945Y0200298D01*
X0196929Y0200239D01*
X0196916Y0200180D01*
X0196907Y0200121D01*
X0196902Y0200060D01*
X0196900Y0200000D01*
X0196900Y0190000D01*
X0196902Y0189940D01*
X0196907Y0189879D01*
X0196916Y0189820D01*
X0196929Y0189761D01*
X0196945Y0189702D01*
X0196965Y0189645D01*
X0196988Y0189590D01*
X0197015Y0189535D01*
X0197044Y0189483D01*
X0197077Y0189432D01*
X0197113Y0189383D01*
X0197151Y0189337D01*
X0197193Y0189293D01*
X0197237Y0189251D01*
X0197283Y0189213D01*
X0197332Y0189177D01*
X0197383Y0189144D01*
X0197435Y0189115D01*
X0197490Y0189088D01*
X0197545Y0189065D01*
X0197602Y0189045D01*
X0197661Y0189029D01*
X0197720Y0189016D01*
X0197779Y0189007D01*
X0197840Y0189002D01*
X0197900Y0189000D01*
X0204900Y0195000D02*
X0205400Y0195000D01*
X0207400Y0195000D02*
X0207900Y0195000D01*
X0236900Y0191500D02*
X0236900Y0190000D01*
X0237400Y0189500D01*
X0237400Y0170500D01*
X0236900Y0170000D01*
X0236900Y0168500D01*
X0236902Y0168440D01*
X0236907Y0168379D01*
X0236916Y0168320D01*
X0236929Y0168261D01*
X0236945Y0168202D01*
X0236965Y0168145D01*
X0236988Y0168090D01*
X0237015Y0168035D01*
X0237044Y0167983D01*
X0237077Y0167932D01*
X0237113Y0167883D01*
X0237151Y0167837D01*
X0237193Y0167793D01*
X0237237Y0167751D01*
X0237283Y0167713D01*
X0237332Y0167677D01*
X0237383Y0167644D01*
X0237435Y0167615D01*
X0237490Y0167588D01*
X0237545Y0167565D01*
X0237602Y0167545D01*
X0237661Y0167529D01*
X0237720Y0167516D01*
X0237779Y0167507D01*
X0237840Y0167502D01*
X0237900Y0167500D01*
X0244900Y0167500D02*
X0244960Y0167502D01*
X0245021Y0167507D01*
X0245080Y0167516D01*
X0245139Y0167529D01*
X0245198Y0167545D01*
X0245255Y0167565D01*
X0245310Y0167588D01*
X0245365Y0167615D01*
X0245417Y0167644D01*
X0245468Y0167677D01*
X0245517Y0167713D01*
X0245563Y0167751D01*
X0245607Y0167793D01*
X0245649Y0167837D01*
X0245687Y0167883D01*
X0245723Y0167932D01*
X0245756Y0167983D01*
X0245785Y0168035D01*
X0245812Y0168090D01*
X0245835Y0168145D01*
X0245855Y0168202D01*
X0245871Y0168261D01*
X0245884Y0168320D01*
X0245893Y0168379D01*
X0245898Y0168440D01*
X0245900Y0168500D01*
X0245900Y0170000D01*
X0245400Y0170500D01*
X0245400Y0189500D01*
X0245900Y0190000D01*
X0245900Y0191500D01*
X0245898Y0191560D01*
X0245893Y0191621D01*
X0245884Y0191680D01*
X0245871Y0191739D01*
X0245855Y0191798D01*
X0245835Y0191855D01*
X0245812Y0191910D01*
X0245785Y0191965D01*
X0245756Y0192017D01*
X0245723Y0192068D01*
X0245687Y0192117D01*
X0245649Y0192163D01*
X0245607Y0192207D01*
X0245563Y0192249D01*
X0245517Y0192287D01*
X0245468Y0192323D01*
X0245417Y0192356D01*
X0245365Y0192385D01*
X0245310Y0192412D01*
X0245255Y0192435D01*
X0245198Y0192455D01*
X0245139Y0192471D01*
X0245080Y0192484D01*
X0245021Y0192493D01*
X0244960Y0192498D01*
X0244900Y0192500D01*
X0246900Y0198500D02*
X0246900Y0200000D01*
X0247400Y0200500D01*
X0247400Y0219500D01*
X0246900Y0220000D01*
X0246900Y0221500D01*
X0246902Y0221560D01*
X0246907Y0221621D01*
X0246916Y0221680D01*
X0246929Y0221739D01*
X0246945Y0221798D01*
X0246965Y0221855D01*
X0246988Y0221910D01*
X0247015Y0221965D01*
X0247044Y0222017D01*
X0247077Y0222068D01*
X0247113Y0222117D01*
X0247151Y0222163D01*
X0247193Y0222207D01*
X0247237Y0222249D01*
X0247283Y0222287D01*
X0247332Y0222323D01*
X0247383Y0222356D01*
X0247435Y0222385D01*
X0247490Y0222412D01*
X0247545Y0222435D01*
X0247602Y0222455D01*
X0247661Y0222471D01*
X0247720Y0222484D01*
X0247779Y0222493D01*
X0247840Y0222498D01*
X0247900Y0222500D01*
X0254900Y0222500D02*
X0254960Y0222498D01*
X0255021Y0222493D01*
X0255080Y0222484D01*
X0255139Y0222471D01*
X0255198Y0222455D01*
X0255255Y0222435D01*
X0255310Y0222412D01*
X0255365Y0222385D01*
X0255417Y0222356D01*
X0255468Y0222323D01*
X0255517Y0222287D01*
X0255563Y0222249D01*
X0255607Y0222207D01*
X0255649Y0222163D01*
X0255687Y0222117D01*
X0255723Y0222068D01*
X0255756Y0222017D01*
X0255785Y0221965D01*
X0255812Y0221910D01*
X0255835Y0221855D01*
X0255855Y0221798D01*
X0255871Y0221739D01*
X0255884Y0221680D01*
X0255893Y0221621D01*
X0255898Y0221560D01*
X0255900Y0221500D01*
X0255900Y0220000D01*
X0255400Y0219500D01*
X0255400Y0200500D01*
X0255900Y0200000D01*
X0255900Y0198500D01*
X0255898Y0198440D01*
X0255893Y0198379D01*
X0255884Y0198320D01*
X0255871Y0198261D01*
X0255855Y0198202D01*
X0255835Y0198145D01*
X0255812Y0198090D01*
X0255785Y0198035D01*
X0255756Y0197983D01*
X0255723Y0197932D01*
X0255687Y0197883D01*
X0255649Y0197837D01*
X0255607Y0197793D01*
X0255563Y0197751D01*
X0255517Y0197713D01*
X0255468Y0197677D01*
X0255417Y0197644D01*
X0255365Y0197615D01*
X0255310Y0197588D01*
X0255255Y0197565D01*
X0255198Y0197545D01*
X0255139Y0197529D01*
X0255080Y0197516D01*
X0255021Y0197507D01*
X0254960Y0197502D01*
X0254900Y0197500D01*
X0247900Y0197500D02*
X0247840Y0197502D01*
X0247779Y0197507D01*
X0247720Y0197516D01*
X0247661Y0197529D01*
X0247602Y0197545D01*
X0247545Y0197565D01*
X0247490Y0197588D01*
X0247435Y0197615D01*
X0247383Y0197644D01*
X0247332Y0197677D01*
X0247283Y0197713D01*
X0247237Y0197751D01*
X0247193Y0197793D01*
X0247151Y0197837D01*
X0247113Y0197883D01*
X0247077Y0197932D01*
X0247044Y0197983D01*
X0247015Y0198035D01*
X0246988Y0198090D01*
X0246965Y0198145D01*
X0246945Y0198202D01*
X0246929Y0198261D01*
X0246916Y0198320D01*
X0246907Y0198379D01*
X0246902Y0198440D01*
X0246900Y0198500D01*
X0237900Y0192500D02*
X0237840Y0192498D01*
X0237779Y0192493D01*
X0237720Y0192484D01*
X0237661Y0192471D01*
X0237602Y0192455D01*
X0237545Y0192435D01*
X0237490Y0192412D01*
X0237435Y0192385D01*
X0237383Y0192356D01*
X0237332Y0192323D01*
X0237283Y0192287D01*
X0237237Y0192249D01*
X0237193Y0192207D01*
X0237151Y0192163D01*
X0237113Y0192117D01*
X0237077Y0192068D01*
X0237044Y0192017D01*
X0237015Y0191965D01*
X0236988Y0191910D01*
X0236965Y0191855D01*
X0236945Y0191798D01*
X0236929Y0191739D01*
X0236916Y0191680D01*
X0236907Y0191621D01*
X0236902Y0191560D01*
X0236900Y0191500D01*
X0246900Y0161500D02*
X0246900Y0160000D01*
X0247400Y0159500D01*
X0247400Y0140500D01*
X0246900Y0140000D01*
X0246900Y0138500D01*
X0246902Y0138440D01*
X0246907Y0138379D01*
X0246916Y0138320D01*
X0246929Y0138261D01*
X0246945Y0138202D01*
X0246965Y0138145D01*
X0246988Y0138090D01*
X0247015Y0138035D01*
X0247044Y0137983D01*
X0247077Y0137932D01*
X0247113Y0137883D01*
X0247151Y0137837D01*
X0247193Y0137793D01*
X0247237Y0137751D01*
X0247283Y0137713D01*
X0247332Y0137677D01*
X0247383Y0137644D01*
X0247435Y0137615D01*
X0247490Y0137588D01*
X0247545Y0137565D01*
X0247602Y0137545D01*
X0247661Y0137529D01*
X0247720Y0137516D01*
X0247779Y0137507D01*
X0247840Y0137502D01*
X0247900Y0137500D01*
X0254900Y0137500D02*
X0254960Y0137502D01*
X0255021Y0137507D01*
X0255080Y0137516D01*
X0255139Y0137529D01*
X0255198Y0137545D01*
X0255255Y0137565D01*
X0255310Y0137588D01*
X0255365Y0137615D01*
X0255417Y0137644D01*
X0255468Y0137677D01*
X0255517Y0137713D01*
X0255563Y0137751D01*
X0255607Y0137793D01*
X0255649Y0137837D01*
X0255687Y0137883D01*
X0255723Y0137932D01*
X0255756Y0137983D01*
X0255785Y0138035D01*
X0255812Y0138090D01*
X0255835Y0138145D01*
X0255855Y0138202D01*
X0255871Y0138261D01*
X0255884Y0138320D01*
X0255893Y0138379D01*
X0255898Y0138440D01*
X0255900Y0138500D01*
X0255900Y0140000D01*
X0255400Y0140500D01*
X0255400Y0159500D01*
X0255900Y0160000D01*
X0255900Y0161500D01*
X0255898Y0161560D01*
X0255893Y0161621D01*
X0255884Y0161680D01*
X0255871Y0161739D01*
X0255855Y0161798D01*
X0255835Y0161855D01*
X0255812Y0161910D01*
X0255785Y0161965D01*
X0255756Y0162017D01*
X0255723Y0162068D01*
X0255687Y0162117D01*
X0255649Y0162163D01*
X0255607Y0162207D01*
X0255563Y0162249D01*
X0255517Y0162287D01*
X0255468Y0162323D01*
X0255417Y0162356D01*
X0255365Y0162385D01*
X0255310Y0162412D01*
X0255255Y0162435D01*
X0255198Y0162455D01*
X0255139Y0162471D01*
X0255080Y0162484D01*
X0255021Y0162493D01*
X0254960Y0162498D01*
X0254900Y0162500D01*
X0247900Y0162500D02*
X0247840Y0162498D01*
X0247779Y0162493D01*
X0247720Y0162484D01*
X0247661Y0162471D01*
X0247602Y0162455D01*
X0247545Y0162435D01*
X0247490Y0162412D01*
X0247435Y0162385D01*
X0247383Y0162356D01*
X0247332Y0162323D01*
X0247283Y0162287D01*
X0247237Y0162249D01*
X0247193Y0162207D01*
X0247151Y0162163D01*
X0247113Y0162117D01*
X0247077Y0162068D01*
X0247044Y0162017D01*
X0247015Y0161965D01*
X0246988Y0161910D01*
X0246965Y0161855D01*
X0246945Y0161798D01*
X0246929Y0161739D01*
X0246916Y0161680D01*
X0246907Y0161621D01*
X0246902Y0161560D01*
X0246900Y0161500D01*
X0250900Y0123000D02*
X0226900Y0123000D01*
X0226900Y0077000D01*
X0250900Y0077000D01*
X0250900Y0082000D01*
X0245400Y0080000D02*
X0245402Y0080063D01*
X0245408Y0080125D01*
X0245418Y0080187D01*
X0245431Y0080249D01*
X0245449Y0080309D01*
X0245470Y0080368D01*
X0245495Y0080426D01*
X0245524Y0080482D01*
X0245556Y0080536D01*
X0245591Y0080588D01*
X0245629Y0080637D01*
X0245671Y0080685D01*
X0245715Y0080729D01*
X0245763Y0080771D01*
X0245812Y0080809D01*
X0245864Y0080844D01*
X0245918Y0080876D01*
X0245974Y0080905D01*
X0246032Y0080930D01*
X0246091Y0080951D01*
X0246151Y0080969D01*
X0246213Y0080982D01*
X0246275Y0080992D01*
X0246337Y0080998D01*
X0246400Y0081000D01*
X0246463Y0080998D01*
X0246525Y0080992D01*
X0246587Y0080982D01*
X0246649Y0080969D01*
X0246709Y0080951D01*
X0246768Y0080930D01*
X0246826Y0080905D01*
X0246882Y0080876D01*
X0246936Y0080844D01*
X0246988Y0080809D01*
X0247037Y0080771D01*
X0247085Y0080729D01*
X0247129Y0080685D01*
X0247171Y0080637D01*
X0247209Y0080588D01*
X0247244Y0080536D01*
X0247276Y0080482D01*
X0247305Y0080426D01*
X0247330Y0080368D01*
X0247351Y0080309D01*
X0247369Y0080249D01*
X0247382Y0080187D01*
X0247392Y0080125D01*
X0247398Y0080063D01*
X0247400Y0080000D01*
X0247398Y0079937D01*
X0247392Y0079875D01*
X0247382Y0079813D01*
X0247369Y0079751D01*
X0247351Y0079691D01*
X0247330Y0079632D01*
X0247305Y0079574D01*
X0247276Y0079518D01*
X0247244Y0079464D01*
X0247209Y0079412D01*
X0247171Y0079363D01*
X0247129Y0079315D01*
X0247085Y0079271D01*
X0247037Y0079229D01*
X0246988Y0079191D01*
X0246936Y0079156D01*
X0246882Y0079124D01*
X0246826Y0079095D01*
X0246768Y0079070D01*
X0246709Y0079049D01*
X0246649Y0079031D01*
X0246587Y0079018D01*
X0246525Y0079008D01*
X0246463Y0079002D01*
X0246400Y0079000D01*
X0246337Y0079002D01*
X0246275Y0079008D01*
X0246213Y0079018D01*
X0246151Y0079031D01*
X0246091Y0079049D01*
X0246032Y0079070D01*
X0245974Y0079095D01*
X0245918Y0079124D01*
X0245864Y0079156D01*
X0245812Y0079191D01*
X0245763Y0079229D01*
X0245715Y0079271D01*
X0245671Y0079315D01*
X0245629Y0079363D01*
X0245591Y0079412D01*
X0245556Y0079464D01*
X0245524Y0079518D01*
X0245495Y0079574D01*
X0245470Y0079632D01*
X0245449Y0079691D01*
X0245431Y0079751D01*
X0245418Y0079813D01*
X0245408Y0079875D01*
X0245402Y0079937D01*
X0245400Y0080000D01*
X0250900Y0088000D02*
X0250900Y0092000D01*
X0250900Y0098000D02*
X0250900Y0102000D01*
X0250900Y0108000D02*
X0250900Y0112000D01*
X0250900Y0118000D02*
X0250900Y0123000D01*
X0216400Y0116500D02*
X0216400Y0109000D01*
X0216274Y0108998D01*
X0216149Y0108992D01*
X0216024Y0108982D01*
X0215899Y0108968D01*
X0215774Y0108951D01*
X0215650Y0108929D01*
X0215527Y0108904D01*
X0215405Y0108874D01*
X0215284Y0108841D01*
X0215164Y0108804D01*
X0215045Y0108764D01*
X0214928Y0108719D01*
X0214811Y0108671D01*
X0214697Y0108619D01*
X0214584Y0108564D01*
X0214473Y0108505D01*
X0214364Y0108443D01*
X0214257Y0108377D01*
X0214152Y0108308D01*
X0214049Y0108236D01*
X0213948Y0108161D01*
X0213850Y0108082D01*
X0213755Y0108000D01*
X0213662Y0107916D01*
X0213572Y0107828D01*
X0213484Y0107738D01*
X0213400Y0107645D01*
X0213318Y0107550D01*
X0213239Y0107452D01*
X0213164Y0107351D01*
X0213092Y0107248D01*
X0213023Y0107143D01*
X0212957Y0107036D01*
X0212895Y0106927D01*
X0212836Y0106816D01*
X0212781Y0106703D01*
X0212729Y0106589D01*
X0212681Y0106472D01*
X0212636Y0106355D01*
X0212596Y0106236D01*
X0212559Y0106116D01*
X0212526Y0105995D01*
X0212496Y0105873D01*
X0212471Y0105750D01*
X0212449Y0105626D01*
X0212432Y0105501D01*
X0212418Y0105376D01*
X0212408Y0105251D01*
X0212402Y0105126D01*
X0212400Y0105000D01*
X0212402Y0104874D01*
X0212408Y0104749D01*
X0212418Y0104624D01*
X0212432Y0104499D01*
X0212449Y0104374D01*
X0212471Y0104250D01*
X0212496Y0104127D01*
X0212526Y0104005D01*
X0212559Y0103884D01*
X0212596Y0103764D01*
X0212636Y0103645D01*
X0212681Y0103528D01*
X0212729Y0103411D01*
X0212781Y0103297D01*
X0212836Y0103184D01*
X0212895Y0103073D01*
X0212957Y0102964D01*
X0213023Y0102857D01*
X0213092Y0102752D01*
X0213164Y0102649D01*
X0213239Y0102548D01*
X0213318Y0102450D01*
X0213400Y0102355D01*
X0213484Y0102262D01*
X0213572Y0102172D01*
X0213662Y0102084D01*
X0213755Y0102000D01*
X0213850Y0101918D01*
X0213948Y0101839D01*
X0214049Y0101764D01*
X0214152Y0101692D01*
X0214257Y0101623D01*
X0214364Y0101557D01*
X0214473Y0101495D01*
X0214584Y0101436D01*
X0214697Y0101381D01*
X0214811Y0101329D01*
X0214928Y0101281D01*
X0215045Y0101236D01*
X0215164Y0101196D01*
X0215284Y0101159D01*
X0215405Y0101126D01*
X0215527Y0101096D01*
X0215650Y0101071D01*
X0215774Y0101049D01*
X0215899Y0101032D01*
X0216024Y0101018D01*
X0216149Y0101008D01*
X0216274Y0101002D01*
X0216400Y0101000D01*
X0216400Y0093500D01*
X0176400Y0093500D01*
X0176400Y0116500D01*
X0216400Y0116500D01*
X0216400Y0069500D02*
X0216900Y0069000D01*
X0235900Y0069000D01*
X0236400Y0069500D01*
X0237900Y0069500D01*
X0237960Y0069498D01*
X0238021Y0069493D01*
X0238080Y0069484D01*
X0238139Y0069471D01*
X0238198Y0069455D01*
X0238255Y0069435D01*
X0238310Y0069412D01*
X0238365Y0069385D01*
X0238417Y0069356D01*
X0238468Y0069323D01*
X0238517Y0069287D01*
X0238563Y0069249D01*
X0238607Y0069207D01*
X0238649Y0069163D01*
X0238687Y0069117D01*
X0238723Y0069068D01*
X0238756Y0069017D01*
X0238785Y0068965D01*
X0238812Y0068910D01*
X0238835Y0068855D01*
X0238855Y0068798D01*
X0238871Y0068739D01*
X0238884Y0068680D01*
X0238893Y0068621D01*
X0238898Y0068560D01*
X0238900Y0068500D01*
X0238900Y0061500D01*
X0238898Y0061440D01*
X0238893Y0061379D01*
X0238884Y0061320D01*
X0238871Y0061261D01*
X0238855Y0061202D01*
X0238835Y0061145D01*
X0238812Y0061090D01*
X0238785Y0061035D01*
X0238756Y0060983D01*
X0238723Y0060932D01*
X0238687Y0060883D01*
X0238649Y0060837D01*
X0238607Y0060793D01*
X0238563Y0060751D01*
X0238517Y0060713D01*
X0238468Y0060677D01*
X0238417Y0060644D01*
X0238365Y0060615D01*
X0238310Y0060588D01*
X0238255Y0060565D01*
X0238198Y0060545D01*
X0238139Y0060529D01*
X0238080Y0060516D01*
X0238021Y0060507D01*
X0237960Y0060502D01*
X0237900Y0060500D01*
X0236400Y0060500D01*
X0235900Y0061000D01*
X0216900Y0061000D01*
X0216400Y0060500D01*
X0214900Y0060500D01*
X0214840Y0060502D01*
X0214779Y0060507D01*
X0214720Y0060516D01*
X0214661Y0060529D01*
X0214602Y0060545D01*
X0214545Y0060565D01*
X0214490Y0060588D01*
X0214435Y0060615D01*
X0214383Y0060644D01*
X0214332Y0060677D01*
X0214283Y0060713D01*
X0214237Y0060751D01*
X0214193Y0060793D01*
X0214151Y0060837D01*
X0214113Y0060883D01*
X0214077Y0060932D01*
X0214044Y0060983D01*
X0214015Y0061035D01*
X0213988Y0061090D01*
X0213965Y0061145D01*
X0213945Y0061202D01*
X0213929Y0061261D01*
X0213916Y0061320D01*
X0213907Y0061379D01*
X0213902Y0061440D01*
X0213900Y0061500D01*
X0213900Y0068500D01*
X0213902Y0068560D01*
X0213907Y0068621D01*
X0213916Y0068680D01*
X0213929Y0068739D01*
X0213945Y0068798D01*
X0213965Y0068855D01*
X0213988Y0068910D01*
X0214015Y0068965D01*
X0214044Y0069017D01*
X0214077Y0069068D01*
X0214113Y0069117D01*
X0214151Y0069163D01*
X0214193Y0069207D01*
X0214237Y0069249D01*
X0214283Y0069287D01*
X0214332Y0069323D01*
X0214383Y0069356D01*
X0214435Y0069385D01*
X0214490Y0069412D01*
X0214545Y0069435D01*
X0214602Y0069455D01*
X0214661Y0069471D01*
X0214720Y0069484D01*
X0214779Y0069493D01*
X0214840Y0069498D01*
X0214900Y0069500D01*
X0216400Y0069500D01*
X0249695Y0043881D02*
X0256100Y0043881D01*
X0256100Y0046016D02*
X0256100Y0041745D01*
X0255032Y0038503D02*
X0249695Y0038503D01*
X0249695Y0039570D02*
X0249695Y0037435D01*
X0255032Y0038503D02*
X0256100Y0037435D01*
X0256100Y0036368D01*
X0255032Y0035300D01*
X0251830Y0041745D02*
X0249695Y0043881D01*
D13*
X0207400Y0192000D02*
X0207400Y0195000D01*
X0207400Y0198000D01*
X0205400Y0198000D02*
X0205400Y0195000D01*
X0205400Y0192000D01*
X0024400Y0186000D02*
X0021400Y0186000D01*
X0018400Y0186000D01*
X0018400Y0184000D02*
X0021400Y0184000D01*
X0024400Y0184000D01*
D14*
X0029146Y0185793D02*
X0029897Y0185042D01*
X0032899Y0185042D01*
X0033650Y0185793D01*
X0033650Y0187294D01*
X0032899Y0188045D01*
X0033650Y0189646D02*
X0030647Y0192649D01*
X0029897Y0192649D01*
X0029146Y0191898D01*
X0029146Y0190397D01*
X0029897Y0189646D01*
X0029897Y0188045D02*
X0029146Y0187294D01*
X0029146Y0185793D01*
X0033650Y0189646D02*
X0033650Y0192649D01*
X0051557Y0224646D02*
X0090928Y0224646D01*
X0090928Y0273268D01*
X0066951Y0273268D01*
X0066951Y0255748D01*
X0055022Y0255748D01*
X0055022Y0273268D01*
X0055140Y0273189D01*
X0055022Y0273268D02*
X0066951Y0273268D01*
X0071243Y0273268D02*
X0074707Y0273268D01*
X0074707Y0255748D01*
X0086636Y0255748D01*
X0086636Y0273268D01*
X0074707Y0273268D01*
X0074825Y0273189D01*
X0055022Y0273268D02*
X0051557Y0273268D01*
X0051557Y0224646D01*
X0051557Y0273268D02*
X0051557Y0273307D01*
X0051715Y0273307D01*
X0165646Y0150106D02*
X0167898Y0147854D01*
X0167898Y0150856D01*
X0170150Y0150106D02*
X0165646Y0150106D01*
X0166397Y0146253D02*
X0167898Y0146253D01*
X0168649Y0145502D01*
X0168649Y0143250D01*
X0170150Y0143250D02*
X0165646Y0143250D01*
X0165646Y0145502D01*
X0166397Y0146253D01*
X0168649Y0144751D02*
X0170150Y0146253D01*
X0195150Y0181250D02*
X0196651Y0181250D01*
X0195901Y0181250D02*
X0195901Y0185754D01*
X0196651Y0185754D02*
X0195150Y0185754D01*
X0198219Y0185003D02*
X0198219Y0182001D01*
X0198970Y0181250D01*
X0200471Y0181250D01*
X0201222Y0182001D01*
X0202823Y0181250D02*
X0205826Y0181250D01*
X0204324Y0181250D02*
X0204324Y0185754D01*
X0202823Y0184253D01*
X0201222Y0185003D02*
X0200471Y0185754D01*
X0198970Y0185754D01*
X0198219Y0185003D01*
X0206442Y0186503D02*
X0206442Y0183501D01*
X0207193Y0182750D01*
X0208694Y0182750D01*
X0209445Y0183501D01*
X0211046Y0182750D02*
X0214049Y0182750D01*
X0212547Y0182750D02*
X0212547Y0187254D01*
X0211046Y0185753D01*
X0209445Y0186503D02*
X0208694Y0187254D01*
X0207193Y0187254D01*
X0206442Y0186503D01*
X0231146Y0177106D02*
X0231146Y0175605D01*
X0231897Y0174854D01*
X0231897Y0173253D02*
X0233398Y0173253D01*
X0234149Y0172502D01*
X0234149Y0170250D01*
X0235650Y0170250D02*
X0231146Y0170250D01*
X0231146Y0172502D01*
X0231897Y0173253D01*
X0234149Y0171751D02*
X0235650Y0173253D01*
X0234899Y0174854D02*
X0235650Y0175605D01*
X0235650Y0177106D01*
X0234899Y0177856D01*
X0234149Y0177856D01*
X0233398Y0177106D01*
X0233398Y0176355D01*
X0233398Y0177106D02*
X0232647Y0177856D01*
X0231897Y0177856D01*
X0231146Y0177106D01*
X0241897Y0147856D02*
X0241146Y0147106D01*
X0241146Y0145605D01*
X0241897Y0144854D01*
X0241897Y0143253D02*
X0243398Y0143253D01*
X0244149Y0142502D01*
X0244149Y0140250D01*
X0245650Y0140250D02*
X0241146Y0140250D01*
X0241146Y0142502D01*
X0241897Y0143253D01*
X0244149Y0141751D02*
X0245650Y0143253D01*
X0245650Y0144854D02*
X0242647Y0147856D01*
X0241897Y0147856D01*
X0245650Y0147856D02*
X0245650Y0144854D01*
X0271046Y0131732D02*
X0319668Y0131732D01*
X0319668Y0175394D01*
X0302148Y0175394D01*
X0302148Y0187323D01*
X0319668Y0187323D01*
X0319589Y0187205D01*
X0319668Y0187323D02*
X0319668Y0175394D01*
X0319668Y0167638D02*
X0302148Y0167638D01*
X0302148Y0155709D01*
X0319668Y0155709D01*
X0319668Y0147953D02*
X0302148Y0147953D01*
X0302148Y0136024D01*
X0319668Y0136024D01*
X0319589Y0147835D02*
X0319668Y0147953D01*
X0319589Y0167520D02*
X0319668Y0167638D01*
X0319668Y0187323D02*
X0319668Y0190787D01*
X0271046Y0190787D01*
X0271046Y0249843D01*
X0319668Y0249843D01*
X0319707Y0249843D01*
X0319707Y0249685D01*
X0319668Y0249843D02*
X0319668Y0246378D01*
X0302148Y0246378D01*
X0302148Y0234449D01*
X0319668Y0234449D01*
X0319668Y0190787D01*
X0271046Y0190787D01*
X0271046Y0131732D01*
X0271046Y0117047D02*
X0271046Y0077677D01*
X0319668Y0077677D01*
X0319668Y0101654D01*
X0302148Y0101654D01*
X0302148Y0113583D01*
X0319668Y0113583D01*
X0319589Y0113465D01*
X0319668Y0113583D02*
X0319668Y0101654D01*
X0319668Y0097362D02*
X0319668Y0093898D01*
X0302148Y0093898D01*
X0302148Y0081969D01*
X0319668Y0081969D01*
X0319668Y0093898D01*
X0319589Y0093780D01*
X0319668Y0113583D02*
X0319668Y0117047D01*
X0271046Y0117047D01*
X0232150Y0117151D02*
X0232150Y0118318D01*
X0231566Y0118902D01*
X0232150Y0117151D02*
X0231566Y0116567D01*
X0229231Y0116567D01*
X0228647Y0117151D01*
X0228647Y0118318D01*
X0229231Y0118902D01*
X0229231Y0115219D02*
X0228647Y0114635D01*
X0228647Y0112884D01*
X0232150Y0112884D01*
X0232150Y0114635D01*
X0231566Y0115219D01*
X0229231Y0115219D01*
X0230399Y0111536D02*
X0230399Y0109201D01*
X0231566Y0107853D02*
X0232150Y0107269D01*
X0232150Y0106101D01*
X0231566Y0105517D01*
X0229231Y0105517D01*
X0228647Y0106101D01*
X0228647Y0107269D01*
X0229231Y0107853D01*
X0229231Y0104170D02*
X0228647Y0103586D01*
X0228647Y0101834D01*
X0232150Y0101834D01*
X0232150Y0103586D01*
X0231566Y0104170D01*
X0229231Y0104170D01*
X0222150Y0103689D02*
X0222150Y0105190D01*
X0221399Y0105941D01*
X0218397Y0105941D01*
X0217646Y0105190D01*
X0217646Y0103689D01*
X0218397Y0102938D01*
X0221399Y0102938D01*
X0222150Y0103689D01*
X0222150Y0107542D02*
X0217646Y0107542D01*
X0219898Y0108293D02*
X0222150Y0110545D01*
X0222150Y0112146D02*
X0222150Y0115149D01*
X0222150Y0113647D02*
X0217646Y0113647D01*
X0219147Y0112146D01*
X0217646Y0110545D02*
X0220649Y0107542D01*
X0219254Y0075754D02*
X0222256Y0075754D01*
X0222256Y0075003D01*
X0219254Y0072001D01*
X0219254Y0071250D01*
X0217653Y0071250D02*
X0216151Y0072751D01*
X0216902Y0072751D02*
X0214650Y0072751D01*
X0214650Y0071250D02*
X0214650Y0075754D01*
X0216902Y0075754D01*
X0217653Y0075003D01*
X0217653Y0073502D01*
X0216902Y0072751D01*
X0237338Y0070750D02*
X0239590Y0070750D01*
X0240341Y0071501D01*
X0240341Y0074503D01*
X0239590Y0075254D01*
X0237338Y0075254D01*
X0237338Y0070750D01*
X0241942Y0071501D02*
X0241942Y0074503D01*
X0242693Y0075254D01*
X0244194Y0075254D01*
X0244945Y0074503D01*
X0246546Y0073753D02*
X0248047Y0075254D01*
X0248047Y0070750D01*
X0246546Y0070750D02*
X0249549Y0070750D01*
X0244945Y0071501D02*
X0244194Y0070750D01*
X0242693Y0070750D01*
X0241942Y0071501D01*
X0319707Y0116890D02*
X0319707Y0117047D01*
X0319668Y0117047D01*
X0319707Y0190630D02*
X0319707Y0190787D01*
X0319668Y0190787D01*
X0319668Y0195079D02*
X0302148Y0195079D01*
X0302148Y0207008D01*
X0319668Y0207008D01*
X0319589Y0206890D01*
X0319668Y0214764D02*
X0302148Y0214764D01*
X0302148Y0226693D01*
X0319668Y0226693D01*
X0319589Y0226575D01*
X0319668Y0234449D02*
X0319668Y0246378D01*
X0319589Y0246260D01*
X0261650Y0218649D02*
X0261650Y0215646D01*
X0261650Y0217147D02*
X0257146Y0217147D01*
X0258647Y0215646D01*
X0257897Y0214045D02*
X0259398Y0214045D01*
X0260149Y0213294D01*
X0260149Y0211042D01*
X0261650Y0211042D02*
X0257146Y0211042D01*
X0257146Y0213294D01*
X0257897Y0214045D01*
X0260149Y0212543D02*
X0261650Y0214045D01*
X0152522Y0059843D02*
X0152522Y0055906D01*
X0150554Y0055906D01*
X0150554Y0044094D01*
X0152522Y0044094D01*
X0152522Y0040157D01*
X0045278Y0040157D01*
X0045278Y0044094D01*
X0047246Y0044094D01*
X0047246Y0055906D01*
X0045278Y0055906D01*
X0045278Y0059843D01*
X0152522Y0059843D01*
D15*
X0059724Y0062011D02*
X0056654Y0062011D01*
X0055120Y0062011D02*
X0052818Y0064313D01*
X0052050Y0063546D02*
X0055120Y0066615D01*
X0056654Y0065080D02*
X0058189Y0066615D01*
X0058189Y0062011D01*
X0052050Y0062011D02*
X0052050Y0066615D01*
X0050516Y0065848D02*
X0049748Y0066615D01*
X0048214Y0066615D01*
X0047446Y0065848D01*
X0047446Y0065080D01*
X0048214Y0064313D01*
X0049748Y0064313D01*
X0050516Y0063546D01*
X0050516Y0062778D01*
X0049748Y0062011D01*
X0048214Y0062011D01*
X0047446Y0062778D01*
X0016200Y0105200D02*
X0016200Y0106735D01*
X0016200Y0105967D02*
X0011596Y0105967D01*
X0011596Y0105200D02*
X0011596Y0106735D01*
X0012363Y0108269D02*
X0015433Y0108269D01*
X0016200Y0109037D01*
X0016200Y0110571D01*
X0015433Y0111339D01*
X0016200Y0112873D02*
X0013131Y0115942D01*
X0012363Y0115942D01*
X0011596Y0115175D01*
X0011596Y0113641D01*
X0012363Y0112873D01*
X0012363Y0111339D02*
X0011596Y0110571D01*
X0011596Y0109037D01*
X0012363Y0108269D01*
X0016200Y0112873D02*
X0016200Y0115942D01*
X0030096Y0173200D02*
X0030096Y0174735D01*
X0030096Y0173967D02*
X0034700Y0173967D01*
X0034700Y0173200D02*
X0034700Y0174735D01*
X0033933Y0176269D02*
X0034700Y0177037D01*
X0034700Y0178571D01*
X0033933Y0179339D01*
X0033933Y0180873D02*
X0034700Y0181641D01*
X0034700Y0183175D01*
X0033933Y0183942D01*
X0033165Y0183942D01*
X0032398Y0183175D01*
X0032398Y0182408D01*
X0032398Y0183175D02*
X0031631Y0183942D01*
X0030863Y0183942D01*
X0030096Y0183175D01*
X0030096Y0181641D01*
X0030863Y0180873D01*
X0030863Y0179339D02*
X0030096Y0178571D01*
X0030096Y0177037D01*
X0030863Y0176269D01*
X0033933Y0176269D01*
D16*
X0176400Y0169200D03*
X0176400Y0140800D03*
D17*
X0212200Y0065000D03*
X0240600Y0065000D03*
M02*
