G75*
%MOIN*%
%OFA0B0*%
%FSLAX25Y25*%
%IPPOS*%
%LPD*%
%AMOC8*
5,1,8,0,0,1.08239X$1,22.5*
%
%ADD10C,0.00000*%
%ADD11OC8,0.05200*%
%ADD12C,0.05200*%
%ADD13R,0.06600X0.06600*%
%ADD14C,0.06600*%
%ADD15C,0.05800*%
%ADD16C,0.07874*%
%ADD17C,0.05600*%
%ADD18C,0.01600*%
%ADD19R,0.03562X0.03562*%
%ADD20C,0.01000*%
D10*
X0001400Y0005000D02*
X0321400Y0005000D01*
X0321400Y0275000D01*
X0001400Y0275000D01*
X0001400Y0005000D01*
X0005298Y0015000D02*
X0005300Y0015156D01*
X0005306Y0015312D01*
X0005316Y0015467D01*
X0005330Y0015622D01*
X0005348Y0015777D01*
X0005370Y0015931D01*
X0005395Y0016085D01*
X0005425Y0016238D01*
X0005459Y0016390D01*
X0005496Y0016542D01*
X0005537Y0016692D01*
X0005582Y0016841D01*
X0005631Y0016989D01*
X0005684Y0017136D01*
X0005740Y0017281D01*
X0005800Y0017425D01*
X0005864Y0017567D01*
X0005932Y0017708D01*
X0006003Y0017846D01*
X0006077Y0017983D01*
X0006155Y0018118D01*
X0006236Y0018251D01*
X0006321Y0018382D01*
X0006409Y0018511D01*
X0006500Y0018637D01*
X0006595Y0018761D01*
X0006692Y0018882D01*
X0006793Y0019001D01*
X0006897Y0019118D01*
X0007003Y0019231D01*
X0007113Y0019342D01*
X0007225Y0019450D01*
X0007340Y0019555D01*
X0007458Y0019658D01*
X0007578Y0019757D01*
X0007701Y0019853D01*
X0007826Y0019946D01*
X0007953Y0020035D01*
X0008083Y0020122D01*
X0008215Y0020205D01*
X0008349Y0020284D01*
X0008485Y0020361D01*
X0008623Y0020433D01*
X0008762Y0020503D01*
X0008904Y0020568D01*
X0009047Y0020630D01*
X0009191Y0020688D01*
X0009337Y0020743D01*
X0009485Y0020794D01*
X0009633Y0020841D01*
X0009783Y0020884D01*
X0009934Y0020923D01*
X0010086Y0020959D01*
X0010238Y0020990D01*
X0010392Y0021018D01*
X0010546Y0021042D01*
X0010700Y0021062D01*
X0010855Y0021078D01*
X0011011Y0021090D01*
X0011166Y0021098D01*
X0011322Y0021102D01*
X0011478Y0021102D01*
X0011634Y0021098D01*
X0011789Y0021090D01*
X0011945Y0021078D01*
X0012100Y0021062D01*
X0012254Y0021042D01*
X0012408Y0021018D01*
X0012562Y0020990D01*
X0012714Y0020959D01*
X0012866Y0020923D01*
X0013017Y0020884D01*
X0013167Y0020841D01*
X0013315Y0020794D01*
X0013463Y0020743D01*
X0013609Y0020688D01*
X0013753Y0020630D01*
X0013896Y0020568D01*
X0014038Y0020503D01*
X0014177Y0020433D01*
X0014315Y0020361D01*
X0014451Y0020284D01*
X0014585Y0020205D01*
X0014717Y0020122D01*
X0014847Y0020035D01*
X0014974Y0019946D01*
X0015099Y0019853D01*
X0015222Y0019757D01*
X0015342Y0019658D01*
X0015460Y0019555D01*
X0015575Y0019450D01*
X0015687Y0019342D01*
X0015797Y0019231D01*
X0015903Y0019118D01*
X0016007Y0019001D01*
X0016108Y0018882D01*
X0016205Y0018761D01*
X0016300Y0018637D01*
X0016391Y0018511D01*
X0016479Y0018382D01*
X0016564Y0018251D01*
X0016645Y0018118D01*
X0016723Y0017983D01*
X0016797Y0017846D01*
X0016868Y0017708D01*
X0016936Y0017567D01*
X0017000Y0017425D01*
X0017060Y0017281D01*
X0017116Y0017136D01*
X0017169Y0016989D01*
X0017218Y0016841D01*
X0017263Y0016692D01*
X0017304Y0016542D01*
X0017341Y0016390D01*
X0017375Y0016238D01*
X0017405Y0016085D01*
X0017430Y0015931D01*
X0017452Y0015777D01*
X0017470Y0015622D01*
X0017484Y0015467D01*
X0017494Y0015312D01*
X0017500Y0015156D01*
X0017502Y0015000D01*
X0017500Y0014844D01*
X0017494Y0014688D01*
X0017484Y0014533D01*
X0017470Y0014378D01*
X0017452Y0014223D01*
X0017430Y0014069D01*
X0017405Y0013915D01*
X0017375Y0013762D01*
X0017341Y0013610D01*
X0017304Y0013458D01*
X0017263Y0013308D01*
X0017218Y0013159D01*
X0017169Y0013011D01*
X0017116Y0012864D01*
X0017060Y0012719D01*
X0017000Y0012575D01*
X0016936Y0012433D01*
X0016868Y0012292D01*
X0016797Y0012154D01*
X0016723Y0012017D01*
X0016645Y0011882D01*
X0016564Y0011749D01*
X0016479Y0011618D01*
X0016391Y0011489D01*
X0016300Y0011363D01*
X0016205Y0011239D01*
X0016108Y0011118D01*
X0016007Y0010999D01*
X0015903Y0010882D01*
X0015797Y0010769D01*
X0015687Y0010658D01*
X0015575Y0010550D01*
X0015460Y0010445D01*
X0015342Y0010342D01*
X0015222Y0010243D01*
X0015099Y0010147D01*
X0014974Y0010054D01*
X0014847Y0009965D01*
X0014717Y0009878D01*
X0014585Y0009795D01*
X0014451Y0009716D01*
X0014315Y0009639D01*
X0014177Y0009567D01*
X0014038Y0009497D01*
X0013896Y0009432D01*
X0013753Y0009370D01*
X0013609Y0009312D01*
X0013463Y0009257D01*
X0013315Y0009206D01*
X0013167Y0009159D01*
X0013017Y0009116D01*
X0012866Y0009077D01*
X0012714Y0009041D01*
X0012562Y0009010D01*
X0012408Y0008982D01*
X0012254Y0008958D01*
X0012100Y0008938D01*
X0011945Y0008922D01*
X0011789Y0008910D01*
X0011634Y0008902D01*
X0011478Y0008898D01*
X0011322Y0008898D01*
X0011166Y0008902D01*
X0011011Y0008910D01*
X0010855Y0008922D01*
X0010700Y0008938D01*
X0010546Y0008958D01*
X0010392Y0008982D01*
X0010238Y0009010D01*
X0010086Y0009041D01*
X0009934Y0009077D01*
X0009783Y0009116D01*
X0009633Y0009159D01*
X0009485Y0009206D01*
X0009337Y0009257D01*
X0009191Y0009312D01*
X0009047Y0009370D01*
X0008904Y0009432D01*
X0008762Y0009497D01*
X0008623Y0009567D01*
X0008485Y0009639D01*
X0008349Y0009716D01*
X0008215Y0009795D01*
X0008083Y0009878D01*
X0007953Y0009965D01*
X0007826Y0010054D01*
X0007701Y0010147D01*
X0007578Y0010243D01*
X0007458Y0010342D01*
X0007340Y0010445D01*
X0007225Y0010550D01*
X0007113Y0010658D01*
X0007003Y0010769D01*
X0006897Y0010882D01*
X0006793Y0010999D01*
X0006692Y0011118D01*
X0006595Y0011239D01*
X0006500Y0011363D01*
X0006409Y0011489D01*
X0006321Y0011618D01*
X0006236Y0011749D01*
X0006155Y0011882D01*
X0006077Y0012017D01*
X0006003Y0012154D01*
X0005932Y0012292D01*
X0005864Y0012433D01*
X0005800Y0012575D01*
X0005740Y0012719D01*
X0005684Y0012864D01*
X0005631Y0013011D01*
X0005582Y0013159D01*
X0005537Y0013308D01*
X0005496Y0013458D01*
X0005459Y0013610D01*
X0005425Y0013762D01*
X0005395Y0013915D01*
X0005370Y0014069D01*
X0005348Y0014223D01*
X0005330Y0014378D01*
X0005316Y0014533D01*
X0005306Y0014688D01*
X0005300Y0014844D01*
X0005298Y0015000D01*
X0042069Y0053563D02*
X0042071Y0053671D01*
X0042077Y0053780D01*
X0042087Y0053888D01*
X0042101Y0053995D01*
X0042119Y0054102D01*
X0042140Y0054209D01*
X0042166Y0054314D01*
X0042196Y0054419D01*
X0042229Y0054522D01*
X0042266Y0054624D01*
X0042307Y0054724D01*
X0042351Y0054823D01*
X0042400Y0054921D01*
X0042451Y0055016D01*
X0042506Y0055109D01*
X0042565Y0055201D01*
X0042627Y0055290D01*
X0042692Y0055377D01*
X0042760Y0055461D01*
X0042831Y0055543D01*
X0042905Y0055622D01*
X0042982Y0055698D01*
X0043062Y0055772D01*
X0043145Y0055842D01*
X0043230Y0055910D01*
X0043317Y0055974D01*
X0043407Y0056035D01*
X0043499Y0056093D01*
X0043593Y0056147D01*
X0043689Y0056198D01*
X0043786Y0056245D01*
X0043886Y0056289D01*
X0043987Y0056329D01*
X0044089Y0056365D01*
X0044192Y0056397D01*
X0044297Y0056426D01*
X0044403Y0056450D01*
X0044509Y0056471D01*
X0044616Y0056488D01*
X0044724Y0056501D01*
X0044832Y0056510D01*
X0044941Y0056515D01*
X0045049Y0056516D01*
X0045158Y0056513D01*
X0045266Y0056506D01*
X0045374Y0056495D01*
X0045481Y0056480D01*
X0045588Y0056461D01*
X0045694Y0056438D01*
X0045799Y0056412D01*
X0045904Y0056381D01*
X0046006Y0056347D01*
X0046108Y0056309D01*
X0046208Y0056267D01*
X0046307Y0056222D01*
X0046404Y0056173D01*
X0046498Y0056120D01*
X0046591Y0056064D01*
X0046682Y0056005D01*
X0046771Y0055942D01*
X0046857Y0055877D01*
X0046941Y0055808D01*
X0047022Y0055736D01*
X0047100Y0055661D01*
X0047176Y0055583D01*
X0047249Y0055502D01*
X0047319Y0055419D01*
X0047385Y0055334D01*
X0047449Y0055246D01*
X0047509Y0055155D01*
X0047566Y0055063D01*
X0047619Y0054968D01*
X0047669Y0054872D01*
X0047715Y0054774D01*
X0047758Y0054674D01*
X0047797Y0054573D01*
X0047832Y0054470D01*
X0047864Y0054367D01*
X0047891Y0054262D01*
X0047915Y0054156D01*
X0047935Y0054049D01*
X0047951Y0053942D01*
X0047963Y0053834D01*
X0047971Y0053726D01*
X0047975Y0053617D01*
X0047975Y0053509D01*
X0047971Y0053400D01*
X0047963Y0053292D01*
X0047951Y0053184D01*
X0047935Y0053077D01*
X0047915Y0052970D01*
X0047891Y0052864D01*
X0047864Y0052759D01*
X0047832Y0052656D01*
X0047797Y0052553D01*
X0047758Y0052452D01*
X0047715Y0052352D01*
X0047669Y0052254D01*
X0047619Y0052158D01*
X0047566Y0052063D01*
X0047509Y0051971D01*
X0047449Y0051880D01*
X0047385Y0051792D01*
X0047319Y0051707D01*
X0047249Y0051624D01*
X0047176Y0051543D01*
X0047100Y0051465D01*
X0047022Y0051390D01*
X0046941Y0051318D01*
X0046857Y0051249D01*
X0046771Y0051184D01*
X0046682Y0051121D01*
X0046591Y0051062D01*
X0046499Y0051006D01*
X0046404Y0050953D01*
X0046307Y0050904D01*
X0046208Y0050859D01*
X0046108Y0050817D01*
X0046006Y0050779D01*
X0045904Y0050745D01*
X0045799Y0050714D01*
X0045694Y0050688D01*
X0045588Y0050665D01*
X0045481Y0050646D01*
X0045374Y0050631D01*
X0045266Y0050620D01*
X0045158Y0050613D01*
X0045049Y0050610D01*
X0044941Y0050611D01*
X0044832Y0050616D01*
X0044724Y0050625D01*
X0044616Y0050638D01*
X0044509Y0050655D01*
X0044403Y0050676D01*
X0044297Y0050700D01*
X0044192Y0050729D01*
X0044089Y0050761D01*
X0043987Y0050797D01*
X0043886Y0050837D01*
X0043786Y0050881D01*
X0043689Y0050928D01*
X0043593Y0050979D01*
X0043499Y0051033D01*
X0043407Y0051091D01*
X0043317Y0051152D01*
X0043230Y0051216D01*
X0043145Y0051284D01*
X0043062Y0051354D01*
X0042982Y0051428D01*
X0042905Y0051504D01*
X0042831Y0051583D01*
X0042760Y0051665D01*
X0042692Y0051749D01*
X0042627Y0051836D01*
X0042565Y0051925D01*
X0042506Y0052017D01*
X0042451Y0052110D01*
X0042400Y0052205D01*
X0042351Y0052303D01*
X0042307Y0052402D01*
X0042266Y0052502D01*
X0042229Y0052604D01*
X0042196Y0052707D01*
X0042166Y0052812D01*
X0042140Y0052917D01*
X0042119Y0053024D01*
X0042101Y0053131D01*
X0042087Y0053238D01*
X0042077Y0053346D01*
X0042071Y0053455D01*
X0042069Y0053563D01*
X0005298Y0265000D02*
X0005300Y0265156D01*
X0005306Y0265312D01*
X0005316Y0265467D01*
X0005330Y0265622D01*
X0005348Y0265777D01*
X0005370Y0265931D01*
X0005395Y0266085D01*
X0005425Y0266238D01*
X0005459Y0266390D01*
X0005496Y0266542D01*
X0005537Y0266692D01*
X0005582Y0266841D01*
X0005631Y0266989D01*
X0005684Y0267136D01*
X0005740Y0267281D01*
X0005800Y0267425D01*
X0005864Y0267567D01*
X0005932Y0267708D01*
X0006003Y0267846D01*
X0006077Y0267983D01*
X0006155Y0268118D01*
X0006236Y0268251D01*
X0006321Y0268382D01*
X0006409Y0268511D01*
X0006500Y0268637D01*
X0006595Y0268761D01*
X0006692Y0268882D01*
X0006793Y0269001D01*
X0006897Y0269118D01*
X0007003Y0269231D01*
X0007113Y0269342D01*
X0007225Y0269450D01*
X0007340Y0269555D01*
X0007458Y0269658D01*
X0007578Y0269757D01*
X0007701Y0269853D01*
X0007826Y0269946D01*
X0007953Y0270035D01*
X0008083Y0270122D01*
X0008215Y0270205D01*
X0008349Y0270284D01*
X0008485Y0270361D01*
X0008623Y0270433D01*
X0008762Y0270503D01*
X0008904Y0270568D01*
X0009047Y0270630D01*
X0009191Y0270688D01*
X0009337Y0270743D01*
X0009485Y0270794D01*
X0009633Y0270841D01*
X0009783Y0270884D01*
X0009934Y0270923D01*
X0010086Y0270959D01*
X0010238Y0270990D01*
X0010392Y0271018D01*
X0010546Y0271042D01*
X0010700Y0271062D01*
X0010855Y0271078D01*
X0011011Y0271090D01*
X0011166Y0271098D01*
X0011322Y0271102D01*
X0011478Y0271102D01*
X0011634Y0271098D01*
X0011789Y0271090D01*
X0011945Y0271078D01*
X0012100Y0271062D01*
X0012254Y0271042D01*
X0012408Y0271018D01*
X0012562Y0270990D01*
X0012714Y0270959D01*
X0012866Y0270923D01*
X0013017Y0270884D01*
X0013167Y0270841D01*
X0013315Y0270794D01*
X0013463Y0270743D01*
X0013609Y0270688D01*
X0013753Y0270630D01*
X0013896Y0270568D01*
X0014038Y0270503D01*
X0014177Y0270433D01*
X0014315Y0270361D01*
X0014451Y0270284D01*
X0014585Y0270205D01*
X0014717Y0270122D01*
X0014847Y0270035D01*
X0014974Y0269946D01*
X0015099Y0269853D01*
X0015222Y0269757D01*
X0015342Y0269658D01*
X0015460Y0269555D01*
X0015575Y0269450D01*
X0015687Y0269342D01*
X0015797Y0269231D01*
X0015903Y0269118D01*
X0016007Y0269001D01*
X0016108Y0268882D01*
X0016205Y0268761D01*
X0016300Y0268637D01*
X0016391Y0268511D01*
X0016479Y0268382D01*
X0016564Y0268251D01*
X0016645Y0268118D01*
X0016723Y0267983D01*
X0016797Y0267846D01*
X0016868Y0267708D01*
X0016936Y0267567D01*
X0017000Y0267425D01*
X0017060Y0267281D01*
X0017116Y0267136D01*
X0017169Y0266989D01*
X0017218Y0266841D01*
X0017263Y0266692D01*
X0017304Y0266542D01*
X0017341Y0266390D01*
X0017375Y0266238D01*
X0017405Y0266085D01*
X0017430Y0265931D01*
X0017452Y0265777D01*
X0017470Y0265622D01*
X0017484Y0265467D01*
X0017494Y0265312D01*
X0017500Y0265156D01*
X0017502Y0265000D01*
X0017500Y0264844D01*
X0017494Y0264688D01*
X0017484Y0264533D01*
X0017470Y0264378D01*
X0017452Y0264223D01*
X0017430Y0264069D01*
X0017405Y0263915D01*
X0017375Y0263762D01*
X0017341Y0263610D01*
X0017304Y0263458D01*
X0017263Y0263308D01*
X0017218Y0263159D01*
X0017169Y0263011D01*
X0017116Y0262864D01*
X0017060Y0262719D01*
X0017000Y0262575D01*
X0016936Y0262433D01*
X0016868Y0262292D01*
X0016797Y0262154D01*
X0016723Y0262017D01*
X0016645Y0261882D01*
X0016564Y0261749D01*
X0016479Y0261618D01*
X0016391Y0261489D01*
X0016300Y0261363D01*
X0016205Y0261239D01*
X0016108Y0261118D01*
X0016007Y0260999D01*
X0015903Y0260882D01*
X0015797Y0260769D01*
X0015687Y0260658D01*
X0015575Y0260550D01*
X0015460Y0260445D01*
X0015342Y0260342D01*
X0015222Y0260243D01*
X0015099Y0260147D01*
X0014974Y0260054D01*
X0014847Y0259965D01*
X0014717Y0259878D01*
X0014585Y0259795D01*
X0014451Y0259716D01*
X0014315Y0259639D01*
X0014177Y0259567D01*
X0014038Y0259497D01*
X0013896Y0259432D01*
X0013753Y0259370D01*
X0013609Y0259312D01*
X0013463Y0259257D01*
X0013315Y0259206D01*
X0013167Y0259159D01*
X0013017Y0259116D01*
X0012866Y0259077D01*
X0012714Y0259041D01*
X0012562Y0259010D01*
X0012408Y0258982D01*
X0012254Y0258958D01*
X0012100Y0258938D01*
X0011945Y0258922D01*
X0011789Y0258910D01*
X0011634Y0258902D01*
X0011478Y0258898D01*
X0011322Y0258898D01*
X0011166Y0258902D01*
X0011011Y0258910D01*
X0010855Y0258922D01*
X0010700Y0258938D01*
X0010546Y0258958D01*
X0010392Y0258982D01*
X0010238Y0259010D01*
X0010086Y0259041D01*
X0009934Y0259077D01*
X0009783Y0259116D01*
X0009633Y0259159D01*
X0009485Y0259206D01*
X0009337Y0259257D01*
X0009191Y0259312D01*
X0009047Y0259370D01*
X0008904Y0259432D01*
X0008762Y0259497D01*
X0008623Y0259567D01*
X0008485Y0259639D01*
X0008349Y0259716D01*
X0008215Y0259795D01*
X0008083Y0259878D01*
X0007953Y0259965D01*
X0007826Y0260054D01*
X0007701Y0260147D01*
X0007578Y0260243D01*
X0007458Y0260342D01*
X0007340Y0260445D01*
X0007225Y0260550D01*
X0007113Y0260658D01*
X0007003Y0260769D01*
X0006897Y0260882D01*
X0006793Y0260999D01*
X0006692Y0261118D01*
X0006595Y0261239D01*
X0006500Y0261363D01*
X0006409Y0261489D01*
X0006321Y0261618D01*
X0006236Y0261749D01*
X0006155Y0261882D01*
X0006077Y0262017D01*
X0006003Y0262154D01*
X0005932Y0262292D01*
X0005864Y0262433D01*
X0005800Y0262575D01*
X0005740Y0262719D01*
X0005684Y0262864D01*
X0005631Y0263011D01*
X0005582Y0263159D01*
X0005537Y0263308D01*
X0005496Y0263458D01*
X0005459Y0263610D01*
X0005425Y0263762D01*
X0005395Y0263915D01*
X0005370Y0264069D01*
X0005348Y0264223D01*
X0005330Y0264378D01*
X0005316Y0264533D01*
X0005306Y0264688D01*
X0005300Y0264844D01*
X0005298Y0265000D01*
X0305298Y0265000D02*
X0305300Y0265156D01*
X0305306Y0265312D01*
X0305316Y0265467D01*
X0305330Y0265622D01*
X0305348Y0265777D01*
X0305370Y0265931D01*
X0305395Y0266085D01*
X0305425Y0266238D01*
X0305459Y0266390D01*
X0305496Y0266542D01*
X0305537Y0266692D01*
X0305582Y0266841D01*
X0305631Y0266989D01*
X0305684Y0267136D01*
X0305740Y0267281D01*
X0305800Y0267425D01*
X0305864Y0267567D01*
X0305932Y0267708D01*
X0306003Y0267846D01*
X0306077Y0267983D01*
X0306155Y0268118D01*
X0306236Y0268251D01*
X0306321Y0268382D01*
X0306409Y0268511D01*
X0306500Y0268637D01*
X0306595Y0268761D01*
X0306692Y0268882D01*
X0306793Y0269001D01*
X0306897Y0269118D01*
X0307003Y0269231D01*
X0307113Y0269342D01*
X0307225Y0269450D01*
X0307340Y0269555D01*
X0307458Y0269658D01*
X0307578Y0269757D01*
X0307701Y0269853D01*
X0307826Y0269946D01*
X0307953Y0270035D01*
X0308083Y0270122D01*
X0308215Y0270205D01*
X0308349Y0270284D01*
X0308485Y0270361D01*
X0308623Y0270433D01*
X0308762Y0270503D01*
X0308904Y0270568D01*
X0309047Y0270630D01*
X0309191Y0270688D01*
X0309337Y0270743D01*
X0309485Y0270794D01*
X0309633Y0270841D01*
X0309783Y0270884D01*
X0309934Y0270923D01*
X0310086Y0270959D01*
X0310238Y0270990D01*
X0310392Y0271018D01*
X0310546Y0271042D01*
X0310700Y0271062D01*
X0310855Y0271078D01*
X0311011Y0271090D01*
X0311166Y0271098D01*
X0311322Y0271102D01*
X0311478Y0271102D01*
X0311634Y0271098D01*
X0311789Y0271090D01*
X0311945Y0271078D01*
X0312100Y0271062D01*
X0312254Y0271042D01*
X0312408Y0271018D01*
X0312562Y0270990D01*
X0312714Y0270959D01*
X0312866Y0270923D01*
X0313017Y0270884D01*
X0313167Y0270841D01*
X0313315Y0270794D01*
X0313463Y0270743D01*
X0313609Y0270688D01*
X0313753Y0270630D01*
X0313896Y0270568D01*
X0314038Y0270503D01*
X0314177Y0270433D01*
X0314315Y0270361D01*
X0314451Y0270284D01*
X0314585Y0270205D01*
X0314717Y0270122D01*
X0314847Y0270035D01*
X0314974Y0269946D01*
X0315099Y0269853D01*
X0315222Y0269757D01*
X0315342Y0269658D01*
X0315460Y0269555D01*
X0315575Y0269450D01*
X0315687Y0269342D01*
X0315797Y0269231D01*
X0315903Y0269118D01*
X0316007Y0269001D01*
X0316108Y0268882D01*
X0316205Y0268761D01*
X0316300Y0268637D01*
X0316391Y0268511D01*
X0316479Y0268382D01*
X0316564Y0268251D01*
X0316645Y0268118D01*
X0316723Y0267983D01*
X0316797Y0267846D01*
X0316868Y0267708D01*
X0316936Y0267567D01*
X0317000Y0267425D01*
X0317060Y0267281D01*
X0317116Y0267136D01*
X0317169Y0266989D01*
X0317218Y0266841D01*
X0317263Y0266692D01*
X0317304Y0266542D01*
X0317341Y0266390D01*
X0317375Y0266238D01*
X0317405Y0266085D01*
X0317430Y0265931D01*
X0317452Y0265777D01*
X0317470Y0265622D01*
X0317484Y0265467D01*
X0317494Y0265312D01*
X0317500Y0265156D01*
X0317502Y0265000D01*
X0317500Y0264844D01*
X0317494Y0264688D01*
X0317484Y0264533D01*
X0317470Y0264378D01*
X0317452Y0264223D01*
X0317430Y0264069D01*
X0317405Y0263915D01*
X0317375Y0263762D01*
X0317341Y0263610D01*
X0317304Y0263458D01*
X0317263Y0263308D01*
X0317218Y0263159D01*
X0317169Y0263011D01*
X0317116Y0262864D01*
X0317060Y0262719D01*
X0317000Y0262575D01*
X0316936Y0262433D01*
X0316868Y0262292D01*
X0316797Y0262154D01*
X0316723Y0262017D01*
X0316645Y0261882D01*
X0316564Y0261749D01*
X0316479Y0261618D01*
X0316391Y0261489D01*
X0316300Y0261363D01*
X0316205Y0261239D01*
X0316108Y0261118D01*
X0316007Y0260999D01*
X0315903Y0260882D01*
X0315797Y0260769D01*
X0315687Y0260658D01*
X0315575Y0260550D01*
X0315460Y0260445D01*
X0315342Y0260342D01*
X0315222Y0260243D01*
X0315099Y0260147D01*
X0314974Y0260054D01*
X0314847Y0259965D01*
X0314717Y0259878D01*
X0314585Y0259795D01*
X0314451Y0259716D01*
X0314315Y0259639D01*
X0314177Y0259567D01*
X0314038Y0259497D01*
X0313896Y0259432D01*
X0313753Y0259370D01*
X0313609Y0259312D01*
X0313463Y0259257D01*
X0313315Y0259206D01*
X0313167Y0259159D01*
X0313017Y0259116D01*
X0312866Y0259077D01*
X0312714Y0259041D01*
X0312562Y0259010D01*
X0312408Y0258982D01*
X0312254Y0258958D01*
X0312100Y0258938D01*
X0311945Y0258922D01*
X0311789Y0258910D01*
X0311634Y0258902D01*
X0311478Y0258898D01*
X0311322Y0258898D01*
X0311166Y0258902D01*
X0311011Y0258910D01*
X0310855Y0258922D01*
X0310700Y0258938D01*
X0310546Y0258958D01*
X0310392Y0258982D01*
X0310238Y0259010D01*
X0310086Y0259041D01*
X0309934Y0259077D01*
X0309783Y0259116D01*
X0309633Y0259159D01*
X0309485Y0259206D01*
X0309337Y0259257D01*
X0309191Y0259312D01*
X0309047Y0259370D01*
X0308904Y0259432D01*
X0308762Y0259497D01*
X0308623Y0259567D01*
X0308485Y0259639D01*
X0308349Y0259716D01*
X0308215Y0259795D01*
X0308083Y0259878D01*
X0307953Y0259965D01*
X0307826Y0260054D01*
X0307701Y0260147D01*
X0307578Y0260243D01*
X0307458Y0260342D01*
X0307340Y0260445D01*
X0307225Y0260550D01*
X0307113Y0260658D01*
X0307003Y0260769D01*
X0306897Y0260882D01*
X0306793Y0260999D01*
X0306692Y0261118D01*
X0306595Y0261239D01*
X0306500Y0261363D01*
X0306409Y0261489D01*
X0306321Y0261618D01*
X0306236Y0261749D01*
X0306155Y0261882D01*
X0306077Y0262017D01*
X0306003Y0262154D01*
X0305932Y0262292D01*
X0305864Y0262433D01*
X0305800Y0262575D01*
X0305740Y0262719D01*
X0305684Y0262864D01*
X0305631Y0263011D01*
X0305582Y0263159D01*
X0305537Y0263308D01*
X0305496Y0263458D01*
X0305459Y0263610D01*
X0305425Y0263762D01*
X0305395Y0263915D01*
X0305370Y0264069D01*
X0305348Y0264223D01*
X0305330Y0264378D01*
X0305316Y0264533D01*
X0305306Y0264688D01*
X0305300Y0264844D01*
X0305298Y0265000D01*
X0305298Y0015000D02*
X0305300Y0015156D01*
X0305306Y0015312D01*
X0305316Y0015467D01*
X0305330Y0015622D01*
X0305348Y0015777D01*
X0305370Y0015931D01*
X0305395Y0016085D01*
X0305425Y0016238D01*
X0305459Y0016390D01*
X0305496Y0016542D01*
X0305537Y0016692D01*
X0305582Y0016841D01*
X0305631Y0016989D01*
X0305684Y0017136D01*
X0305740Y0017281D01*
X0305800Y0017425D01*
X0305864Y0017567D01*
X0305932Y0017708D01*
X0306003Y0017846D01*
X0306077Y0017983D01*
X0306155Y0018118D01*
X0306236Y0018251D01*
X0306321Y0018382D01*
X0306409Y0018511D01*
X0306500Y0018637D01*
X0306595Y0018761D01*
X0306692Y0018882D01*
X0306793Y0019001D01*
X0306897Y0019118D01*
X0307003Y0019231D01*
X0307113Y0019342D01*
X0307225Y0019450D01*
X0307340Y0019555D01*
X0307458Y0019658D01*
X0307578Y0019757D01*
X0307701Y0019853D01*
X0307826Y0019946D01*
X0307953Y0020035D01*
X0308083Y0020122D01*
X0308215Y0020205D01*
X0308349Y0020284D01*
X0308485Y0020361D01*
X0308623Y0020433D01*
X0308762Y0020503D01*
X0308904Y0020568D01*
X0309047Y0020630D01*
X0309191Y0020688D01*
X0309337Y0020743D01*
X0309485Y0020794D01*
X0309633Y0020841D01*
X0309783Y0020884D01*
X0309934Y0020923D01*
X0310086Y0020959D01*
X0310238Y0020990D01*
X0310392Y0021018D01*
X0310546Y0021042D01*
X0310700Y0021062D01*
X0310855Y0021078D01*
X0311011Y0021090D01*
X0311166Y0021098D01*
X0311322Y0021102D01*
X0311478Y0021102D01*
X0311634Y0021098D01*
X0311789Y0021090D01*
X0311945Y0021078D01*
X0312100Y0021062D01*
X0312254Y0021042D01*
X0312408Y0021018D01*
X0312562Y0020990D01*
X0312714Y0020959D01*
X0312866Y0020923D01*
X0313017Y0020884D01*
X0313167Y0020841D01*
X0313315Y0020794D01*
X0313463Y0020743D01*
X0313609Y0020688D01*
X0313753Y0020630D01*
X0313896Y0020568D01*
X0314038Y0020503D01*
X0314177Y0020433D01*
X0314315Y0020361D01*
X0314451Y0020284D01*
X0314585Y0020205D01*
X0314717Y0020122D01*
X0314847Y0020035D01*
X0314974Y0019946D01*
X0315099Y0019853D01*
X0315222Y0019757D01*
X0315342Y0019658D01*
X0315460Y0019555D01*
X0315575Y0019450D01*
X0315687Y0019342D01*
X0315797Y0019231D01*
X0315903Y0019118D01*
X0316007Y0019001D01*
X0316108Y0018882D01*
X0316205Y0018761D01*
X0316300Y0018637D01*
X0316391Y0018511D01*
X0316479Y0018382D01*
X0316564Y0018251D01*
X0316645Y0018118D01*
X0316723Y0017983D01*
X0316797Y0017846D01*
X0316868Y0017708D01*
X0316936Y0017567D01*
X0317000Y0017425D01*
X0317060Y0017281D01*
X0317116Y0017136D01*
X0317169Y0016989D01*
X0317218Y0016841D01*
X0317263Y0016692D01*
X0317304Y0016542D01*
X0317341Y0016390D01*
X0317375Y0016238D01*
X0317405Y0016085D01*
X0317430Y0015931D01*
X0317452Y0015777D01*
X0317470Y0015622D01*
X0317484Y0015467D01*
X0317494Y0015312D01*
X0317500Y0015156D01*
X0317502Y0015000D01*
X0317500Y0014844D01*
X0317494Y0014688D01*
X0317484Y0014533D01*
X0317470Y0014378D01*
X0317452Y0014223D01*
X0317430Y0014069D01*
X0317405Y0013915D01*
X0317375Y0013762D01*
X0317341Y0013610D01*
X0317304Y0013458D01*
X0317263Y0013308D01*
X0317218Y0013159D01*
X0317169Y0013011D01*
X0317116Y0012864D01*
X0317060Y0012719D01*
X0317000Y0012575D01*
X0316936Y0012433D01*
X0316868Y0012292D01*
X0316797Y0012154D01*
X0316723Y0012017D01*
X0316645Y0011882D01*
X0316564Y0011749D01*
X0316479Y0011618D01*
X0316391Y0011489D01*
X0316300Y0011363D01*
X0316205Y0011239D01*
X0316108Y0011118D01*
X0316007Y0010999D01*
X0315903Y0010882D01*
X0315797Y0010769D01*
X0315687Y0010658D01*
X0315575Y0010550D01*
X0315460Y0010445D01*
X0315342Y0010342D01*
X0315222Y0010243D01*
X0315099Y0010147D01*
X0314974Y0010054D01*
X0314847Y0009965D01*
X0314717Y0009878D01*
X0314585Y0009795D01*
X0314451Y0009716D01*
X0314315Y0009639D01*
X0314177Y0009567D01*
X0314038Y0009497D01*
X0313896Y0009432D01*
X0313753Y0009370D01*
X0313609Y0009312D01*
X0313463Y0009257D01*
X0313315Y0009206D01*
X0313167Y0009159D01*
X0313017Y0009116D01*
X0312866Y0009077D01*
X0312714Y0009041D01*
X0312562Y0009010D01*
X0312408Y0008982D01*
X0312254Y0008958D01*
X0312100Y0008938D01*
X0311945Y0008922D01*
X0311789Y0008910D01*
X0311634Y0008902D01*
X0311478Y0008898D01*
X0311322Y0008898D01*
X0311166Y0008902D01*
X0311011Y0008910D01*
X0310855Y0008922D01*
X0310700Y0008938D01*
X0310546Y0008958D01*
X0310392Y0008982D01*
X0310238Y0009010D01*
X0310086Y0009041D01*
X0309934Y0009077D01*
X0309783Y0009116D01*
X0309633Y0009159D01*
X0309485Y0009206D01*
X0309337Y0009257D01*
X0309191Y0009312D01*
X0309047Y0009370D01*
X0308904Y0009432D01*
X0308762Y0009497D01*
X0308623Y0009567D01*
X0308485Y0009639D01*
X0308349Y0009716D01*
X0308215Y0009795D01*
X0308083Y0009878D01*
X0307953Y0009965D01*
X0307826Y0010054D01*
X0307701Y0010147D01*
X0307578Y0010243D01*
X0307458Y0010342D01*
X0307340Y0010445D01*
X0307225Y0010550D01*
X0307113Y0010658D01*
X0307003Y0010769D01*
X0306897Y0010882D01*
X0306793Y0010999D01*
X0306692Y0011118D01*
X0306595Y0011239D01*
X0306500Y0011363D01*
X0306409Y0011489D01*
X0306321Y0011618D01*
X0306236Y0011749D01*
X0306155Y0011882D01*
X0306077Y0012017D01*
X0306003Y0012154D01*
X0305932Y0012292D01*
X0305864Y0012433D01*
X0305800Y0012575D01*
X0305740Y0012719D01*
X0305684Y0012864D01*
X0305631Y0013011D01*
X0305582Y0013159D01*
X0305537Y0013308D01*
X0305496Y0013458D01*
X0305459Y0013610D01*
X0305425Y0013762D01*
X0305395Y0013915D01*
X0305370Y0014069D01*
X0305348Y0014223D01*
X0305330Y0014378D01*
X0305316Y0014533D01*
X0305306Y0014688D01*
X0305300Y0014844D01*
X0305298Y0015000D01*
D11*
X0246400Y0065000D03*
X0206400Y0065000D03*
X0176400Y0135000D03*
X0176400Y0175000D03*
X0201400Y0195000D03*
X0211400Y0195000D03*
X0241400Y0195000D03*
X0251400Y0195000D03*
X0251400Y0165000D03*
X0241400Y0165000D03*
X0251400Y0135000D03*
X0251400Y0225000D03*
X0021400Y0190000D03*
X0021400Y0180000D03*
D12*
X0041400Y0172600D02*
X0041400Y0167400D01*
X0051400Y0167400D02*
X0051400Y0172600D01*
X0061400Y0172600D02*
X0061400Y0167400D01*
X0071400Y0167400D02*
X0071400Y0172600D01*
X0081400Y0172600D02*
X0081400Y0167400D01*
X0091400Y0167400D02*
X0091400Y0172600D01*
X0101400Y0172600D02*
X0101400Y0167400D01*
X0111400Y0167400D02*
X0111400Y0172600D01*
X0121400Y0172600D02*
X0121400Y0167400D01*
X0131400Y0167400D02*
X0131400Y0172600D01*
X0131400Y0197400D02*
X0131400Y0202600D01*
X0121400Y0202600D02*
X0121400Y0197400D01*
X0111400Y0197400D02*
X0111400Y0202600D01*
X0101400Y0202600D02*
X0101400Y0197400D01*
X0091400Y0197400D02*
X0091400Y0202600D01*
X0081400Y0202600D02*
X0081400Y0197400D01*
X0071400Y0197400D02*
X0071400Y0202600D01*
X0061400Y0202600D02*
X0061400Y0197400D01*
X0051400Y0197400D02*
X0051400Y0202600D01*
X0041400Y0202600D02*
X0041400Y0197400D01*
X0181400Y0125200D02*
X0181400Y0120000D01*
X0191400Y0120000D02*
X0191400Y0125200D01*
X0201400Y0125200D02*
X0201400Y0120000D01*
X0211400Y0120000D02*
X0211400Y0125200D01*
X0218800Y0145000D02*
X0224000Y0145000D01*
X0224000Y0155000D02*
X0218800Y0155000D01*
X0218800Y0165000D02*
X0224000Y0165000D01*
X0224000Y0175000D02*
X0218800Y0175000D01*
X0194000Y0175000D02*
X0188800Y0175000D01*
X0188800Y0165000D02*
X0194000Y0165000D01*
X0194000Y0155000D02*
X0188800Y0155000D01*
X0188800Y0145000D02*
X0194000Y0145000D01*
X0243800Y0115000D02*
X0249000Y0115000D01*
X0249000Y0105000D02*
X0243800Y0105000D01*
X0243800Y0095000D02*
X0249000Y0095000D01*
X0249000Y0085000D02*
X0243800Y0085000D01*
X0211400Y0084800D02*
X0211400Y0090000D01*
X0201400Y0090000D02*
X0201400Y0084800D01*
X0191400Y0084800D02*
X0191400Y0090000D01*
X0181400Y0090000D02*
X0181400Y0084800D01*
D13*
X0286400Y0107205D03*
X0286400Y0180945D03*
X0286400Y0240000D03*
X0061400Y0240000D03*
D14*
X0081085Y0240000D03*
X0286400Y0220315D03*
X0286400Y0200630D03*
X0286400Y0161260D03*
X0286400Y0141575D03*
X0286400Y0087520D03*
D15*
X0136400Y0085000D03*
X0126400Y0085000D03*
X0116400Y0085000D03*
X0106400Y0085000D03*
X0096400Y0085000D03*
X0086400Y0085000D03*
X0076400Y0085000D03*
X0066400Y0085000D03*
X0056400Y0085000D03*
X0046400Y0085000D03*
X0036400Y0085000D03*
X0026400Y0085000D03*
X0016400Y0085000D03*
X0006400Y0085000D03*
X0006400Y0145000D03*
X0016400Y0145000D03*
X0026400Y0145000D03*
X0036400Y0145000D03*
X0046400Y0145000D03*
X0056400Y0145000D03*
X0066400Y0145000D03*
X0076400Y0145000D03*
X0086400Y0145000D03*
X0096400Y0145000D03*
X0106400Y0145000D03*
X0116400Y0145000D03*
X0126400Y0145000D03*
X0136400Y0145000D03*
X0136400Y0135000D03*
X0136400Y0125000D03*
X0136400Y0115000D03*
X0136400Y0105000D03*
X0136400Y0095000D03*
D16*
X0262620Y0059331D02*
X0270494Y0059331D01*
X0286243Y0051457D02*
X0286243Y0043583D01*
X0270494Y0034528D02*
X0262620Y0034528D01*
D17*
X0146400Y0055000D03*
X0136400Y0055000D03*
X0126400Y0055000D03*
X0121400Y0045000D03*
X0111400Y0045000D03*
X0101400Y0045000D03*
X0091400Y0045000D03*
X0081400Y0045000D03*
X0071400Y0045000D03*
X0066400Y0055000D03*
X0056400Y0055000D03*
X0051400Y0045000D03*
X0061400Y0045000D03*
X0076400Y0055000D03*
X0086400Y0055000D03*
X0096400Y0055000D03*
X0106400Y0055000D03*
X0116400Y0055000D03*
X0131400Y0045000D03*
X0141400Y0045000D03*
D18*
X0141400Y0060000D01*
X0146400Y0065000D01*
X0146400Y0105000D01*
X0136400Y0105000D01*
X0136400Y0115000D02*
X0151400Y0115000D01*
X0166400Y0115000D02*
X0166400Y0175000D01*
X0161400Y0180000D01*
X0046400Y0180000D01*
X0041400Y0175000D01*
X0041400Y0170000D01*
X0031400Y0170000D01*
X0021400Y0180000D01*
X0041400Y0200000D01*
X0021400Y0180000D02*
X0006400Y0165000D01*
X0006400Y0145000D01*
X0016400Y0085000D02*
X0016400Y0025000D01*
X0191400Y0025000D01*
X0191400Y0065000D01*
X0206400Y0065000D01*
X0191400Y0065000D02*
X0191400Y0090000D01*
X0201400Y0090000D02*
X0201400Y0105000D01*
X0196400Y0110000D01*
X0171400Y0110000D01*
X0166400Y0115000D01*
X0191400Y0120000D02*
X0191400Y0145000D01*
X0191400Y0155000D01*
X0191400Y0165000D01*
X0201400Y0165000D01*
X0201400Y0195000D01*
X0221400Y0165000D02*
X0226400Y0165000D01*
X0241400Y0180000D01*
X0241400Y0195000D01*
X0241400Y0165000D02*
X0231400Y0155000D01*
X0221400Y0155000D01*
X0221400Y0145000D02*
X0191400Y0145000D01*
X0221400Y0145000D02*
X0241400Y0145000D01*
X0251400Y0135000D01*
X0261400Y0107205D02*
X0261400Y0095000D01*
X0246400Y0095000D01*
X0241400Y0095000D01*
X0236400Y0090000D01*
X0211400Y0090000D01*
X0201400Y0090000D01*
X0246400Y0065000D02*
X0261400Y0065000D01*
X0261400Y0060000D01*
X0266557Y0059331D01*
X0261400Y0065000D02*
X0261400Y0095000D01*
X0261400Y0107205D02*
X0286400Y0107205D01*
X0286400Y0161260D02*
X0296400Y0161260D01*
X0296400Y0210000D01*
X0286400Y0210000D01*
X0286400Y0220315D01*
D19*
X0151400Y0115000D03*
X0101400Y0110000D03*
X0131400Y0070000D03*
D20*
X0131400Y0130000D01*
X0136400Y0135000D01*
X0126400Y0145000D02*
X0121400Y0140000D01*
X0121400Y0060000D01*
X0116400Y0055000D01*
X0116400Y0050000D02*
X0111400Y0050000D01*
X0111400Y0140000D01*
X0116400Y0145000D01*
X0096400Y0145000D02*
X0081400Y0130000D01*
X0081400Y0070000D01*
X0066400Y0055000D01*
X0056400Y0055000D02*
X0071400Y0070000D01*
X0071400Y0140000D01*
X0076400Y0145000D01*
X0061400Y0155000D02*
X0051400Y0170000D01*
X0061400Y0155000D02*
X0061400Y0090000D01*
X0056400Y0085000D01*
X0036400Y0085000D02*
X0036400Y0040000D01*
X0076400Y0040000D01*
X0081400Y0045000D01*
X0096400Y0055000D02*
X0101400Y0060000D01*
X0101400Y0110000D01*
X0056400Y0145000D02*
X0041400Y0130000D01*
X0041400Y0065000D01*
X0053900Y0050000D01*
X0106400Y0050000D01*
X0111400Y0045000D01*
X0116400Y0050000D02*
X0121400Y0045000D01*
M02*
