%
M48
M72
T01C0.03150
T02C0.03937
T03C0.04000
T04C0.05906
T05C0.06693
T06C0.12205
T07C0.12598
T08C0.13780
%
T01
X108756Y222142
X113756Y212142
X118756Y222142
X123756Y212142
X128756Y222142
X138756Y222142
X143756Y212142
X133756Y212142
X148756Y222142
X153756Y212142
T02
X253969Y156765
X249811Y165682
X245650Y174603
T03
X81496Y120923
X81496Y130923
X81496Y140923
X180178Y140923
X180178Y130923
X180178Y120923
T04
X160134Y220705
T05
X249894Y94548
T06
X130922Y235253
X130922Y26591
T07
X20764Y16827
X89661Y79819
X172339Y79819
X241236Y16827
X172339Y182181
X89661Y182181
X20764Y241236
X241236Y241236
T08
X68323Y239347
X239347Y68324
X42394Y42395
M30
