G75*
%MOIN*%
%OFA0B0*%
%FSLAX25Y25*%
%IPPOS*%
%LPD*%
%AMOC8*
5,1,8,0,0,1.08239X$1,22.5*
%
%ADD10C,0.00000*%
%ADD11C,0.12998*%
%ADD12C,0.06400*%
%ADD13C,0.12605*%
%ADD14C,0.14180*%
%ADD15C,0.07400*%
%ADD16C,0.07093*%
%ADD17C,0.06000*%
%ADD18C,0.06306*%
D10*
X0001000Y0001000D02*
X0001000Y0260724D01*
X0260921Y0260882D01*
X0260921Y0001000D01*
X0001000Y0001000D01*
X0014465Y0016827D02*
X0014467Y0016985D01*
X0014473Y0017143D01*
X0014483Y0017301D01*
X0014497Y0017459D01*
X0014515Y0017616D01*
X0014536Y0017773D01*
X0014562Y0017929D01*
X0014592Y0018085D01*
X0014625Y0018240D01*
X0014663Y0018393D01*
X0014704Y0018546D01*
X0014749Y0018698D01*
X0014798Y0018849D01*
X0014851Y0018998D01*
X0014907Y0019146D01*
X0014967Y0019292D01*
X0015031Y0019437D01*
X0015099Y0019580D01*
X0015170Y0019722D01*
X0015244Y0019862D01*
X0015322Y0019999D01*
X0015404Y0020135D01*
X0015488Y0020269D01*
X0015577Y0020400D01*
X0015668Y0020529D01*
X0015763Y0020656D01*
X0015860Y0020781D01*
X0015961Y0020903D01*
X0016065Y0021022D01*
X0016172Y0021139D01*
X0016282Y0021253D01*
X0016395Y0021364D01*
X0016510Y0021473D01*
X0016628Y0021578D01*
X0016749Y0021680D01*
X0016872Y0021780D01*
X0016998Y0021876D01*
X0017126Y0021969D01*
X0017256Y0022059D01*
X0017389Y0022145D01*
X0017524Y0022229D01*
X0017660Y0022308D01*
X0017799Y0022385D01*
X0017940Y0022457D01*
X0018082Y0022527D01*
X0018226Y0022592D01*
X0018372Y0022654D01*
X0018519Y0022712D01*
X0018668Y0022767D01*
X0018818Y0022818D01*
X0018969Y0022865D01*
X0019121Y0022908D01*
X0019274Y0022947D01*
X0019429Y0022983D01*
X0019584Y0023014D01*
X0019740Y0023042D01*
X0019896Y0023066D01*
X0020053Y0023086D01*
X0020211Y0023102D01*
X0020368Y0023114D01*
X0020527Y0023122D01*
X0020685Y0023126D01*
X0020843Y0023126D01*
X0021001Y0023122D01*
X0021160Y0023114D01*
X0021317Y0023102D01*
X0021475Y0023086D01*
X0021632Y0023066D01*
X0021788Y0023042D01*
X0021944Y0023014D01*
X0022099Y0022983D01*
X0022254Y0022947D01*
X0022407Y0022908D01*
X0022559Y0022865D01*
X0022710Y0022818D01*
X0022860Y0022767D01*
X0023009Y0022712D01*
X0023156Y0022654D01*
X0023302Y0022592D01*
X0023446Y0022527D01*
X0023588Y0022457D01*
X0023729Y0022385D01*
X0023868Y0022308D01*
X0024004Y0022229D01*
X0024139Y0022145D01*
X0024272Y0022059D01*
X0024402Y0021969D01*
X0024530Y0021876D01*
X0024656Y0021780D01*
X0024779Y0021680D01*
X0024900Y0021578D01*
X0025018Y0021473D01*
X0025133Y0021364D01*
X0025246Y0021253D01*
X0025356Y0021139D01*
X0025463Y0021022D01*
X0025567Y0020903D01*
X0025668Y0020781D01*
X0025765Y0020656D01*
X0025860Y0020529D01*
X0025951Y0020400D01*
X0026040Y0020269D01*
X0026124Y0020135D01*
X0026206Y0019999D01*
X0026284Y0019862D01*
X0026358Y0019722D01*
X0026429Y0019580D01*
X0026497Y0019437D01*
X0026561Y0019292D01*
X0026621Y0019146D01*
X0026677Y0018998D01*
X0026730Y0018849D01*
X0026779Y0018698D01*
X0026824Y0018546D01*
X0026865Y0018393D01*
X0026903Y0018240D01*
X0026936Y0018085D01*
X0026966Y0017929D01*
X0026992Y0017773D01*
X0027013Y0017616D01*
X0027031Y0017459D01*
X0027045Y0017301D01*
X0027055Y0017143D01*
X0027061Y0016985D01*
X0027063Y0016827D01*
X0027061Y0016669D01*
X0027055Y0016511D01*
X0027045Y0016353D01*
X0027031Y0016195D01*
X0027013Y0016038D01*
X0026992Y0015881D01*
X0026966Y0015725D01*
X0026936Y0015569D01*
X0026903Y0015414D01*
X0026865Y0015261D01*
X0026824Y0015108D01*
X0026779Y0014956D01*
X0026730Y0014805D01*
X0026677Y0014656D01*
X0026621Y0014508D01*
X0026561Y0014362D01*
X0026497Y0014217D01*
X0026429Y0014074D01*
X0026358Y0013932D01*
X0026284Y0013792D01*
X0026206Y0013655D01*
X0026124Y0013519D01*
X0026040Y0013385D01*
X0025951Y0013254D01*
X0025860Y0013125D01*
X0025765Y0012998D01*
X0025668Y0012873D01*
X0025567Y0012751D01*
X0025463Y0012632D01*
X0025356Y0012515D01*
X0025246Y0012401D01*
X0025133Y0012290D01*
X0025018Y0012181D01*
X0024900Y0012076D01*
X0024779Y0011974D01*
X0024656Y0011874D01*
X0024530Y0011778D01*
X0024402Y0011685D01*
X0024272Y0011595D01*
X0024139Y0011509D01*
X0024004Y0011425D01*
X0023868Y0011346D01*
X0023729Y0011269D01*
X0023588Y0011197D01*
X0023446Y0011127D01*
X0023302Y0011062D01*
X0023156Y0011000D01*
X0023009Y0010942D01*
X0022860Y0010887D01*
X0022710Y0010836D01*
X0022559Y0010789D01*
X0022407Y0010746D01*
X0022254Y0010707D01*
X0022099Y0010671D01*
X0021944Y0010640D01*
X0021788Y0010612D01*
X0021632Y0010588D01*
X0021475Y0010568D01*
X0021317Y0010552D01*
X0021160Y0010540D01*
X0021001Y0010532D01*
X0020843Y0010528D01*
X0020685Y0010528D01*
X0020527Y0010532D01*
X0020368Y0010540D01*
X0020211Y0010552D01*
X0020053Y0010568D01*
X0019896Y0010588D01*
X0019740Y0010612D01*
X0019584Y0010640D01*
X0019429Y0010671D01*
X0019274Y0010707D01*
X0019121Y0010746D01*
X0018969Y0010789D01*
X0018818Y0010836D01*
X0018668Y0010887D01*
X0018519Y0010942D01*
X0018372Y0011000D01*
X0018226Y0011062D01*
X0018082Y0011127D01*
X0017940Y0011197D01*
X0017799Y0011269D01*
X0017660Y0011346D01*
X0017524Y0011425D01*
X0017389Y0011509D01*
X0017256Y0011595D01*
X0017126Y0011685D01*
X0016998Y0011778D01*
X0016872Y0011874D01*
X0016749Y0011974D01*
X0016628Y0012076D01*
X0016510Y0012181D01*
X0016395Y0012290D01*
X0016282Y0012401D01*
X0016172Y0012515D01*
X0016065Y0012632D01*
X0015961Y0012751D01*
X0015860Y0012873D01*
X0015763Y0012998D01*
X0015668Y0013125D01*
X0015577Y0013254D01*
X0015488Y0013385D01*
X0015404Y0013519D01*
X0015322Y0013655D01*
X0015244Y0013792D01*
X0015170Y0013932D01*
X0015099Y0014074D01*
X0015031Y0014217D01*
X0014967Y0014362D01*
X0014907Y0014508D01*
X0014851Y0014656D01*
X0014798Y0014805D01*
X0014749Y0014956D01*
X0014704Y0015108D01*
X0014663Y0015261D01*
X0014625Y0015414D01*
X0014592Y0015569D01*
X0014562Y0015725D01*
X0014536Y0015881D01*
X0014515Y0016038D01*
X0014497Y0016195D01*
X0014483Y0016353D01*
X0014473Y0016511D01*
X0014467Y0016669D01*
X0014465Y0016827D01*
X0035504Y0042395D02*
X0035506Y0042564D01*
X0035512Y0042733D01*
X0035523Y0042902D01*
X0035537Y0043070D01*
X0035556Y0043238D01*
X0035579Y0043406D01*
X0035605Y0043573D01*
X0035636Y0043739D01*
X0035671Y0043905D01*
X0035710Y0044069D01*
X0035754Y0044233D01*
X0035801Y0044395D01*
X0035852Y0044556D01*
X0035907Y0044716D01*
X0035966Y0044875D01*
X0036028Y0045032D01*
X0036095Y0045187D01*
X0036166Y0045341D01*
X0036240Y0045493D01*
X0036318Y0045643D01*
X0036399Y0045791D01*
X0036484Y0045937D01*
X0036573Y0046081D01*
X0036665Y0046223D01*
X0036761Y0046362D01*
X0036860Y0046499D01*
X0036962Y0046634D01*
X0037068Y0046766D01*
X0037177Y0046895D01*
X0037289Y0047022D01*
X0037404Y0047146D01*
X0037522Y0047267D01*
X0037643Y0047385D01*
X0037767Y0047500D01*
X0037894Y0047612D01*
X0038023Y0047721D01*
X0038155Y0047827D01*
X0038290Y0047929D01*
X0038427Y0048028D01*
X0038566Y0048124D01*
X0038708Y0048216D01*
X0038852Y0048305D01*
X0038998Y0048390D01*
X0039146Y0048471D01*
X0039296Y0048549D01*
X0039448Y0048623D01*
X0039602Y0048694D01*
X0039757Y0048761D01*
X0039914Y0048823D01*
X0040073Y0048882D01*
X0040233Y0048937D01*
X0040394Y0048988D01*
X0040556Y0049035D01*
X0040720Y0049079D01*
X0040884Y0049118D01*
X0041050Y0049153D01*
X0041216Y0049184D01*
X0041383Y0049210D01*
X0041551Y0049233D01*
X0041719Y0049252D01*
X0041887Y0049266D01*
X0042056Y0049277D01*
X0042225Y0049283D01*
X0042394Y0049285D01*
X0042563Y0049283D01*
X0042732Y0049277D01*
X0042901Y0049266D01*
X0043069Y0049252D01*
X0043237Y0049233D01*
X0043405Y0049210D01*
X0043572Y0049184D01*
X0043738Y0049153D01*
X0043904Y0049118D01*
X0044068Y0049079D01*
X0044232Y0049035D01*
X0044394Y0048988D01*
X0044555Y0048937D01*
X0044715Y0048882D01*
X0044874Y0048823D01*
X0045031Y0048761D01*
X0045186Y0048694D01*
X0045340Y0048623D01*
X0045492Y0048549D01*
X0045642Y0048471D01*
X0045790Y0048390D01*
X0045936Y0048305D01*
X0046080Y0048216D01*
X0046222Y0048124D01*
X0046361Y0048028D01*
X0046498Y0047929D01*
X0046633Y0047827D01*
X0046765Y0047721D01*
X0046894Y0047612D01*
X0047021Y0047500D01*
X0047145Y0047385D01*
X0047266Y0047267D01*
X0047384Y0047146D01*
X0047499Y0047022D01*
X0047611Y0046895D01*
X0047720Y0046766D01*
X0047826Y0046634D01*
X0047928Y0046499D01*
X0048027Y0046362D01*
X0048123Y0046223D01*
X0048215Y0046081D01*
X0048304Y0045937D01*
X0048389Y0045791D01*
X0048470Y0045643D01*
X0048548Y0045493D01*
X0048622Y0045341D01*
X0048693Y0045187D01*
X0048760Y0045032D01*
X0048822Y0044875D01*
X0048881Y0044716D01*
X0048936Y0044556D01*
X0048987Y0044395D01*
X0049034Y0044233D01*
X0049078Y0044069D01*
X0049117Y0043905D01*
X0049152Y0043739D01*
X0049183Y0043573D01*
X0049209Y0043406D01*
X0049232Y0043238D01*
X0049251Y0043070D01*
X0049265Y0042902D01*
X0049276Y0042733D01*
X0049282Y0042564D01*
X0049284Y0042395D01*
X0049282Y0042226D01*
X0049276Y0042057D01*
X0049265Y0041888D01*
X0049251Y0041720D01*
X0049232Y0041552D01*
X0049209Y0041384D01*
X0049183Y0041217D01*
X0049152Y0041051D01*
X0049117Y0040885D01*
X0049078Y0040721D01*
X0049034Y0040557D01*
X0048987Y0040395D01*
X0048936Y0040234D01*
X0048881Y0040074D01*
X0048822Y0039915D01*
X0048760Y0039758D01*
X0048693Y0039603D01*
X0048622Y0039449D01*
X0048548Y0039297D01*
X0048470Y0039147D01*
X0048389Y0038999D01*
X0048304Y0038853D01*
X0048215Y0038709D01*
X0048123Y0038567D01*
X0048027Y0038428D01*
X0047928Y0038291D01*
X0047826Y0038156D01*
X0047720Y0038024D01*
X0047611Y0037895D01*
X0047499Y0037768D01*
X0047384Y0037644D01*
X0047266Y0037523D01*
X0047145Y0037405D01*
X0047021Y0037290D01*
X0046894Y0037178D01*
X0046765Y0037069D01*
X0046633Y0036963D01*
X0046498Y0036861D01*
X0046361Y0036762D01*
X0046222Y0036666D01*
X0046080Y0036574D01*
X0045936Y0036485D01*
X0045790Y0036400D01*
X0045642Y0036319D01*
X0045492Y0036241D01*
X0045340Y0036167D01*
X0045186Y0036096D01*
X0045031Y0036029D01*
X0044874Y0035967D01*
X0044715Y0035908D01*
X0044555Y0035853D01*
X0044394Y0035802D01*
X0044232Y0035755D01*
X0044068Y0035711D01*
X0043904Y0035672D01*
X0043738Y0035637D01*
X0043572Y0035606D01*
X0043405Y0035580D01*
X0043237Y0035557D01*
X0043069Y0035538D01*
X0042901Y0035524D01*
X0042732Y0035513D01*
X0042563Y0035507D01*
X0042394Y0035505D01*
X0042225Y0035507D01*
X0042056Y0035513D01*
X0041887Y0035524D01*
X0041719Y0035538D01*
X0041551Y0035557D01*
X0041383Y0035580D01*
X0041216Y0035606D01*
X0041050Y0035637D01*
X0040884Y0035672D01*
X0040720Y0035711D01*
X0040556Y0035755D01*
X0040394Y0035802D01*
X0040233Y0035853D01*
X0040073Y0035908D01*
X0039914Y0035967D01*
X0039757Y0036029D01*
X0039602Y0036096D01*
X0039448Y0036167D01*
X0039296Y0036241D01*
X0039146Y0036319D01*
X0038998Y0036400D01*
X0038852Y0036485D01*
X0038708Y0036574D01*
X0038566Y0036666D01*
X0038427Y0036762D01*
X0038290Y0036861D01*
X0038155Y0036963D01*
X0038023Y0037069D01*
X0037894Y0037178D01*
X0037767Y0037290D01*
X0037643Y0037405D01*
X0037522Y0037523D01*
X0037404Y0037644D01*
X0037289Y0037768D01*
X0037177Y0037895D01*
X0037068Y0038024D01*
X0036962Y0038156D01*
X0036860Y0038291D01*
X0036761Y0038428D01*
X0036665Y0038567D01*
X0036573Y0038709D01*
X0036484Y0038853D01*
X0036399Y0038999D01*
X0036318Y0039147D01*
X0036240Y0039297D01*
X0036166Y0039449D01*
X0036095Y0039603D01*
X0036028Y0039758D01*
X0035966Y0039915D01*
X0035907Y0040074D01*
X0035852Y0040234D01*
X0035801Y0040395D01*
X0035754Y0040557D01*
X0035710Y0040721D01*
X0035671Y0040885D01*
X0035636Y0041051D01*
X0035605Y0041217D01*
X0035579Y0041384D01*
X0035556Y0041552D01*
X0035537Y0041720D01*
X0035523Y0041888D01*
X0035512Y0042057D01*
X0035506Y0042226D01*
X0035504Y0042395D01*
X0083362Y0079819D02*
X0083364Y0079977D01*
X0083370Y0080135D01*
X0083380Y0080293D01*
X0083394Y0080451D01*
X0083412Y0080608D01*
X0083433Y0080765D01*
X0083459Y0080921D01*
X0083489Y0081077D01*
X0083522Y0081232D01*
X0083560Y0081385D01*
X0083601Y0081538D01*
X0083646Y0081690D01*
X0083695Y0081841D01*
X0083748Y0081990D01*
X0083804Y0082138D01*
X0083864Y0082284D01*
X0083928Y0082429D01*
X0083996Y0082572D01*
X0084067Y0082714D01*
X0084141Y0082854D01*
X0084219Y0082991D01*
X0084301Y0083127D01*
X0084385Y0083261D01*
X0084474Y0083392D01*
X0084565Y0083521D01*
X0084660Y0083648D01*
X0084757Y0083773D01*
X0084858Y0083895D01*
X0084962Y0084014D01*
X0085069Y0084131D01*
X0085179Y0084245D01*
X0085292Y0084356D01*
X0085407Y0084465D01*
X0085525Y0084570D01*
X0085646Y0084672D01*
X0085769Y0084772D01*
X0085895Y0084868D01*
X0086023Y0084961D01*
X0086153Y0085051D01*
X0086286Y0085137D01*
X0086421Y0085221D01*
X0086557Y0085300D01*
X0086696Y0085377D01*
X0086837Y0085449D01*
X0086979Y0085519D01*
X0087123Y0085584D01*
X0087269Y0085646D01*
X0087416Y0085704D01*
X0087565Y0085759D01*
X0087715Y0085810D01*
X0087866Y0085857D01*
X0088018Y0085900D01*
X0088171Y0085939D01*
X0088326Y0085975D01*
X0088481Y0086006D01*
X0088637Y0086034D01*
X0088793Y0086058D01*
X0088950Y0086078D01*
X0089108Y0086094D01*
X0089265Y0086106D01*
X0089424Y0086114D01*
X0089582Y0086118D01*
X0089740Y0086118D01*
X0089898Y0086114D01*
X0090057Y0086106D01*
X0090214Y0086094D01*
X0090372Y0086078D01*
X0090529Y0086058D01*
X0090685Y0086034D01*
X0090841Y0086006D01*
X0090996Y0085975D01*
X0091151Y0085939D01*
X0091304Y0085900D01*
X0091456Y0085857D01*
X0091607Y0085810D01*
X0091757Y0085759D01*
X0091906Y0085704D01*
X0092053Y0085646D01*
X0092199Y0085584D01*
X0092343Y0085519D01*
X0092485Y0085449D01*
X0092626Y0085377D01*
X0092765Y0085300D01*
X0092901Y0085221D01*
X0093036Y0085137D01*
X0093169Y0085051D01*
X0093299Y0084961D01*
X0093427Y0084868D01*
X0093553Y0084772D01*
X0093676Y0084672D01*
X0093797Y0084570D01*
X0093915Y0084465D01*
X0094030Y0084356D01*
X0094143Y0084245D01*
X0094253Y0084131D01*
X0094360Y0084014D01*
X0094464Y0083895D01*
X0094565Y0083773D01*
X0094662Y0083648D01*
X0094757Y0083521D01*
X0094848Y0083392D01*
X0094937Y0083261D01*
X0095021Y0083127D01*
X0095103Y0082991D01*
X0095181Y0082854D01*
X0095255Y0082714D01*
X0095326Y0082572D01*
X0095394Y0082429D01*
X0095458Y0082284D01*
X0095518Y0082138D01*
X0095574Y0081990D01*
X0095627Y0081841D01*
X0095676Y0081690D01*
X0095721Y0081538D01*
X0095762Y0081385D01*
X0095800Y0081232D01*
X0095833Y0081077D01*
X0095863Y0080921D01*
X0095889Y0080765D01*
X0095910Y0080608D01*
X0095928Y0080451D01*
X0095942Y0080293D01*
X0095952Y0080135D01*
X0095958Y0079977D01*
X0095960Y0079819D01*
X0095958Y0079661D01*
X0095952Y0079503D01*
X0095942Y0079345D01*
X0095928Y0079187D01*
X0095910Y0079030D01*
X0095889Y0078873D01*
X0095863Y0078717D01*
X0095833Y0078561D01*
X0095800Y0078406D01*
X0095762Y0078253D01*
X0095721Y0078100D01*
X0095676Y0077948D01*
X0095627Y0077797D01*
X0095574Y0077648D01*
X0095518Y0077500D01*
X0095458Y0077354D01*
X0095394Y0077209D01*
X0095326Y0077066D01*
X0095255Y0076924D01*
X0095181Y0076784D01*
X0095103Y0076647D01*
X0095021Y0076511D01*
X0094937Y0076377D01*
X0094848Y0076246D01*
X0094757Y0076117D01*
X0094662Y0075990D01*
X0094565Y0075865D01*
X0094464Y0075743D01*
X0094360Y0075624D01*
X0094253Y0075507D01*
X0094143Y0075393D01*
X0094030Y0075282D01*
X0093915Y0075173D01*
X0093797Y0075068D01*
X0093676Y0074966D01*
X0093553Y0074866D01*
X0093427Y0074770D01*
X0093299Y0074677D01*
X0093169Y0074587D01*
X0093036Y0074501D01*
X0092901Y0074417D01*
X0092765Y0074338D01*
X0092626Y0074261D01*
X0092485Y0074189D01*
X0092343Y0074119D01*
X0092199Y0074054D01*
X0092053Y0073992D01*
X0091906Y0073934D01*
X0091757Y0073879D01*
X0091607Y0073828D01*
X0091456Y0073781D01*
X0091304Y0073738D01*
X0091151Y0073699D01*
X0090996Y0073663D01*
X0090841Y0073632D01*
X0090685Y0073604D01*
X0090529Y0073580D01*
X0090372Y0073560D01*
X0090214Y0073544D01*
X0090057Y0073532D01*
X0089898Y0073524D01*
X0089740Y0073520D01*
X0089582Y0073520D01*
X0089424Y0073524D01*
X0089265Y0073532D01*
X0089108Y0073544D01*
X0088950Y0073560D01*
X0088793Y0073580D01*
X0088637Y0073604D01*
X0088481Y0073632D01*
X0088326Y0073663D01*
X0088171Y0073699D01*
X0088018Y0073738D01*
X0087866Y0073781D01*
X0087715Y0073828D01*
X0087565Y0073879D01*
X0087416Y0073934D01*
X0087269Y0073992D01*
X0087123Y0074054D01*
X0086979Y0074119D01*
X0086837Y0074189D01*
X0086696Y0074261D01*
X0086557Y0074338D01*
X0086421Y0074417D01*
X0086286Y0074501D01*
X0086153Y0074587D01*
X0086023Y0074677D01*
X0085895Y0074770D01*
X0085769Y0074866D01*
X0085646Y0074966D01*
X0085525Y0075068D01*
X0085407Y0075173D01*
X0085292Y0075282D01*
X0085179Y0075393D01*
X0085069Y0075507D01*
X0084962Y0075624D01*
X0084858Y0075743D01*
X0084757Y0075865D01*
X0084660Y0075990D01*
X0084565Y0076117D01*
X0084474Y0076246D01*
X0084385Y0076377D01*
X0084301Y0076511D01*
X0084219Y0076647D01*
X0084141Y0076784D01*
X0084067Y0076924D01*
X0083996Y0077066D01*
X0083928Y0077209D01*
X0083864Y0077354D01*
X0083804Y0077500D01*
X0083748Y0077648D01*
X0083695Y0077797D01*
X0083646Y0077948D01*
X0083601Y0078100D01*
X0083560Y0078253D01*
X0083522Y0078406D01*
X0083489Y0078561D01*
X0083459Y0078717D01*
X0083433Y0078873D01*
X0083412Y0079030D01*
X0083394Y0079187D01*
X0083380Y0079345D01*
X0083370Y0079503D01*
X0083364Y0079661D01*
X0083362Y0079819D01*
X0124820Y0026591D02*
X0124822Y0026747D01*
X0124828Y0026903D01*
X0124838Y0027058D01*
X0124852Y0027213D01*
X0124870Y0027368D01*
X0124892Y0027522D01*
X0124917Y0027676D01*
X0124947Y0027829D01*
X0124981Y0027981D01*
X0125018Y0028133D01*
X0125059Y0028283D01*
X0125104Y0028432D01*
X0125153Y0028580D01*
X0125206Y0028727D01*
X0125262Y0028872D01*
X0125322Y0029016D01*
X0125386Y0029158D01*
X0125454Y0029299D01*
X0125525Y0029437D01*
X0125599Y0029574D01*
X0125677Y0029709D01*
X0125758Y0029842D01*
X0125843Y0029973D01*
X0125931Y0030102D01*
X0126022Y0030228D01*
X0126117Y0030352D01*
X0126214Y0030473D01*
X0126315Y0030592D01*
X0126419Y0030709D01*
X0126525Y0030822D01*
X0126635Y0030933D01*
X0126747Y0031041D01*
X0126862Y0031146D01*
X0126980Y0031249D01*
X0127100Y0031348D01*
X0127223Y0031444D01*
X0127348Y0031537D01*
X0127475Y0031626D01*
X0127605Y0031713D01*
X0127737Y0031796D01*
X0127871Y0031875D01*
X0128007Y0031952D01*
X0128145Y0032024D01*
X0128284Y0032094D01*
X0128426Y0032159D01*
X0128569Y0032221D01*
X0128713Y0032279D01*
X0128859Y0032334D01*
X0129007Y0032385D01*
X0129155Y0032432D01*
X0129305Y0032475D01*
X0129456Y0032514D01*
X0129608Y0032550D01*
X0129760Y0032581D01*
X0129914Y0032609D01*
X0130068Y0032633D01*
X0130222Y0032653D01*
X0130377Y0032669D01*
X0130533Y0032681D01*
X0130688Y0032689D01*
X0130844Y0032693D01*
X0131000Y0032693D01*
X0131156Y0032689D01*
X0131311Y0032681D01*
X0131467Y0032669D01*
X0131622Y0032653D01*
X0131776Y0032633D01*
X0131930Y0032609D01*
X0132084Y0032581D01*
X0132236Y0032550D01*
X0132388Y0032514D01*
X0132539Y0032475D01*
X0132689Y0032432D01*
X0132837Y0032385D01*
X0132985Y0032334D01*
X0133131Y0032279D01*
X0133275Y0032221D01*
X0133418Y0032159D01*
X0133560Y0032094D01*
X0133699Y0032024D01*
X0133837Y0031952D01*
X0133973Y0031875D01*
X0134107Y0031796D01*
X0134239Y0031713D01*
X0134369Y0031626D01*
X0134496Y0031537D01*
X0134621Y0031444D01*
X0134744Y0031348D01*
X0134864Y0031249D01*
X0134982Y0031146D01*
X0135097Y0031041D01*
X0135209Y0030933D01*
X0135319Y0030822D01*
X0135425Y0030709D01*
X0135529Y0030592D01*
X0135630Y0030473D01*
X0135727Y0030352D01*
X0135822Y0030228D01*
X0135913Y0030102D01*
X0136001Y0029973D01*
X0136086Y0029842D01*
X0136167Y0029709D01*
X0136245Y0029574D01*
X0136319Y0029437D01*
X0136390Y0029299D01*
X0136458Y0029158D01*
X0136522Y0029016D01*
X0136582Y0028872D01*
X0136638Y0028727D01*
X0136691Y0028580D01*
X0136740Y0028432D01*
X0136785Y0028283D01*
X0136826Y0028133D01*
X0136863Y0027981D01*
X0136897Y0027829D01*
X0136927Y0027676D01*
X0136952Y0027522D01*
X0136974Y0027368D01*
X0136992Y0027213D01*
X0137006Y0027058D01*
X0137016Y0026903D01*
X0137022Y0026747D01*
X0137024Y0026591D01*
X0137022Y0026435D01*
X0137016Y0026279D01*
X0137006Y0026124D01*
X0136992Y0025969D01*
X0136974Y0025814D01*
X0136952Y0025660D01*
X0136927Y0025506D01*
X0136897Y0025353D01*
X0136863Y0025201D01*
X0136826Y0025049D01*
X0136785Y0024899D01*
X0136740Y0024750D01*
X0136691Y0024602D01*
X0136638Y0024455D01*
X0136582Y0024310D01*
X0136522Y0024166D01*
X0136458Y0024024D01*
X0136390Y0023883D01*
X0136319Y0023745D01*
X0136245Y0023608D01*
X0136167Y0023473D01*
X0136086Y0023340D01*
X0136001Y0023209D01*
X0135913Y0023080D01*
X0135822Y0022954D01*
X0135727Y0022830D01*
X0135630Y0022709D01*
X0135529Y0022590D01*
X0135425Y0022473D01*
X0135319Y0022360D01*
X0135209Y0022249D01*
X0135097Y0022141D01*
X0134982Y0022036D01*
X0134864Y0021933D01*
X0134744Y0021834D01*
X0134621Y0021738D01*
X0134496Y0021645D01*
X0134369Y0021556D01*
X0134239Y0021469D01*
X0134107Y0021386D01*
X0133973Y0021307D01*
X0133837Y0021230D01*
X0133699Y0021158D01*
X0133560Y0021088D01*
X0133418Y0021023D01*
X0133275Y0020961D01*
X0133131Y0020903D01*
X0132985Y0020848D01*
X0132837Y0020797D01*
X0132689Y0020750D01*
X0132539Y0020707D01*
X0132388Y0020668D01*
X0132236Y0020632D01*
X0132084Y0020601D01*
X0131930Y0020573D01*
X0131776Y0020549D01*
X0131622Y0020529D01*
X0131467Y0020513D01*
X0131311Y0020501D01*
X0131156Y0020493D01*
X0131000Y0020489D01*
X0130844Y0020489D01*
X0130688Y0020493D01*
X0130533Y0020501D01*
X0130377Y0020513D01*
X0130222Y0020529D01*
X0130068Y0020549D01*
X0129914Y0020573D01*
X0129760Y0020601D01*
X0129608Y0020632D01*
X0129456Y0020668D01*
X0129305Y0020707D01*
X0129155Y0020750D01*
X0129007Y0020797D01*
X0128859Y0020848D01*
X0128713Y0020903D01*
X0128569Y0020961D01*
X0128426Y0021023D01*
X0128284Y0021088D01*
X0128145Y0021158D01*
X0128007Y0021230D01*
X0127871Y0021307D01*
X0127737Y0021386D01*
X0127605Y0021469D01*
X0127475Y0021556D01*
X0127348Y0021645D01*
X0127223Y0021738D01*
X0127100Y0021834D01*
X0126980Y0021933D01*
X0126862Y0022036D01*
X0126747Y0022141D01*
X0126635Y0022249D01*
X0126525Y0022360D01*
X0126419Y0022473D01*
X0126315Y0022590D01*
X0126214Y0022709D01*
X0126117Y0022830D01*
X0126022Y0022954D01*
X0125931Y0023080D01*
X0125843Y0023209D01*
X0125758Y0023340D01*
X0125677Y0023473D01*
X0125599Y0023608D01*
X0125525Y0023745D01*
X0125454Y0023883D01*
X0125386Y0024024D01*
X0125322Y0024166D01*
X0125262Y0024310D01*
X0125206Y0024455D01*
X0125153Y0024602D01*
X0125104Y0024750D01*
X0125059Y0024899D01*
X0125018Y0025049D01*
X0124981Y0025201D01*
X0124947Y0025353D01*
X0124917Y0025506D01*
X0124892Y0025660D01*
X0124870Y0025814D01*
X0124852Y0025969D01*
X0124838Y0026124D01*
X0124828Y0026279D01*
X0124822Y0026435D01*
X0124820Y0026591D01*
X0166040Y0079819D02*
X0166042Y0079977D01*
X0166048Y0080135D01*
X0166058Y0080293D01*
X0166072Y0080451D01*
X0166090Y0080608D01*
X0166111Y0080765D01*
X0166137Y0080921D01*
X0166167Y0081077D01*
X0166200Y0081232D01*
X0166238Y0081385D01*
X0166279Y0081538D01*
X0166324Y0081690D01*
X0166373Y0081841D01*
X0166426Y0081990D01*
X0166482Y0082138D01*
X0166542Y0082284D01*
X0166606Y0082429D01*
X0166674Y0082572D01*
X0166745Y0082714D01*
X0166819Y0082854D01*
X0166897Y0082991D01*
X0166979Y0083127D01*
X0167063Y0083261D01*
X0167152Y0083392D01*
X0167243Y0083521D01*
X0167338Y0083648D01*
X0167435Y0083773D01*
X0167536Y0083895D01*
X0167640Y0084014D01*
X0167747Y0084131D01*
X0167857Y0084245D01*
X0167970Y0084356D01*
X0168085Y0084465D01*
X0168203Y0084570D01*
X0168324Y0084672D01*
X0168447Y0084772D01*
X0168573Y0084868D01*
X0168701Y0084961D01*
X0168831Y0085051D01*
X0168964Y0085137D01*
X0169099Y0085221D01*
X0169235Y0085300D01*
X0169374Y0085377D01*
X0169515Y0085449D01*
X0169657Y0085519D01*
X0169801Y0085584D01*
X0169947Y0085646D01*
X0170094Y0085704D01*
X0170243Y0085759D01*
X0170393Y0085810D01*
X0170544Y0085857D01*
X0170696Y0085900D01*
X0170849Y0085939D01*
X0171004Y0085975D01*
X0171159Y0086006D01*
X0171315Y0086034D01*
X0171471Y0086058D01*
X0171628Y0086078D01*
X0171786Y0086094D01*
X0171943Y0086106D01*
X0172102Y0086114D01*
X0172260Y0086118D01*
X0172418Y0086118D01*
X0172576Y0086114D01*
X0172735Y0086106D01*
X0172892Y0086094D01*
X0173050Y0086078D01*
X0173207Y0086058D01*
X0173363Y0086034D01*
X0173519Y0086006D01*
X0173674Y0085975D01*
X0173829Y0085939D01*
X0173982Y0085900D01*
X0174134Y0085857D01*
X0174285Y0085810D01*
X0174435Y0085759D01*
X0174584Y0085704D01*
X0174731Y0085646D01*
X0174877Y0085584D01*
X0175021Y0085519D01*
X0175163Y0085449D01*
X0175304Y0085377D01*
X0175443Y0085300D01*
X0175579Y0085221D01*
X0175714Y0085137D01*
X0175847Y0085051D01*
X0175977Y0084961D01*
X0176105Y0084868D01*
X0176231Y0084772D01*
X0176354Y0084672D01*
X0176475Y0084570D01*
X0176593Y0084465D01*
X0176708Y0084356D01*
X0176821Y0084245D01*
X0176931Y0084131D01*
X0177038Y0084014D01*
X0177142Y0083895D01*
X0177243Y0083773D01*
X0177340Y0083648D01*
X0177435Y0083521D01*
X0177526Y0083392D01*
X0177615Y0083261D01*
X0177699Y0083127D01*
X0177781Y0082991D01*
X0177859Y0082854D01*
X0177933Y0082714D01*
X0178004Y0082572D01*
X0178072Y0082429D01*
X0178136Y0082284D01*
X0178196Y0082138D01*
X0178252Y0081990D01*
X0178305Y0081841D01*
X0178354Y0081690D01*
X0178399Y0081538D01*
X0178440Y0081385D01*
X0178478Y0081232D01*
X0178511Y0081077D01*
X0178541Y0080921D01*
X0178567Y0080765D01*
X0178588Y0080608D01*
X0178606Y0080451D01*
X0178620Y0080293D01*
X0178630Y0080135D01*
X0178636Y0079977D01*
X0178638Y0079819D01*
X0178636Y0079661D01*
X0178630Y0079503D01*
X0178620Y0079345D01*
X0178606Y0079187D01*
X0178588Y0079030D01*
X0178567Y0078873D01*
X0178541Y0078717D01*
X0178511Y0078561D01*
X0178478Y0078406D01*
X0178440Y0078253D01*
X0178399Y0078100D01*
X0178354Y0077948D01*
X0178305Y0077797D01*
X0178252Y0077648D01*
X0178196Y0077500D01*
X0178136Y0077354D01*
X0178072Y0077209D01*
X0178004Y0077066D01*
X0177933Y0076924D01*
X0177859Y0076784D01*
X0177781Y0076647D01*
X0177699Y0076511D01*
X0177615Y0076377D01*
X0177526Y0076246D01*
X0177435Y0076117D01*
X0177340Y0075990D01*
X0177243Y0075865D01*
X0177142Y0075743D01*
X0177038Y0075624D01*
X0176931Y0075507D01*
X0176821Y0075393D01*
X0176708Y0075282D01*
X0176593Y0075173D01*
X0176475Y0075068D01*
X0176354Y0074966D01*
X0176231Y0074866D01*
X0176105Y0074770D01*
X0175977Y0074677D01*
X0175847Y0074587D01*
X0175714Y0074501D01*
X0175579Y0074417D01*
X0175443Y0074338D01*
X0175304Y0074261D01*
X0175163Y0074189D01*
X0175021Y0074119D01*
X0174877Y0074054D01*
X0174731Y0073992D01*
X0174584Y0073934D01*
X0174435Y0073879D01*
X0174285Y0073828D01*
X0174134Y0073781D01*
X0173982Y0073738D01*
X0173829Y0073699D01*
X0173674Y0073663D01*
X0173519Y0073632D01*
X0173363Y0073604D01*
X0173207Y0073580D01*
X0173050Y0073560D01*
X0172892Y0073544D01*
X0172735Y0073532D01*
X0172576Y0073524D01*
X0172418Y0073520D01*
X0172260Y0073520D01*
X0172102Y0073524D01*
X0171943Y0073532D01*
X0171786Y0073544D01*
X0171628Y0073560D01*
X0171471Y0073580D01*
X0171315Y0073604D01*
X0171159Y0073632D01*
X0171004Y0073663D01*
X0170849Y0073699D01*
X0170696Y0073738D01*
X0170544Y0073781D01*
X0170393Y0073828D01*
X0170243Y0073879D01*
X0170094Y0073934D01*
X0169947Y0073992D01*
X0169801Y0074054D01*
X0169657Y0074119D01*
X0169515Y0074189D01*
X0169374Y0074261D01*
X0169235Y0074338D01*
X0169099Y0074417D01*
X0168964Y0074501D01*
X0168831Y0074587D01*
X0168701Y0074677D01*
X0168573Y0074770D01*
X0168447Y0074866D01*
X0168324Y0074966D01*
X0168203Y0075068D01*
X0168085Y0075173D01*
X0167970Y0075282D01*
X0167857Y0075393D01*
X0167747Y0075507D01*
X0167640Y0075624D01*
X0167536Y0075743D01*
X0167435Y0075865D01*
X0167338Y0075990D01*
X0167243Y0076117D01*
X0167152Y0076246D01*
X0167063Y0076377D01*
X0166979Y0076511D01*
X0166897Y0076647D01*
X0166819Y0076784D01*
X0166745Y0076924D01*
X0166674Y0077066D01*
X0166606Y0077209D01*
X0166542Y0077354D01*
X0166482Y0077500D01*
X0166426Y0077648D01*
X0166373Y0077797D01*
X0166324Y0077948D01*
X0166279Y0078100D01*
X0166238Y0078253D01*
X0166200Y0078406D01*
X0166167Y0078561D01*
X0166137Y0078717D01*
X0166111Y0078873D01*
X0166090Y0079030D01*
X0166072Y0079187D01*
X0166058Y0079345D01*
X0166048Y0079503D01*
X0166042Y0079661D01*
X0166040Y0079819D01*
X0232457Y0068324D02*
X0232459Y0068493D01*
X0232465Y0068662D01*
X0232476Y0068831D01*
X0232490Y0068999D01*
X0232509Y0069167D01*
X0232532Y0069335D01*
X0232558Y0069502D01*
X0232589Y0069668D01*
X0232624Y0069834D01*
X0232663Y0069998D01*
X0232707Y0070162D01*
X0232754Y0070324D01*
X0232805Y0070485D01*
X0232860Y0070645D01*
X0232919Y0070804D01*
X0232981Y0070961D01*
X0233048Y0071116D01*
X0233119Y0071270D01*
X0233193Y0071422D01*
X0233271Y0071572D01*
X0233352Y0071720D01*
X0233437Y0071866D01*
X0233526Y0072010D01*
X0233618Y0072152D01*
X0233714Y0072291D01*
X0233813Y0072428D01*
X0233915Y0072563D01*
X0234021Y0072695D01*
X0234130Y0072824D01*
X0234242Y0072951D01*
X0234357Y0073075D01*
X0234475Y0073196D01*
X0234596Y0073314D01*
X0234720Y0073429D01*
X0234847Y0073541D01*
X0234976Y0073650D01*
X0235108Y0073756D01*
X0235243Y0073858D01*
X0235380Y0073957D01*
X0235519Y0074053D01*
X0235661Y0074145D01*
X0235805Y0074234D01*
X0235951Y0074319D01*
X0236099Y0074400D01*
X0236249Y0074478D01*
X0236401Y0074552D01*
X0236555Y0074623D01*
X0236710Y0074690D01*
X0236867Y0074752D01*
X0237026Y0074811D01*
X0237186Y0074866D01*
X0237347Y0074917D01*
X0237509Y0074964D01*
X0237673Y0075008D01*
X0237837Y0075047D01*
X0238003Y0075082D01*
X0238169Y0075113D01*
X0238336Y0075139D01*
X0238504Y0075162D01*
X0238672Y0075181D01*
X0238840Y0075195D01*
X0239009Y0075206D01*
X0239178Y0075212D01*
X0239347Y0075214D01*
X0239516Y0075212D01*
X0239685Y0075206D01*
X0239854Y0075195D01*
X0240022Y0075181D01*
X0240190Y0075162D01*
X0240358Y0075139D01*
X0240525Y0075113D01*
X0240691Y0075082D01*
X0240857Y0075047D01*
X0241021Y0075008D01*
X0241185Y0074964D01*
X0241347Y0074917D01*
X0241508Y0074866D01*
X0241668Y0074811D01*
X0241827Y0074752D01*
X0241984Y0074690D01*
X0242139Y0074623D01*
X0242293Y0074552D01*
X0242445Y0074478D01*
X0242595Y0074400D01*
X0242743Y0074319D01*
X0242889Y0074234D01*
X0243033Y0074145D01*
X0243175Y0074053D01*
X0243314Y0073957D01*
X0243451Y0073858D01*
X0243586Y0073756D01*
X0243718Y0073650D01*
X0243847Y0073541D01*
X0243974Y0073429D01*
X0244098Y0073314D01*
X0244219Y0073196D01*
X0244337Y0073075D01*
X0244452Y0072951D01*
X0244564Y0072824D01*
X0244673Y0072695D01*
X0244779Y0072563D01*
X0244881Y0072428D01*
X0244980Y0072291D01*
X0245076Y0072152D01*
X0245168Y0072010D01*
X0245257Y0071866D01*
X0245342Y0071720D01*
X0245423Y0071572D01*
X0245501Y0071422D01*
X0245575Y0071270D01*
X0245646Y0071116D01*
X0245713Y0070961D01*
X0245775Y0070804D01*
X0245834Y0070645D01*
X0245889Y0070485D01*
X0245940Y0070324D01*
X0245987Y0070162D01*
X0246031Y0069998D01*
X0246070Y0069834D01*
X0246105Y0069668D01*
X0246136Y0069502D01*
X0246162Y0069335D01*
X0246185Y0069167D01*
X0246204Y0068999D01*
X0246218Y0068831D01*
X0246229Y0068662D01*
X0246235Y0068493D01*
X0246237Y0068324D01*
X0246235Y0068155D01*
X0246229Y0067986D01*
X0246218Y0067817D01*
X0246204Y0067649D01*
X0246185Y0067481D01*
X0246162Y0067313D01*
X0246136Y0067146D01*
X0246105Y0066980D01*
X0246070Y0066814D01*
X0246031Y0066650D01*
X0245987Y0066486D01*
X0245940Y0066324D01*
X0245889Y0066163D01*
X0245834Y0066003D01*
X0245775Y0065844D01*
X0245713Y0065687D01*
X0245646Y0065532D01*
X0245575Y0065378D01*
X0245501Y0065226D01*
X0245423Y0065076D01*
X0245342Y0064928D01*
X0245257Y0064782D01*
X0245168Y0064638D01*
X0245076Y0064496D01*
X0244980Y0064357D01*
X0244881Y0064220D01*
X0244779Y0064085D01*
X0244673Y0063953D01*
X0244564Y0063824D01*
X0244452Y0063697D01*
X0244337Y0063573D01*
X0244219Y0063452D01*
X0244098Y0063334D01*
X0243974Y0063219D01*
X0243847Y0063107D01*
X0243718Y0062998D01*
X0243586Y0062892D01*
X0243451Y0062790D01*
X0243314Y0062691D01*
X0243175Y0062595D01*
X0243033Y0062503D01*
X0242889Y0062414D01*
X0242743Y0062329D01*
X0242595Y0062248D01*
X0242445Y0062170D01*
X0242293Y0062096D01*
X0242139Y0062025D01*
X0241984Y0061958D01*
X0241827Y0061896D01*
X0241668Y0061837D01*
X0241508Y0061782D01*
X0241347Y0061731D01*
X0241185Y0061684D01*
X0241021Y0061640D01*
X0240857Y0061601D01*
X0240691Y0061566D01*
X0240525Y0061535D01*
X0240358Y0061509D01*
X0240190Y0061486D01*
X0240022Y0061467D01*
X0239854Y0061453D01*
X0239685Y0061442D01*
X0239516Y0061436D01*
X0239347Y0061434D01*
X0239178Y0061436D01*
X0239009Y0061442D01*
X0238840Y0061453D01*
X0238672Y0061467D01*
X0238504Y0061486D01*
X0238336Y0061509D01*
X0238169Y0061535D01*
X0238003Y0061566D01*
X0237837Y0061601D01*
X0237673Y0061640D01*
X0237509Y0061684D01*
X0237347Y0061731D01*
X0237186Y0061782D01*
X0237026Y0061837D01*
X0236867Y0061896D01*
X0236710Y0061958D01*
X0236555Y0062025D01*
X0236401Y0062096D01*
X0236249Y0062170D01*
X0236099Y0062248D01*
X0235951Y0062329D01*
X0235805Y0062414D01*
X0235661Y0062503D01*
X0235519Y0062595D01*
X0235380Y0062691D01*
X0235243Y0062790D01*
X0235108Y0062892D01*
X0234976Y0062998D01*
X0234847Y0063107D01*
X0234720Y0063219D01*
X0234596Y0063334D01*
X0234475Y0063452D01*
X0234357Y0063573D01*
X0234242Y0063697D01*
X0234130Y0063824D01*
X0234021Y0063953D01*
X0233915Y0064085D01*
X0233813Y0064220D01*
X0233714Y0064357D01*
X0233618Y0064496D01*
X0233526Y0064638D01*
X0233437Y0064782D01*
X0233352Y0064928D01*
X0233271Y0065076D01*
X0233193Y0065226D01*
X0233119Y0065378D01*
X0233048Y0065532D01*
X0232981Y0065687D01*
X0232919Y0065844D01*
X0232860Y0066003D01*
X0232805Y0066163D01*
X0232754Y0066324D01*
X0232707Y0066486D01*
X0232663Y0066650D01*
X0232624Y0066814D01*
X0232589Y0066980D01*
X0232558Y0067146D01*
X0232532Y0067313D01*
X0232509Y0067481D01*
X0232490Y0067649D01*
X0232476Y0067817D01*
X0232465Y0067986D01*
X0232459Y0068155D01*
X0232457Y0068324D01*
X0246548Y0094548D02*
X0246550Y0094663D01*
X0246556Y0094779D01*
X0246566Y0094894D01*
X0246580Y0095009D01*
X0246598Y0095123D01*
X0246620Y0095236D01*
X0246645Y0095349D01*
X0246675Y0095460D01*
X0246708Y0095571D01*
X0246745Y0095680D01*
X0246786Y0095788D01*
X0246831Y0095895D01*
X0246879Y0096000D01*
X0246931Y0096103D01*
X0246987Y0096204D01*
X0247046Y0096304D01*
X0247108Y0096401D01*
X0247174Y0096496D01*
X0247242Y0096589D01*
X0247314Y0096679D01*
X0247389Y0096767D01*
X0247468Y0096852D01*
X0247549Y0096934D01*
X0247632Y0097014D01*
X0247719Y0097090D01*
X0247808Y0097164D01*
X0247899Y0097234D01*
X0247993Y0097302D01*
X0248089Y0097366D01*
X0248188Y0097426D01*
X0248288Y0097483D01*
X0248390Y0097537D01*
X0248494Y0097587D01*
X0248600Y0097634D01*
X0248707Y0097677D01*
X0248816Y0097716D01*
X0248926Y0097751D01*
X0249037Y0097782D01*
X0249149Y0097810D01*
X0249262Y0097834D01*
X0249376Y0097854D01*
X0249491Y0097870D01*
X0249606Y0097882D01*
X0249721Y0097890D01*
X0249836Y0097894D01*
X0249952Y0097894D01*
X0250067Y0097890D01*
X0250182Y0097882D01*
X0250297Y0097870D01*
X0250412Y0097854D01*
X0250526Y0097834D01*
X0250639Y0097810D01*
X0250751Y0097782D01*
X0250862Y0097751D01*
X0250972Y0097716D01*
X0251081Y0097677D01*
X0251188Y0097634D01*
X0251294Y0097587D01*
X0251398Y0097537D01*
X0251500Y0097483D01*
X0251600Y0097426D01*
X0251699Y0097366D01*
X0251795Y0097302D01*
X0251889Y0097234D01*
X0251980Y0097164D01*
X0252069Y0097090D01*
X0252156Y0097014D01*
X0252239Y0096934D01*
X0252320Y0096852D01*
X0252399Y0096767D01*
X0252474Y0096679D01*
X0252546Y0096589D01*
X0252614Y0096496D01*
X0252680Y0096401D01*
X0252742Y0096304D01*
X0252801Y0096204D01*
X0252857Y0096103D01*
X0252909Y0096000D01*
X0252957Y0095895D01*
X0253002Y0095788D01*
X0253043Y0095680D01*
X0253080Y0095571D01*
X0253113Y0095460D01*
X0253143Y0095349D01*
X0253168Y0095236D01*
X0253190Y0095123D01*
X0253208Y0095009D01*
X0253222Y0094894D01*
X0253232Y0094779D01*
X0253238Y0094663D01*
X0253240Y0094548D01*
X0253238Y0094433D01*
X0253232Y0094317D01*
X0253222Y0094202D01*
X0253208Y0094087D01*
X0253190Y0093973D01*
X0253168Y0093860D01*
X0253143Y0093747D01*
X0253113Y0093636D01*
X0253080Y0093525D01*
X0253043Y0093416D01*
X0253002Y0093308D01*
X0252957Y0093201D01*
X0252909Y0093096D01*
X0252857Y0092993D01*
X0252801Y0092892D01*
X0252742Y0092792D01*
X0252680Y0092695D01*
X0252614Y0092600D01*
X0252546Y0092507D01*
X0252474Y0092417D01*
X0252399Y0092329D01*
X0252320Y0092244D01*
X0252239Y0092162D01*
X0252156Y0092082D01*
X0252069Y0092006D01*
X0251980Y0091932D01*
X0251889Y0091862D01*
X0251795Y0091794D01*
X0251699Y0091730D01*
X0251600Y0091670D01*
X0251500Y0091613D01*
X0251398Y0091559D01*
X0251294Y0091509D01*
X0251188Y0091462D01*
X0251081Y0091419D01*
X0250972Y0091380D01*
X0250862Y0091345D01*
X0250751Y0091314D01*
X0250639Y0091286D01*
X0250526Y0091262D01*
X0250412Y0091242D01*
X0250297Y0091226D01*
X0250182Y0091214D01*
X0250067Y0091206D01*
X0249952Y0091202D01*
X0249836Y0091202D01*
X0249721Y0091206D01*
X0249606Y0091214D01*
X0249491Y0091226D01*
X0249376Y0091242D01*
X0249262Y0091262D01*
X0249149Y0091286D01*
X0249037Y0091314D01*
X0248926Y0091345D01*
X0248816Y0091380D01*
X0248707Y0091419D01*
X0248600Y0091462D01*
X0248494Y0091509D01*
X0248390Y0091559D01*
X0248288Y0091613D01*
X0248188Y0091670D01*
X0248089Y0091730D01*
X0247993Y0091794D01*
X0247899Y0091862D01*
X0247808Y0091932D01*
X0247719Y0092006D01*
X0247632Y0092082D01*
X0247549Y0092162D01*
X0247468Y0092244D01*
X0247389Y0092329D01*
X0247314Y0092417D01*
X0247242Y0092507D01*
X0247174Y0092600D01*
X0247108Y0092695D01*
X0247046Y0092792D01*
X0246987Y0092892D01*
X0246931Y0092993D01*
X0246879Y0093096D01*
X0246831Y0093201D01*
X0246786Y0093308D01*
X0246745Y0093416D01*
X0246708Y0093525D01*
X0246675Y0093636D01*
X0246645Y0093747D01*
X0246620Y0093860D01*
X0246598Y0093973D01*
X0246580Y0094087D01*
X0246566Y0094202D01*
X0246556Y0094317D01*
X0246550Y0094433D01*
X0246548Y0094548D01*
X0234937Y0016827D02*
X0234939Y0016985D01*
X0234945Y0017143D01*
X0234955Y0017301D01*
X0234969Y0017459D01*
X0234987Y0017616D01*
X0235008Y0017773D01*
X0235034Y0017929D01*
X0235064Y0018085D01*
X0235097Y0018240D01*
X0235135Y0018393D01*
X0235176Y0018546D01*
X0235221Y0018698D01*
X0235270Y0018849D01*
X0235323Y0018998D01*
X0235379Y0019146D01*
X0235439Y0019292D01*
X0235503Y0019437D01*
X0235571Y0019580D01*
X0235642Y0019722D01*
X0235716Y0019862D01*
X0235794Y0019999D01*
X0235876Y0020135D01*
X0235960Y0020269D01*
X0236049Y0020400D01*
X0236140Y0020529D01*
X0236235Y0020656D01*
X0236332Y0020781D01*
X0236433Y0020903D01*
X0236537Y0021022D01*
X0236644Y0021139D01*
X0236754Y0021253D01*
X0236867Y0021364D01*
X0236982Y0021473D01*
X0237100Y0021578D01*
X0237221Y0021680D01*
X0237344Y0021780D01*
X0237470Y0021876D01*
X0237598Y0021969D01*
X0237728Y0022059D01*
X0237861Y0022145D01*
X0237996Y0022229D01*
X0238132Y0022308D01*
X0238271Y0022385D01*
X0238412Y0022457D01*
X0238554Y0022527D01*
X0238698Y0022592D01*
X0238844Y0022654D01*
X0238991Y0022712D01*
X0239140Y0022767D01*
X0239290Y0022818D01*
X0239441Y0022865D01*
X0239593Y0022908D01*
X0239746Y0022947D01*
X0239901Y0022983D01*
X0240056Y0023014D01*
X0240212Y0023042D01*
X0240368Y0023066D01*
X0240525Y0023086D01*
X0240683Y0023102D01*
X0240840Y0023114D01*
X0240999Y0023122D01*
X0241157Y0023126D01*
X0241315Y0023126D01*
X0241473Y0023122D01*
X0241632Y0023114D01*
X0241789Y0023102D01*
X0241947Y0023086D01*
X0242104Y0023066D01*
X0242260Y0023042D01*
X0242416Y0023014D01*
X0242571Y0022983D01*
X0242726Y0022947D01*
X0242879Y0022908D01*
X0243031Y0022865D01*
X0243182Y0022818D01*
X0243332Y0022767D01*
X0243481Y0022712D01*
X0243628Y0022654D01*
X0243774Y0022592D01*
X0243918Y0022527D01*
X0244060Y0022457D01*
X0244201Y0022385D01*
X0244340Y0022308D01*
X0244476Y0022229D01*
X0244611Y0022145D01*
X0244744Y0022059D01*
X0244874Y0021969D01*
X0245002Y0021876D01*
X0245128Y0021780D01*
X0245251Y0021680D01*
X0245372Y0021578D01*
X0245490Y0021473D01*
X0245605Y0021364D01*
X0245718Y0021253D01*
X0245828Y0021139D01*
X0245935Y0021022D01*
X0246039Y0020903D01*
X0246140Y0020781D01*
X0246237Y0020656D01*
X0246332Y0020529D01*
X0246423Y0020400D01*
X0246512Y0020269D01*
X0246596Y0020135D01*
X0246678Y0019999D01*
X0246756Y0019862D01*
X0246830Y0019722D01*
X0246901Y0019580D01*
X0246969Y0019437D01*
X0247033Y0019292D01*
X0247093Y0019146D01*
X0247149Y0018998D01*
X0247202Y0018849D01*
X0247251Y0018698D01*
X0247296Y0018546D01*
X0247337Y0018393D01*
X0247375Y0018240D01*
X0247408Y0018085D01*
X0247438Y0017929D01*
X0247464Y0017773D01*
X0247485Y0017616D01*
X0247503Y0017459D01*
X0247517Y0017301D01*
X0247527Y0017143D01*
X0247533Y0016985D01*
X0247535Y0016827D01*
X0247533Y0016669D01*
X0247527Y0016511D01*
X0247517Y0016353D01*
X0247503Y0016195D01*
X0247485Y0016038D01*
X0247464Y0015881D01*
X0247438Y0015725D01*
X0247408Y0015569D01*
X0247375Y0015414D01*
X0247337Y0015261D01*
X0247296Y0015108D01*
X0247251Y0014956D01*
X0247202Y0014805D01*
X0247149Y0014656D01*
X0247093Y0014508D01*
X0247033Y0014362D01*
X0246969Y0014217D01*
X0246901Y0014074D01*
X0246830Y0013932D01*
X0246756Y0013792D01*
X0246678Y0013655D01*
X0246596Y0013519D01*
X0246512Y0013385D01*
X0246423Y0013254D01*
X0246332Y0013125D01*
X0246237Y0012998D01*
X0246140Y0012873D01*
X0246039Y0012751D01*
X0245935Y0012632D01*
X0245828Y0012515D01*
X0245718Y0012401D01*
X0245605Y0012290D01*
X0245490Y0012181D01*
X0245372Y0012076D01*
X0245251Y0011974D01*
X0245128Y0011874D01*
X0245002Y0011778D01*
X0244874Y0011685D01*
X0244744Y0011595D01*
X0244611Y0011509D01*
X0244476Y0011425D01*
X0244340Y0011346D01*
X0244201Y0011269D01*
X0244060Y0011197D01*
X0243918Y0011127D01*
X0243774Y0011062D01*
X0243628Y0011000D01*
X0243481Y0010942D01*
X0243332Y0010887D01*
X0243182Y0010836D01*
X0243031Y0010789D01*
X0242879Y0010746D01*
X0242726Y0010707D01*
X0242571Y0010671D01*
X0242416Y0010640D01*
X0242260Y0010612D01*
X0242104Y0010588D01*
X0241947Y0010568D01*
X0241789Y0010552D01*
X0241632Y0010540D01*
X0241473Y0010532D01*
X0241315Y0010528D01*
X0241157Y0010528D01*
X0240999Y0010532D01*
X0240840Y0010540D01*
X0240683Y0010552D01*
X0240525Y0010568D01*
X0240368Y0010588D01*
X0240212Y0010612D01*
X0240056Y0010640D01*
X0239901Y0010671D01*
X0239746Y0010707D01*
X0239593Y0010746D01*
X0239441Y0010789D01*
X0239290Y0010836D01*
X0239140Y0010887D01*
X0238991Y0010942D01*
X0238844Y0011000D01*
X0238698Y0011062D01*
X0238554Y0011127D01*
X0238412Y0011197D01*
X0238271Y0011269D01*
X0238132Y0011346D01*
X0237996Y0011425D01*
X0237861Y0011509D01*
X0237728Y0011595D01*
X0237598Y0011685D01*
X0237470Y0011778D01*
X0237344Y0011874D01*
X0237221Y0011974D01*
X0237100Y0012076D01*
X0236982Y0012181D01*
X0236867Y0012290D01*
X0236754Y0012401D01*
X0236644Y0012515D01*
X0236537Y0012632D01*
X0236433Y0012751D01*
X0236332Y0012873D01*
X0236235Y0012998D01*
X0236140Y0013125D01*
X0236049Y0013254D01*
X0235960Y0013385D01*
X0235876Y0013519D01*
X0235794Y0013655D01*
X0235716Y0013792D01*
X0235642Y0013932D01*
X0235571Y0014074D01*
X0235503Y0014217D01*
X0235439Y0014362D01*
X0235379Y0014508D01*
X0235323Y0014656D01*
X0235270Y0014805D01*
X0235221Y0014956D01*
X0235176Y0015108D01*
X0235135Y0015261D01*
X0235097Y0015414D01*
X0235064Y0015569D01*
X0235034Y0015725D01*
X0235008Y0015881D01*
X0234987Y0016038D01*
X0234969Y0016195D01*
X0234955Y0016353D01*
X0234945Y0016511D01*
X0234939Y0016669D01*
X0234937Y0016827D01*
X0166040Y0182181D02*
X0166042Y0182339D01*
X0166048Y0182497D01*
X0166058Y0182655D01*
X0166072Y0182813D01*
X0166090Y0182970D01*
X0166111Y0183127D01*
X0166137Y0183283D01*
X0166167Y0183439D01*
X0166200Y0183594D01*
X0166238Y0183747D01*
X0166279Y0183900D01*
X0166324Y0184052D01*
X0166373Y0184203D01*
X0166426Y0184352D01*
X0166482Y0184500D01*
X0166542Y0184646D01*
X0166606Y0184791D01*
X0166674Y0184934D01*
X0166745Y0185076D01*
X0166819Y0185216D01*
X0166897Y0185353D01*
X0166979Y0185489D01*
X0167063Y0185623D01*
X0167152Y0185754D01*
X0167243Y0185883D01*
X0167338Y0186010D01*
X0167435Y0186135D01*
X0167536Y0186257D01*
X0167640Y0186376D01*
X0167747Y0186493D01*
X0167857Y0186607D01*
X0167970Y0186718D01*
X0168085Y0186827D01*
X0168203Y0186932D01*
X0168324Y0187034D01*
X0168447Y0187134D01*
X0168573Y0187230D01*
X0168701Y0187323D01*
X0168831Y0187413D01*
X0168964Y0187499D01*
X0169099Y0187583D01*
X0169235Y0187662D01*
X0169374Y0187739D01*
X0169515Y0187811D01*
X0169657Y0187881D01*
X0169801Y0187946D01*
X0169947Y0188008D01*
X0170094Y0188066D01*
X0170243Y0188121D01*
X0170393Y0188172D01*
X0170544Y0188219D01*
X0170696Y0188262D01*
X0170849Y0188301D01*
X0171004Y0188337D01*
X0171159Y0188368D01*
X0171315Y0188396D01*
X0171471Y0188420D01*
X0171628Y0188440D01*
X0171786Y0188456D01*
X0171943Y0188468D01*
X0172102Y0188476D01*
X0172260Y0188480D01*
X0172418Y0188480D01*
X0172576Y0188476D01*
X0172735Y0188468D01*
X0172892Y0188456D01*
X0173050Y0188440D01*
X0173207Y0188420D01*
X0173363Y0188396D01*
X0173519Y0188368D01*
X0173674Y0188337D01*
X0173829Y0188301D01*
X0173982Y0188262D01*
X0174134Y0188219D01*
X0174285Y0188172D01*
X0174435Y0188121D01*
X0174584Y0188066D01*
X0174731Y0188008D01*
X0174877Y0187946D01*
X0175021Y0187881D01*
X0175163Y0187811D01*
X0175304Y0187739D01*
X0175443Y0187662D01*
X0175579Y0187583D01*
X0175714Y0187499D01*
X0175847Y0187413D01*
X0175977Y0187323D01*
X0176105Y0187230D01*
X0176231Y0187134D01*
X0176354Y0187034D01*
X0176475Y0186932D01*
X0176593Y0186827D01*
X0176708Y0186718D01*
X0176821Y0186607D01*
X0176931Y0186493D01*
X0177038Y0186376D01*
X0177142Y0186257D01*
X0177243Y0186135D01*
X0177340Y0186010D01*
X0177435Y0185883D01*
X0177526Y0185754D01*
X0177615Y0185623D01*
X0177699Y0185489D01*
X0177781Y0185353D01*
X0177859Y0185216D01*
X0177933Y0185076D01*
X0178004Y0184934D01*
X0178072Y0184791D01*
X0178136Y0184646D01*
X0178196Y0184500D01*
X0178252Y0184352D01*
X0178305Y0184203D01*
X0178354Y0184052D01*
X0178399Y0183900D01*
X0178440Y0183747D01*
X0178478Y0183594D01*
X0178511Y0183439D01*
X0178541Y0183283D01*
X0178567Y0183127D01*
X0178588Y0182970D01*
X0178606Y0182813D01*
X0178620Y0182655D01*
X0178630Y0182497D01*
X0178636Y0182339D01*
X0178638Y0182181D01*
X0178636Y0182023D01*
X0178630Y0181865D01*
X0178620Y0181707D01*
X0178606Y0181549D01*
X0178588Y0181392D01*
X0178567Y0181235D01*
X0178541Y0181079D01*
X0178511Y0180923D01*
X0178478Y0180768D01*
X0178440Y0180615D01*
X0178399Y0180462D01*
X0178354Y0180310D01*
X0178305Y0180159D01*
X0178252Y0180010D01*
X0178196Y0179862D01*
X0178136Y0179716D01*
X0178072Y0179571D01*
X0178004Y0179428D01*
X0177933Y0179286D01*
X0177859Y0179146D01*
X0177781Y0179009D01*
X0177699Y0178873D01*
X0177615Y0178739D01*
X0177526Y0178608D01*
X0177435Y0178479D01*
X0177340Y0178352D01*
X0177243Y0178227D01*
X0177142Y0178105D01*
X0177038Y0177986D01*
X0176931Y0177869D01*
X0176821Y0177755D01*
X0176708Y0177644D01*
X0176593Y0177535D01*
X0176475Y0177430D01*
X0176354Y0177328D01*
X0176231Y0177228D01*
X0176105Y0177132D01*
X0175977Y0177039D01*
X0175847Y0176949D01*
X0175714Y0176863D01*
X0175579Y0176779D01*
X0175443Y0176700D01*
X0175304Y0176623D01*
X0175163Y0176551D01*
X0175021Y0176481D01*
X0174877Y0176416D01*
X0174731Y0176354D01*
X0174584Y0176296D01*
X0174435Y0176241D01*
X0174285Y0176190D01*
X0174134Y0176143D01*
X0173982Y0176100D01*
X0173829Y0176061D01*
X0173674Y0176025D01*
X0173519Y0175994D01*
X0173363Y0175966D01*
X0173207Y0175942D01*
X0173050Y0175922D01*
X0172892Y0175906D01*
X0172735Y0175894D01*
X0172576Y0175886D01*
X0172418Y0175882D01*
X0172260Y0175882D01*
X0172102Y0175886D01*
X0171943Y0175894D01*
X0171786Y0175906D01*
X0171628Y0175922D01*
X0171471Y0175942D01*
X0171315Y0175966D01*
X0171159Y0175994D01*
X0171004Y0176025D01*
X0170849Y0176061D01*
X0170696Y0176100D01*
X0170544Y0176143D01*
X0170393Y0176190D01*
X0170243Y0176241D01*
X0170094Y0176296D01*
X0169947Y0176354D01*
X0169801Y0176416D01*
X0169657Y0176481D01*
X0169515Y0176551D01*
X0169374Y0176623D01*
X0169235Y0176700D01*
X0169099Y0176779D01*
X0168964Y0176863D01*
X0168831Y0176949D01*
X0168701Y0177039D01*
X0168573Y0177132D01*
X0168447Y0177228D01*
X0168324Y0177328D01*
X0168203Y0177430D01*
X0168085Y0177535D01*
X0167970Y0177644D01*
X0167857Y0177755D01*
X0167747Y0177869D01*
X0167640Y0177986D01*
X0167536Y0178105D01*
X0167435Y0178227D01*
X0167338Y0178352D01*
X0167243Y0178479D01*
X0167152Y0178608D01*
X0167063Y0178739D01*
X0166979Y0178873D01*
X0166897Y0179009D01*
X0166819Y0179146D01*
X0166745Y0179286D01*
X0166674Y0179428D01*
X0166606Y0179571D01*
X0166542Y0179716D01*
X0166482Y0179862D01*
X0166426Y0180010D01*
X0166373Y0180159D01*
X0166324Y0180310D01*
X0166279Y0180462D01*
X0166238Y0180615D01*
X0166200Y0180768D01*
X0166167Y0180923D01*
X0166137Y0181079D01*
X0166111Y0181235D01*
X0166090Y0181392D01*
X0166072Y0181549D01*
X0166058Y0181707D01*
X0166048Y0181865D01*
X0166042Y0182023D01*
X0166040Y0182181D01*
X0157181Y0220705D02*
X0157183Y0220813D01*
X0157189Y0220922D01*
X0157199Y0221030D01*
X0157213Y0221137D01*
X0157231Y0221244D01*
X0157252Y0221351D01*
X0157278Y0221456D01*
X0157308Y0221561D01*
X0157341Y0221664D01*
X0157378Y0221766D01*
X0157419Y0221866D01*
X0157463Y0221965D01*
X0157512Y0222063D01*
X0157563Y0222158D01*
X0157618Y0222251D01*
X0157677Y0222343D01*
X0157739Y0222432D01*
X0157804Y0222519D01*
X0157872Y0222603D01*
X0157943Y0222685D01*
X0158017Y0222764D01*
X0158094Y0222840D01*
X0158174Y0222914D01*
X0158257Y0222984D01*
X0158342Y0223052D01*
X0158429Y0223116D01*
X0158519Y0223177D01*
X0158611Y0223235D01*
X0158705Y0223289D01*
X0158801Y0223340D01*
X0158898Y0223387D01*
X0158998Y0223431D01*
X0159099Y0223471D01*
X0159201Y0223507D01*
X0159304Y0223539D01*
X0159409Y0223568D01*
X0159515Y0223592D01*
X0159621Y0223613D01*
X0159728Y0223630D01*
X0159836Y0223643D01*
X0159944Y0223652D01*
X0160053Y0223657D01*
X0160161Y0223658D01*
X0160270Y0223655D01*
X0160378Y0223648D01*
X0160486Y0223637D01*
X0160593Y0223622D01*
X0160700Y0223603D01*
X0160806Y0223580D01*
X0160911Y0223554D01*
X0161016Y0223523D01*
X0161118Y0223489D01*
X0161220Y0223451D01*
X0161320Y0223409D01*
X0161419Y0223364D01*
X0161516Y0223315D01*
X0161610Y0223262D01*
X0161703Y0223206D01*
X0161794Y0223147D01*
X0161883Y0223084D01*
X0161969Y0223019D01*
X0162053Y0222950D01*
X0162134Y0222878D01*
X0162212Y0222803D01*
X0162288Y0222725D01*
X0162361Y0222644D01*
X0162431Y0222561D01*
X0162497Y0222476D01*
X0162561Y0222388D01*
X0162621Y0222297D01*
X0162678Y0222205D01*
X0162731Y0222110D01*
X0162781Y0222014D01*
X0162827Y0221916D01*
X0162870Y0221816D01*
X0162909Y0221715D01*
X0162944Y0221612D01*
X0162976Y0221509D01*
X0163003Y0221404D01*
X0163027Y0221298D01*
X0163047Y0221191D01*
X0163063Y0221084D01*
X0163075Y0220976D01*
X0163083Y0220868D01*
X0163087Y0220759D01*
X0163087Y0220651D01*
X0163083Y0220542D01*
X0163075Y0220434D01*
X0163063Y0220326D01*
X0163047Y0220219D01*
X0163027Y0220112D01*
X0163003Y0220006D01*
X0162976Y0219901D01*
X0162944Y0219798D01*
X0162909Y0219695D01*
X0162870Y0219594D01*
X0162827Y0219494D01*
X0162781Y0219396D01*
X0162731Y0219300D01*
X0162678Y0219205D01*
X0162621Y0219113D01*
X0162561Y0219022D01*
X0162497Y0218934D01*
X0162431Y0218849D01*
X0162361Y0218766D01*
X0162288Y0218685D01*
X0162212Y0218607D01*
X0162134Y0218532D01*
X0162053Y0218460D01*
X0161969Y0218391D01*
X0161883Y0218326D01*
X0161794Y0218263D01*
X0161703Y0218204D01*
X0161611Y0218148D01*
X0161516Y0218095D01*
X0161419Y0218046D01*
X0161320Y0218001D01*
X0161220Y0217959D01*
X0161118Y0217921D01*
X0161016Y0217887D01*
X0160911Y0217856D01*
X0160806Y0217830D01*
X0160700Y0217807D01*
X0160593Y0217788D01*
X0160486Y0217773D01*
X0160378Y0217762D01*
X0160270Y0217755D01*
X0160161Y0217752D01*
X0160053Y0217753D01*
X0159944Y0217758D01*
X0159836Y0217767D01*
X0159728Y0217780D01*
X0159621Y0217797D01*
X0159515Y0217818D01*
X0159409Y0217842D01*
X0159304Y0217871D01*
X0159201Y0217903D01*
X0159099Y0217939D01*
X0158998Y0217979D01*
X0158898Y0218023D01*
X0158801Y0218070D01*
X0158705Y0218121D01*
X0158611Y0218175D01*
X0158519Y0218233D01*
X0158429Y0218294D01*
X0158342Y0218358D01*
X0158257Y0218426D01*
X0158174Y0218496D01*
X0158094Y0218570D01*
X0158017Y0218646D01*
X0157943Y0218725D01*
X0157872Y0218807D01*
X0157804Y0218891D01*
X0157739Y0218978D01*
X0157677Y0219067D01*
X0157618Y0219159D01*
X0157563Y0219252D01*
X0157512Y0219347D01*
X0157463Y0219445D01*
X0157419Y0219544D01*
X0157378Y0219644D01*
X0157341Y0219746D01*
X0157308Y0219849D01*
X0157278Y0219954D01*
X0157252Y0220059D01*
X0157231Y0220166D01*
X0157213Y0220273D01*
X0157199Y0220380D01*
X0157189Y0220488D01*
X0157183Y0220597D01*
X0157181Y0220705D01*
X0124820Y0235253D02*
X0124822Y0235409D01*
X0124828Y0235565D01*
X0124838Y0235720D01*
X0124852Y0235875D01*
X0124870Y0236030D01*
X0124892Y0236184D01*
X0124917Y0236338D01*
X0124947Y0236491D01*
X0124981Y0236643D01*
X0125018Y0236795D01*
X0125059Y0236945D01*
X0125104Y0237094D01*
X0125153Y0237242D01*
X0125206Y0237389D01*
X0125262Y0237534D01*
X0125322Y0237678D01*
X0125386Y0237820D01*
X0125454Y0237961D01*
X0125525Y0238099D01*
X0125599Y0238236D01*
X0125677Y0238371D01*
X0125758Y0238504D01*
X0125843Y0238635D01*
X0125931Y0238764D01*
X0126022Y0238890D01*
X0126117Y0239014D01*
X0126214Y0239135D01*
X0126315Y0239254D01*
X0126419Y0239371D01*
X0126525Y0239484D01*
X0126635Y0239595D01*
X0126747Y0239703D01*
X0126862Y0239808D01*
X0126980Y0239911D01*
X0127100Y0240010D01*
X0127223Y0240106D01*
X0127348Y0240199D01*
X0127475Y0240288D01*
X0127605Y0240375D01*
X0127737Y0240458D01*
X0127871Y0240537D01*
X0128007Y0240614D01*
X0128145Y0240686D01*
X0128284Y0240756D01*
X0128426Y0240821D01*
X0128569Y0240883D01*
X0128713Y0240941D01*
X0128859Y0240996D01*
X0129007Y0241047D01*
X0129155Y0241094D01*
X0129305Y0241137D01*
X0129456Y0241176D01*
X0129608Y0241212D01*
X0129760Y0241243D01*
X0129914Y0241271D01*
X0130068Y0241295D01*
X0130222Y0241315D01*
X0130377Y0241331D01*
X0130533Y0241343D01*
X0130688Y0241351D01*
X0130844Y0241355D01*
X0131000Y0241355D01*
X0131156Y0241351D01*
X0131311Y0241343D01*
X0131467Y0241331D01*
X0131622Y0241315D01*
X0131776Y0241295D01*
X0131930Y0241271D01*
X0132084Y0241243D01*
X0132236Y0241212D01*
X0132388Y0241176D01*
X0132539Y0241137D01*
X0132689Y0241094D01*
X0132837Y0241047D01*
X0132985Y0240996D01*
X0133131Y0240941D01*
X0133275Y0240883D01*
X0133418Y0240821D01*
X0133560Y0240756D01*
X0133699Y0240686D01*
X0133837Y0240614D01*
X0133973Y0240537D01*
X0134107Y0240458D01*
X0134239Y0240375D01*
X0134369Y0240288D01*
X0134496Y0240199D01*
X0134621Y0240106D01*
X0134744Y0240010D01*
X0134864Y0239911D01*
X0134982Y0239808D01*
X0135097Y0239703D01*
X0135209Y0239595D01*
X0135319Y0239484D01*
X0135425Y0239371D01*
X0135529Y0239254D01*
X0135630Y0239135D01*
X0135727Y0239014D01*
X0135822Y0238890D01*
X0135913Y0238764D01*
X0136001Y0238635D01*
X0136086Y0238504D01*
X0136167Y0238371D01*
X0136245Y0238236D01*
X0136319Y0238099D01*
X0136390Y0237961D01*
X0136458Y0237820D01*
X0136522Y0237678D01*
X0136582Y0237534D01*
X0136638Y0237389D01*
X0136691Y0237242D01*
X0136740Y0237094D01*
X0136785Y0236945D01*
X0136826Y0236795D01*
X0136863Y0236643D01*
X0136897Y0236491D01*
X0136927Y0236338D01*
X0136952Y0236184D01*
X0136974Y0236030D01*
X0136992Y0235875D01*
X0137006Y0235720D01*
X0137016Y0235565D01*
X0137022Y0235409D01*
X0137024Y0235253D01*
X0137022Y0235097D01*
X0137016Y0234941D01*
X0137006Y0234786D01*
X0136992Y0234631D01*
X0136974Y0234476D01*
X0136952Y0234322D01*
X0136927Y0234168D01*
X0136897Y0234015D01*
X0136863Y0233863D01*
X0136826Y0233711D01*
X0136785Y0233561D01*
X0136740Y0233412D01*
X0136691Y0233264D01*
X0136638Y0233117D01*
X0136582Y0232972D01*
X0136522Y0232828D01*
X0136458Y0232686D01*
X0136390Y0232545D01*
X0136319Y0232407D01*
X0136245Y0232270D01*
X0136167Y0232135D01*
X0136086Y0232002D01*
X0136001Y0231871D01*
X0135913Y0231742D01*
X0135822Y0231616D01*
X0135727Y0231492D01*
X0135630Y0231371D01*
X0135529Y0231252D01*
X0135425Y0231135D01*
X0135319Y0231022D01*
X0135209Y0230911D01*
X0135097Y0230803D01*
X0134982Y0230698D01*
X0134864Y0230595D01*
X0134744Y0230496D01*
X0134621Y0230400D01*
X0134496Y0230307D01*
X0134369Y0230218D01*
X0134239Y0230131D01*
X0134107Y0230048D01*
X0133973Y0229969D01*
X0133837Y0229892D01*
X0133699Y0229820D01*
X0133560Y0229750D01*
X0133418Y0229685D01*
X0133275Y0229623D01*
X0133131Y0229565D01*
X0132985Y0229510D01*
X0132837Y0229459D01*
X0132689Y0229412D01*
X0132539Y0229369D01*
X0132388Y0229330D01*
X0132236Y0229294D01*
X0132084Y0229263D01*
X0131930Y0229235D01*
X0131776Y0229211D01*
X0131622Y0229191D01*
X0131467Y0229175D01*
X0131311Y0229163D01*
X0131156Y0229155D01*
X0131000Y0229151D01*
X0130844Y0229151D01*
X0130688Y0229155D01*
X0130533Y0229163D01*
X0130377Y0229175D01*
X0130222Y0229191D01*
X0130068Y0229211D01*
X0129914Y0229235D01*
X0129760Y0229263D01*
X0129608Y0229294D01*
X0129456Y0229330D01*
X0129305Y0229369D01*
X0129155Y0229412D01*
X0129007Y0229459D01*
X0128859Y0229510D01*
X0128713Y0229565D01*
X0128569Y0229623D01*
X0128426Y0229685D01*
X0128284Y0229750D01*
X0128145Y0229820D01*
X0128007Y0229892D01*
X0127871Y0229969D01*
X0127737Y0230048D01*
X0127605Y0230131D01*
X0127475Y0230218D01*
X0127348Y0230307D01*
X0127223Y0230400D01*
X0127100Y0230496D01*
X0126980Y0230595D01*
X0126862Y0230698D01*
X0126747Y0230803D01*
X0126635Y0230911D01*
X0126525Y0231022D01*
X0126419Y0231135D01*
X0126315Y0231252D01*
X0126214Y0231371D01*
X0126117Y0231492D01*
X0126022Y0231616D01*
X0125931Y0231742D01*
X0125843Y0231871D01*
X0125758Y0232002D01*
X0125677Y0232135D01*
X0125599Y0232270D01*
X0125525Y0232407D01*
X0125454Y0232545D01*
X0125386Y0232686D01*
X0125322Y0232828D01*
X0125262Y0232972D01*
X0125206Y0233117D01*
X0125153Y0233264D01*
X0125104Y0233412D01*
X0125059Y0233561D01*
X0125018Y0233711D01*
X0124981Y0233863D01*
X0124947Y0234015D01*
X0124917Y0234168D01*
X0124892Y0234322D01*
X0124870Y0234476D01*
X0124852Y0234631D01*
X0124838Y0234786D01*
X0124828Y0234941D01*
X0124822Y0235097D01*
X0124820Y0235253D01*
X0083362Y0182181D02*
X0083364Y0182339D01*
X0083370Y0182497D01*
X0083380Y0182655D01*
X0083394Y0182813D01*
X0083412Y0182970D01*
X0083433Y0183127D01*
X0083459Y0183283D01*
X0083489Y0183439D01*
X0083522Y0183594D01*
X0083560Y0183747D01*
X0083601Y0183900D01*
X0083646Y0184052D01*
X0083695Y0184203D01*
X0083748Y0184352D01*
X0083804Y0184500D01*
X0083864Y0184646D01*
X0083928Y0184791D01*
X0083996Y0184934D01*
X0084067Y0185076D01*
X0084141Y0185216D01*
X0084219Y0185353D01*
X0084301Y0185489D01*
X0084385Y0185623D01*
X0084474Y0185754D01*
X0084565Y0185883D01*
X0084660Y0186010D01*
X0084757Y0186135D01*
X0084858Y0186257D01*
X0084962Y0186376D01*
X0085069Y0186493D01*
X0085179Y0186607D01*
X0085292Y0186718D01*
X0085407Y0186827D01*
X0085525Y0186932D01*
X0085646Y0187034D01*
X0085769Y0187134D01*
X0085895Y0187230D01*
X0086023Y0187323D01*
X0086153Y0187413D01*
X0086286Y0187499D01*
X0086421Y0187583D01*
X0086557Y0187662D01*
X0086696Y0187739D01*
X0086837Y0187811D01*
X0086979Y0187881D01*
X0087123Y0187946D01*
X0087269Y0188008D01*
X0087416Y0188066D01*
X0087565Y0188121D01*
X0087715Y0188172D01*
X0087866Y0188219D01*
X0088018Y0188262D01*
X0088171Y0188301D01*
X0088326Y0188337D01*
X0088481Y0188368D01*
X0088637Y0188396D01*
X0088793Y0188420D01*
X0088950Y0188440D01*
X0089108Y0188456D01*
X0089265Y0188468D01*
X0089424Y0188476D01*
X0089582Y0188480D01*
X0089740Y0188480D01*
X0089898Y0188476D01*
X0090057Y0188468D01*
X0090214Y0188456D01*
X0090372Y0188440D01*
X0090529Y0188420D01*
X0090685Y0188396D01*
X0090841Y0188368D01*
X0090996Y0188337D01*
X0091151Y0188301D01*
X0091304Y0188262D01*
X0091456Y0188219D01*
X0091607Y0188172D01*
X0091757Y0188121D01*
X0091906Y0188066D01*
X0092053Y0188008D01*
X0092199Y0187946D01*
X0092343Y0187881D01*
X0092485Y0187811D01*
X0092626Y0187739D01*
X0092765Y0187662D01*
X0092901Y0187583D01*
X0093036Y0187499D01*
X0093169Y0187413D01*
X0093299Y0187323D01*
X0093427Y0187230D01*
X0093553Y0187134D01*
X0093676Y0187034D01*
X0093797Y0186932D01*
X0093915Y0186827D01*
X0094030Y0186718D01*
X0094143Y0186607D01*
X0094253Y0186493D01*
X0094360Y0186376D01*
X0094464Y0186257D01*
X0094565Y0186135D01*
X0094662Y0186010D01*
X0094757Y0185883D01*
X0094848Y0185754D01*
X0094937Y0185623D01*
X0095021Y0185489D01*
X0095103Y0185353D01*
X0095181Y0185216D01*
X0095255Y0185076D01*
X0095326Y0184934D01*
X0095394Y0184791D01*
X0095458Y0184646D01*
X0095518Y0184500D01*
X0095574Y0184352D01*
X0095627Y0184203D01*
X0095676Y0184052D01*
X0095721Y0183900D01*
X0095762Y0183747D01*
X0095800Y0183594D01*
X0095833Y0183439D01*
X0095863Y0183283D01*
X0095889Y0183127D01*
X0095910Y0182970D01*
X0095928Y0182813D01*
X0095942Y0182655D01*
X0095952Y0182497D01*
X0095958Y0182339D01*
X0095960Y0182181D01*
X0095958Y0182023D01*
X0095952Y0181865D01*
X0095942Y0181707D01*
X0095928Y0181549D01*
X0095910Y0181392D01*
X0095889Y0181235D01*
X0095863Y0181079D01*
X0095833Y0180923D01*
X0095800Y0180768D01*
X0095762Y0180615D01*
X0095721Y0180462D01*
X0095676Y0180310D01*
X0095627Y0180159D01*
X0095574Y0180010D01*
X0095518Y0179862D01*
X0095458Y0179716D01*
X0095394Y0179571D01*
X0095326Y0179428D01*
X0095255Y0179286D01*
X0095181Y0179146D01*
X0095103Y0179009D01*
X0095021Y0178873D01*
X0094937Y0178739D01*
X0094848Y0178608D01*
X0094757Y0178479D01*
X0094662Y0178352D01*
X0094565Y0178227D01*
X0094464Y0178105D01*
X0094360Y0177986D01*
X0094253Y0177869D01*
X0094143Y0177755D01*
X0094030Y0177644D01*
X0093915Y0177535D01*
X0093797Y0177430D01*
X0093676Y0177328D01*
X0093553Y0177228D01*
X0093427Y0177132D01*
X0093299Y0177039D01*
X0093169Y0176949D01*
X0093036Y0176863D01*
X0092901Y0176779D01*
X0092765Y0176700D01*
X0092626Y0176623D01*
X0092485Y0176551D01*
X0092343Y0176481D01*
X0092199Y0176416D01*
X0092053Y0176354D01*
X0091906Y0176296D01*
X0091757Y0176241D01*
X0091607Y0176190D01*
X0091456Y0176143D01*
X0091304Y0176100D01*
X0091151Y0176061D01*
X0090996Y0176025D01*
X0090841Y0175994D01*
X0090685Y0175966D01*
X0090529Y0175942D01*
X0090372Y0175922D01*
X0090214Y0175906D01*
X0090057Y0175894D01*
X0089898Y0175886D01*
X0089740Y0175882D01*
X0089582Y0175882D01*
X0089424Y0175886D01*
X0089265Y0175894D01*
X0089108Y0175906D01*
X0088950Y0175922D01*
X0088793Y0175942D01*
X0088637Y0175966D01*
X0088481Y0175994D01*
X0088326Y0176025D01*
X0088171Y0176061D01*
X0088018Y0176100D01*
X0087866Y0176143D01*
X0087715Y0176190D01*
X0087565Y0176241D01*
X0087416Y0176296D01*
X0087269Y0176354D01*
X0087123Y0176416D01*
X0086979Y0176481D01*
X0086837Y0176551D01*
X0086696Y0176623D01*
X0086557Y0176700D01*
X0086421Y0176779D01*
X0086286Y0176863D01*
X0086153Y0176949D01*
X0086023Y0177039D01*
X0085895Y0177132D01*
X0085769Y0177228D01*
X0085646Y0177328D01*
X0085525Y0177430D01*
X0085407Y0177535D01*
X0085292Y0177644D01*
X0085179Y0177755D01*
X0085069Y0177869D01*
X0084962Y0177986D01*
X0084858Y0178105D01*
X0084757Y0178227D01*
X0084660Y0178352D01*
X0084565Y0178479D01*
X0084474Y0178608D01*
X0084385Y0178739D01*
X0084301Y0178873D01*
X0084219Y0179009D01*
X0084141Y0179146D01*
X0084067Y0179286D01*
X0083996Y0179428D01*
X0083928Y0179571D01*
X0083864Y0179716D01*
X0083804Y0179862D01*
X0083748Y0180010D01*
X0083695Y0180159D01*
X0083646Y0180310D01*
X0083601Y0180462D01*
X0083560Y0180615D01*
X0083522Y0180768D01*
X0083489Y0180923D01*
X0083459Y0181079D01*
X0083433Y0181235D01*
X0083412Y0181392D01*
X0083394Y0181549D01*
X0083380Y0181707D01*
X0083370Y0181865D01*
X0083364Y0182023D01*
X0083362Y0182181D01*
X0061433Y0239347D02*
X0061435Y0239516D01*
X0061441Y0239685D01*
X0061452Y0239854D01*
X0061466Y0240022D01*
X0061485Y0240190D01*
X0061508Y0240358D01*
X0061534Y0240525D01*
X0061565Y0240691D01*
X0061600Y0240857D01*
X0061639Y0241021D01*
X0061683Y0241185D01*
X0061730Y0241347D01*
X0061781Y0241508D01*
X0061836Y0241668D01*
X0061895Y0241827D01*
X0061957Y0241984D01*
X0062024Y0242139D01*
X0062095Y0242293D01*
X0062169Y0242445D01*
X0062247Y0242595D01*
X0062328Y0242743D01*
X0062413Y0242889D01*
X0062502Y0243033D01*
X0062594Y0243175D01*
X0062690Y0243314D01*
X0062789Y0243451D01*
X0062891Y0243586D01*
X0062997Y0243718D01*
X0063106Y0243847D01*
X0063218Y0243974D01*
X0063333Y0244098D01*
X0063451Y0244219D01*
X0063572Y0244337D01*
X0063696Y0244452D01*
X0063823Y0244564D01*
X0063952Y0244673D01*
X0064084Y0244779D01*
X0064219Y0244881D01*
X0064356Y0244980D01*
X0064495Y0245076D01*
X0064637Y0245168D01*
X0064781Y0245257D01*
X0064927Y0245342D01*
X0065075Y0245423D01*
X0065225Y0245501D01*
X0065377Y0245575D01*
X0065531Y0245646D01*
X0065686Y0245713D01*
X0065843Y0245775D01*
X0066002Y0245834D01*
X0066162Y0245889D01*
X0066323Y0245940D01*
X0066485Y0245987D01*
X0066649Y0246031D01*
X0066813Y0246070D01*
X0066979Y0246105D01*
X0067145Y0246136D01*
X0067312Y0246162D01*
X0067480Y0246185D01*
X0067648Y0246204D01*
X0067816Y0246218D01*
X0067985Y0246229D01*
X0068154Y0246235D01*
X0068323Y0246237D01*
X0068492Y0246235D01*
X0068661Y0246229D01*
X0068830Y0246218D01*
X0068998Y0246204D01*
X0069166Y0246185D01*
X0069334Y0246162D01*
X0069501Y0246136D01*
X0069667Y0246105D01*
X0069833Y0246070D01*
X0069997Y0246031D01*
X0070161Y0245987D01*
X0070323Y0245940D01*
X0070484Y0245889D01*
X0070644Y0245834D01*
X0070803Y0245775D01*
X0070960Y0245713D01*
X0071115Y0245646D01*
X0071269Y0245575D01*
X0071421Y0245501D01*
X0071571Y0245423D01*
X0071719Y0245342D01*
X0071865Y0245257D01*
X0072009Y0245168D01*
X0072151Y0245076D01*
X0072290Y0244980D01*
X0072427Y0244881D01*
X0072562Y0244779D01*
X0072694Y0244673D01*
X0072823Y0244564D01*
X0072950Y0244452D01*
X0073074Y0244337D01*
X0073195Y0244219D01*
X0073313Y0244098D01*
X0073428Y0243974D01*
X0073540Y0243847D01*
X0073649Y0243718D01*
X0073755Y0243586D01*
X0073857Y0243451D01*
X0073956Y0243314D01*
X0074052Y0243175D01*
X0074144Y0243033D01*
X0074233Y0242889D01*
X0074318Y0242743D01*
X0074399Y0242595D01*
X0074477Y0242445D01*
X0074551Y0242293D01*
X0074622Y0242139D01*
X0074689Y0241984D01*
X0074751Y0241827D01*
X0074810Y0241668D01*
X0074865Y0241508D01*
X0074916Y0241347D01*
X0074963Y0241185D01*
X0075007Y0241021D01*
X0075046Y0240857D01*
X0075081Y0240691D01*
X0075112Y0240525D01*
X0075138Y0240358D01*
X0075161Y0240190D01*
X0075180Y0240022D01*
X0075194Y0239854D01*
X0075205Y0239685D01*
X0075211Y0239516D01*
X0075213Y0239347D01*
X0075211Y0239178D01*
X0075205Y0239009D01*
X0075194Y0238840D01*
X0075180Y0238672D01*
X0075161Y0238504D01*
X0075138Y0238336D01*
X0075112Y0238169D01*
X0075081Y0238003D01*
X0075046Y0237837D01*
X0075007Y0237673D01*
X0074963Y0237509D01*
X0074916Y0237347D01*
X0074865Y0237186D01*
X0074810Y0237026D01*
X0074751Y0236867D01*
X0074689Y0236710D01*
X0074622Y0236555D01*
X0074551Y0236401D01*
X0074477Y0236249D01*
X0074399Y0236099D01*
X0074318Y0235951D01*
X0074233Y0235805D01*
X0074144Y0235661D01*
X0074052Y0235519D01*
X0073956Y0235380D01*
X0073857Y0235243D01*
X0073755Y0235108D01*
X0073649Y0234976D01*
X0073540Y0234847D01*
X0073428Y0234720D01*
X0073313Y0234596D01*
X0073195Y0234475D01*
X0073074Y0234357D01*
X0072950Y0234242D01*
X0072823Y0234130D01*
X0072694Y0234021D01*
X0072562Y0233915D01*
X0072427Y0233813D01*
X0072290Y0233714D01*
X0072151Y0233618D01*
X0072009Y0233526D01*
X0071865Y0233437D01*
X0071719Y0233352D01*
X0071571Y0233271D01*
X0071421Y0233193D01*
X0071269Y0233119D01*
X0071115Y0233048D01*
X0070960Y0232981D01*
X0070803Y0232919D01*
X0070644Y0232860D01*
X0070484Y0232805D01*
X0070323Y0232754D01*
X0070161Y0232707D01*
X0069997Y0232663D01*
X0069833Y0232624D01*
X0069667Y0232589D01*
X0069501Y0232558D01*
X0069334Y0232532D01*
X0069166Y0232509D01*
X0068998Y0232490D01*
X0068830Y0232476D01*
X0068661Y0232465D01*
X0068492Y0232459D01*
X0068323Y0232457D01*
X0068154Y0232459D01*
X0067985Y0232465D01*
X0067816Y0232476D01*
X0067648Y0232490D01*
X0067480Y0232509D01*
X0067312Y0232532D01*
X0067145Y0232558D01*
X0066979Y0232589D01*
X0066813Y0232624D01*
X0066649Y0232663D01*
X0066485Y0232707D01*
X0066323Y0232754D01*
X0066162Y0232805D01*
X0066002Y0232860D01*
X0065843Y0232919D01*
X0065686Y0232981D01*
X0065531Y0233048D01*
X0065377Y0233119D01*
X0065225Y0233193D01*
X0065075Y0233271D01*
X0064927Y0233352D01*
X0064781Y0233437D01*
X0064637Y0233526D01*
X0064495Y0233618D01*
X0064356Y0233714D01*
X0064219Y0233813D01*
X0064084Y0233915D01*
X0063952Y0234021D01*
X0063823Y0234130D01*
X0063696Y0234242D01*
X0063572Y0234357D01*
X0063451Y0234475D01*
X0063333Y0234596D01*
X0063218Y0234720D01*
X0063106Y0234847D01*
X0062997Y0234976D01*
X0062891Y0235108D01*
X0062789Y0235243D01*
X0062690Y0235380D01*
X0062594Y0235519D01*
X0062502Y0235661D01*
X0062413Y0235805D01*
X0062328Y0235951D01*
X0062247Y0236099D01*
X0062169Y0236249D01*
X0062095Y0236401D01*
X0062024Y0236555D01*
X0061957Y0236710D01*
X0061895Y0236867D01*
X0061836Y0237026D01*
X0061781Y0237186D01*
X0061730Y0237347D01*
X0061683Y0237509D01*
X0061639Y0237673D01*
X0061600Y0237837D01*
X0061565Y0238003D01*
X0061534Y0238169D01*
X0061508Y0238336D01*
X0061485Y0238504D01*
X0061466Y0238672D01*
X0061452Y0238840D01*
X0061441Y0239009D01*
X0061435Y0239178D01*
X0061433Y0239347D01*
X0014465Y0241236D02*
X0014467Y0241394D01*
X0014473Y0241552D01*
X0014483Y0241710D01*
X0014497Y0241868D01*
X0014515Y0242025D01*
X0014536Y0242182D01*
X0014562Y0242338D01*
X0014592Y0242494D01*
X0014625Y0242649D01*
X0014663Y0242802D01*
X0014704Y0242955D01*
X0014749Y0243107D01*
X0014798Y0243258D01*
X0014851Y0243407D01*
X0014907Y0243555D01*
X0014967Y0243701D01*
X0015031Y0243846D01*
X0015099Y0243989D01*
X0015170Y0244131D01*
X0015244Y0244271D01*
X0015322Y0244408D01*
X0015404Y0244544D01*
X0015488Y0244678D01*
X0015577Y0244809D01*
X0015668Y0244938D01*
X0015763Y0245065D01*
X0015860Y0245190D01*
X0015961Y0245312D01*
X0016065Y0245431D01*
X0016172Y0245548D01*
X0016282Y0245662D01*
X0016395Y0245773D01*
X0016510Y0245882D01*
X0016628Y0245987D01*
X0016749Y0246089D01*
X0016872Y0246189D01*
X0016998Y0246285D01*
X0017126Y0246378D01*
X0017256Y0246468D01*
X0017389Y0246554D01*
X0017524Y0246638D01*
X0017660Y0246717D01*
X0017799Y0246794D01*
X0017940Y0246866D01*
X0018082Y0246936D01*
X0018226Y0247001D01*
X0018372Y0247063D01*
X0018519Y0247121D01*
X0018668Y0247176D01*
X0018818Y0247227D01*
X0018969Y0247274D01*
X0019121Y0247317D01*
X0019274Y0247356D01*
X0019429Y0247392D01*
X0019584Y0247423D01*
X0019740Y0247451D01*
X0019896Y0247475D01*
X0020053Y0247495D01*
X0020211Y0247511D01*
X0020368Y0247523D01*
X0020527Y0247531D01*
X0020685Y0247535D01*
X0020843Y0247535D01*
X0021001Y0247531D01*
X0021160Y0247523D01*
X0021317Y0247511D01*
X0021475Y0247495D01*
X0021632Y0247475D01*
X0021788Y0247451D01*
X0021944Y0247423D01*
X0022099Y0247392D01*
X0022254Y0247356D01*
X0022407Y0247317D01*
X0022559Y0247274D01*
X0022710Y0247227D01*
X0022860Y0247176D01*
X0023009Y0247121D01*
X0023156Y0247063D01*
X0023302Y0247001D01*
X0023446Y0246936D01*
X0023588Y0246866D01*
X0023729Y0246794D01*
X0023868Y0246717D01*
X0024004Y0246638D01*
X0024139Y0246554D01*
X0024272Y0246468D01*
X0024402Y0246378D01*
X0024530Y0246285D01*
X0024656Y0246189D01*
X0024779Y0246089D01*
X0024900Y0245987D01*
X0025018Y0245882D01*
X0025133Y0245773D01*
X0025246Y0245662D01*
X0025356Y0245548D01*
X0025463Y0245431D01*
X0025567Y0245312D01*
X0025668Y0245190D01*
X0025765Y0245065D01*
X0025860Y0244938D01*
X0025951Y0244809D01*
X0026040Y0244678D01*
X0026124Y0244544D01*
X0026206Y0244408D01*
X0026284Y0244271D01*
X0026358Y0244131D01*
X0026429Y0243989D01*
X0026497Y0243846D01*
X0026561Y0243701D01*
X0026621Y0243555D01*
X0026677Y0243407D01*
X0026730Y0243258D01*
X0026779Y0243107D01*
X0026824Y0242955D01*
X0026865Y0242802D01*
X0026903Y0242649D01*
X0026936Y0242494D01*
X0026966Y0242338D01*
X0026992Y0242182D01*
X0027013Y0242025D01*
X0027031Y0241868D01*
X0027045Y0241710D01*
X0027055Y0241552D01*
X0027061Y0241394D01*
X0027063Y0241236D01*
X0027061Y0241078D01*
X0027055Y0240920D01*
X0027045Y0240762D01*
X0027031Y0240604D01*
X0027013Y0240447D01*
X0026992Y0240290D01*
X0026966Y0240134D01*
X0026936Y0239978D01*
X0026903Y0239823D01*
X0026865Y0239670D01*
X0026824Y0239517D01*
X0026779Y0239365D01*
X0026730Y0239214D01*
X0026677Y0239065D01*
X0026621Y0238917D01*
X0026561Y0238771D01*
X0026497Y0238626D01*
X0026429Y0238483D01*
X0026358Y0238341D01*
X0026284Y0238201D01*
X0026206Y0238064D01*
X0026124Y0237928D01*
X0026040Y0237794D01*
X0025951Y0237663D01*
X0025860Y0237534D01*
X0025765Y0237407D01*
X0025668Y0237282D01*
X0025567Y0237160D01*
X0025463Y0237041D01*
X0025356Y0236924D01*
X0025246Y0236810D01*
X0025133Y0236699D01*
X0025018Y0236590D01*
X0024900Y0236485D01*
X0024779Y0236383D01*
X0024656Y0236283D01*
X0024530Y0236187D01*
X0024402Y0236094D01*
X0024272Y0236004D01*
X0024139Y0235918D01*
X0024004Y0235834D01*
X0023868Y0235755D01*
X0023729Y0235678D01*
X0023588Y0235606D01*
X0023446Y0235536D01*
X0023302Y0235471D01*
X0023156Y0235409D01*
X0023009Y0235351D01*
X0022860Y0235296D01*
X0022710Y0235245D01*
X0022559Y0235198D01*
X0022407Y0235155D01*
X0022254Y0235116D01*
X0022099Y0235080D01*
X0021944Y0235049D01*
X0021788Y0235021D01*
X0021632Y0234997D01*
X0021475Y0234977D01*
X0021317Y0234961D01*
X0021160Y0234949D01*
X0021001Y0234941D01*
X0020843Y0234937D01*
X0020685Y0234937D01*
X0020527Y0234941D01*
X0020368Y0234949D01*
X0020211Y0234961D01*
X0020053Y0234977D01*
X0019896Y0234997D01*
X0019740Y0235021D01*
X0019584Y0235049D01*
X0019429Y0235080D01*
X0019274Y0235116D01*
X0019121Y0235155D01*
X0018969Y0235198D01*
X0018818Y0235245D01*
X0018668Y0235296D01*
X0018519Y0235351D01*
X0018372Y0235409D01*
X0018226Y0235471D01*
X0018082Y0235536D01*
X0017940Y0235606D01*
X0017799Y0235678D01*
X0017660Y0235755D01*
X0017524Y0235834D01*
X0017389Y0235918D01*
X0017256Y0236004D01*
X0017126Y0236094D01*
X0016998Y0236187D01*
X0016872Y0236283D01*
X0016749Y0236383D01*
X0016628Y0236485D01*
X0016510Y0236590D01*
X0016395Y0236699D01*
X0016282Y0236810D01*
X0016172Y0236924D01*
X0016065Y0237041D01*
X0015961Y0237160D01*
X0015860Y0237282D01*
X0015763Y0237407D01*
X0015668Y0237534D01*
X0015577Y0237663D01*
X0015488Y0237794D01*
X0015404Y0237928D01*
X0015322Y0238064D01*
X0015244Y0238201D01*
X0015170Y0238341D01*
X0015099Y0238483D01*
X0015031Y0238626D01*
X0014967Y0238771D01*
X0014907Y0238917D01*
X0014851Y0239065D01*
X0014798Y0239214D01*
X0014749Y0239365D01*
X0014704Y0239517D01*
X0014663Y0239670D01*
X0014625Y0239823D01*
X0014592Y0239978D01*
X0014562Y0240134D01*
X0014536Y0240290D01*
X0014515Y0240447D01*
X0014497Y0240604D01*
X0014483Y0240762D01*
X0014473Y0240920D01*
X0014467Y0241078D01*
X0014465Y0241236D01*
X0234937Y0241236D02*
X0234939Y0241394D01*
X0234945Y0241552D01*
X0234955Y0241710D01*
X0234969Y0241868D01*
X0234987Y0242025D01*
X0235008Y0242182D01*
X0235034Y0242338D01*
X0235064Y0242494D01*
X0235097Y0242649D01*
X0235135Y0242802D01*
X0235176Y0242955D01*
X0235221Y0243107D01*
X0235270Y0243258D01*
X0235323Y0243407D01*
X0235379Y0243555D01*
X0235439Y0243701D01*
X0235503Y0243846D01*
X0235571Y0243989D01*
X0235642Y0244131D01*
X0235716Y0244271D01*
X0235794Y0244408D01*
X0235876Y0244544D01*
X0235960Y0244678D01*
X0236049Y0244809D01*
X0236140Y0244938D01*
X0236235Y0245065D01*
X0236332Y0245190D01*
X0236433Y0245312D01*
X0236537Y0245431D01*
X0236644Y0245548D01*
X0236754Y0245662D01*
X0236867Y0245773D01*
X0236982Y0245882D01*
X0237100Y0245987D01*
X0237221Y0246089D01*
X0237344Y0246189D01*
X0237470Y0246285D01*
X0237598Y0246378D01*
X0237728Y0246468D01*
X0237861Y0246554D01*
X0237996Y0246638D01*
X0238132Y0246717D01*
X0238271Y0246794D01*
X0238412Y0246866D01*
X0238554Y0246936D01*
X0238698Y0247001D01*
X0238844Y0247063D01*
X0238991Y0247121D01*
X0239140Y0247176D01*
X0239290Y0247227D01*
X0239441Y0247274D01*
X0239593Y0247317D01*
X0239746Y0247356D01*
X0239901Y0247392D01*
X0240056Y0247423D01*
X0240212Y0247451D01*
X0240368Y0247475D01*
X0240525Y0247495D01*
X0240683Y0247511D01*
X0240840Y0247523D01*
X0240999Y0247531D01*
X0241157Y0247535D01*
X0241315Y0247535D01*
X0241473Y0247531D01*
X0241632Y0247523D01*
X0241789Y0247511D01*
X0241947Y0247495D01*
X0242104Y0247475D01*
X0242260Y0247451D01*
X0242416Y0247423D01*
X0242571Y0247392D01*
X0242726Y0247356D01*
X0242879Y0247317D01*
X0243031Y0247274D01*
X0243182Y0247227D01*
X0243332Y0247176D01*
X0243481Y0247121D01*
X0243628Y0247063D01*
X0243774Y0247001D01*
X0243918Y0246936D01*
X0244060Y0246866D01*
X0244201Y0246794D01*
X0244340Y0246717D01*
X0244476Y0246638D01*
X0244611Y0246554D01*
X0244744Y0246468D01*
X0244874Y0246378D01*
X0245002Y0246285D01*
X0245128Y0246189D01*
X0245251Y0246089D01*
X0245372Y0245987D01*
X0245490Y0245882D01*
X0245605Y0245773D01*
X0245718Y0245662D01*
X0245828Y0245548D01*
X0245935Y0245431D01*
X0246039Y0245312D01*
X0246140Y0245190D01*
X0246237Y0245065D01*
X0246332Y0244938D01*
X0246423Y0244809D01*
X0246512Y0244678D01*
X0246596Y0244544D01*
X0246678Y0244408D01*
X0246756Y0244271D01*
X0246830Y0244131D01*
X0246901Y0243989D01*
X0246969Y0243846D01*
X0247033Y0243701D01*
X0247093Y0243555D01*
X0247149Y0243407D01*
X0247202Y0243258D01*
X0247251Y0243107D01*
X0247296Y0242955D01*
X0247337Y0242802D01*
X0247375Y0242649D01*
X0247408Y0242494D01*
X0247438Y0242338D01*
X0247464Y0242182D01*
X0247485Y0242025D01*
X0247503Y0241868D01*
X0247517Y0241710D01*
X0247527Y0241552D01*
X0247533Y0241394D01*
X0247535Y0241236D01*
X0247533Y0241078D01*
X0247527Y0240920D01*
X0247517Y0240762D01*
X0247503Y0240604D01*
X0247485Y0240447D01*
X0247464Y0240290D01*
X0247438Y0240134D01*
X0247408Y0239978D01*
X0247375Y0239823D01*
X0247337Y0239670D01*
X0247296Y0239517D01*
X0247251Y0239365D01*
X0247202Y0239214D01*
X0247149Y0239065D01*
X0247093Y0238917D01*
X0247033Y0238771D01*
X0246969Y0238626D01*
X0246901Y0238483D01*
X0246830Y0238341D01*
X0246756Y0238201D01*
X0246678Y0238064D01*
X0246596Y0237928D01*
X0246512Y0237794D01*
X0246423Y0237663D01*
X0246332Y0237534D01*
X0246237Y0237407D01*
X0246140Y0237282D01*
X0246039Y0237160D01*
X0245935Y0237041D01*
X0245828Y0236924D01*
X0245718Y0236810D01*
X0245605Y0236699D01*
X0245490Y0236590D01*
X0245372Y0236485D01*
X0245251Y0236383D01*
X0245128Y0236283D01*
X0245002Y0236187D01*
X0244874Y0236094D01*
X0244744Y0236004D01*
X0244611Y0235918D01*
X0244476Y0235834D01*
X0244340Y0235755D01*
X0244201Y0235678D01*
X0244060Y0235606D01*
X0243918Y0235536D01*
X0243774Y0235471D01*
X0243628Y0235409D01*
X0243481Y0235351D01*
X0243332Y0235296D01*
X0243182Y0235245D01*
X0243031Y0235198D01*
X0242879Y0235155D01*
X0242726Y0235116D01*
X0242571Y0235080D01*
X0242416Y0235049D01*
X0242260Y0235021D01*
X0242104Y0234997D01*
X0241947Y0234977D01*
X0241789Y0234961D01*
X0241632Y0234949D01*
X0241473Y0234941D01*
X0241315Y0234937D01*
X0241157Y0234937D01*
X0240999Y0234941D01*
X0240840Y0234949D01*
X0240683Y0234961D01*
X0240525Y0234977D01*
X0240368Y0234997D01*
X0240212Y0235021D01*
X0240056Y0235049D01*
X0239901Y0235080D01*
X0239746Y0235116D01*
X0239593Y0235155D01*
X0239441Y0235198D01*
X0239290Y0235245D01*
X0239140Y0235296D01*
X0238991Y0235351D01*
X0238844Y0235409D01*
X0238698Y0235471D01*
X0238554Y0235536D01*
X0238412Y0235606D01*
X0238271Y0235678D01*
X0238132Y0235755D01*
X0237996Y0235834D01*
X0237861Y0235918D01*
X0237728Y0236004D01*
X0237598Y0236094D01*
X0237470Y0236187D01*
X0237344Y0236283D01*
X0237221Y0236383D01*
X0237100Y0236485D01*
X0236982Y0236590D01*
X0236867Y0236699D01*
X0236754Y0236810D01*
X0236644Y0236924D01*
X0236537Y0237041D01*
X0236433Y0237160D01*
X0236332Y0237282D01*
X0236235Y0237407D01*
X0236140Y0237534D01*
X0236049Y0237663D01*
X0235960Y0237794D01*
X0235876Y0237928D01*
X0235794Y0238064D01*
X0235716Y0238201D01*
X0235642Y0238341D01*
X0235571Y0238483D01*
X0235503Y0238626D01*
X0235439Y0238771D01*
X0235379Y0238917D01*
X0235323Y0239065D01*
X0235270Y0239214D01*
X0235221Y0239365D01*
X0235176Y0239517D01*
X0235135Y0239670D01*
X0235097Y0239823D01*
X0235064Y0239978D01*
X0235034Y0240134D01*
X0235008Y0240290D01*
X0234987Y0240447D01*
X0234969Y0240604D01*
X0234955Y0240762D01*
X0234945Y0240920D01*
X0234939Y0241078D01*
X0234937Y0241236D01*
D11*
X0241236Y0241236D03*
X0172339Y0182181D03*
X0089661Y0182181D03*
X0020764Y0241236D03*
X0089661Y0079819D03*
X0020764Y0016827D03*
X0172339Y0079819D03*
X0241236Y0016827D03*
D12*
X0183178Y0120923D02*
X0177178Y0120923D01*
X0177178Y0130923D02*
X0183178Y0130923D01*
X0183178Y0140923D02*
X0177178Y0140923D01*
X0084496Y0140923D02*
X0078496Y0140923D01*
X0078496Y0130923D02*
X0084496Y0130923D01*
X0084496Y0120923D02*
X0078496Y0120923D01*
D13*
X0130922Y0026591D03*
X0130922Y0235253D03*
D14*
X0068323Y0239347D03*
X0239347Y0068324D03*
X0042394Y0042395D03*
D15*
X0245650Y0174603D03*
X0249811Y0165682D03*
X0253969Y0156765D03*
D16*
X0249894Y0094548D03*
D17*
X0153756Y0212142D03*
X0148756Y0222142D03*
X0143756Y0212142D03*
X0133756Y0212142D03*
X0138756Y0222142D03*
X0128756Y0222142D03*
X0123756Y0212142D03*
X0118756Y0222142D03*
X0113756Y0212142D03*
X0108756Y0222142D03*
D18*
X0160134Y0220705D03*
M02*
